<svg width="460" height="427" viewBox="0 0 460 427" fill="none" xmlns="http://www.w3.org/2000/svg">
<g opacity="0.3">
<path d="M306.418 198.731V203.151H272.788V197.001H287.258V198.731H306.418Z" stroke="black" stroke-miterlimit="10" stroke-linecap="round" stroke-linejoin="round"/>
<path d="M306.418 203.151V222.225C306.418 223.196 305.631 223.983 304.66 223.983H274.545C273.574 223.983 272.787 223.196 272.787 222.225V203.151H306.418Z" stroke="black" stroke-miterlimit="10" stroke-linecap="round" stroke-linejoin="round"/>
<path d="M306.418 237.4V241.82H272.788V235.67H287.258V237.4H306.418Z" stroke="black" stroke-miterlimit="10" stroke-linecap="round" stroke-linejoin="round"/>
<path d="M306.418 241.82V260.894C306.418 261.865 305.631 262.652 304.66 262.652H274.545C273.574 262.652 272.787 261.865 272.787 260.894V241.82H306.418Z" stroke="black" stroke-miterlimit="10" stroke-linecap="round" stroke-linejoin="round"/>
<path d="M356.385 198.731V203.151H322.755V197.001H337.225V198.731H356.385Z" stroke="black" stroke-miterlimit="10" stroke-linecap="round" stroke-linejoin="round"/>
<path d="M356.385 203.151V222.225C356.385 223.196 355.598 223.983 354.627 223.983H324.512C323.541 223.983 322.754 223.196 322.754 222.225V203.151H356.385Z" stroke="black" stroke-miterlimit="10" stroke-linecap="round" stroke-linejoin="round"/>
<path d="M356.385 237.4V241.82H322.755V235.67H337.225V237.4H356.385Z" stroke="black" stroke-miterlimit="10" stroke-linecap="round" stroke-linejoin="round"/>
<path d="M356.385 241.82V260.894C356.385 261.865 355.598 262.652 354.627 262.652H324.512C323.541 262.652 322.754 261.865 322.754 260.894V241.82H356.385Z" stroke="black" stroke-miterlimit="10" stroke-linecap="round" stroke-linejoin="round"/>
<path d="M407.924 198.731V203.151H374.294V197.001H388.764V198.731H407.924Z" stroke="black" stroke-miterlimit="10" stroke-linecap="round" stroke-linejoin="round"/>
<path d="M407.924 203.151V222.225C407.924 223.196 407.137 223.983 406.166 223.983H376.051C375.08 223.983 374.293 223.196 374.293 222.225V203.151H407.924Z" stroke="black" stroke-miterlimit="10" stroke-linecap="round" stroke-linejoin="round"/>
<path d="M407.924 237.4V241.82H374.294V235.67H388.764V237.4H407.924Z" stroke="black" stroke-miterlimit="10" stroke-linecap="round" stroke-linejoin="round"/>
<path d="M407.924 241.82V260.894C407.924 261.865 407.137 262.652 406.166 262.652H376.051C375.08 262.652 374.293 261.865 374.293 260.894V241.82H407.924Z" stroke="black" stroke-miterlimit="10" stroke-linecap="round" stroke-linejoin="round"/>
<path d="M459.463 198.731V203.151H425.833V197.001H440.303V198.731H459.463Z" stroke="black" stroke-miterlimit="10" stroke-linecap="round" stroke-linejoin="round"/>
<path d="M459.463 203.151V222.225C459.463 223.196 458.676 223.983 457.705 223.983H427.59C426.619 223.983 425.832 223.196 425.832 222.225V203.151H459.463Z" stroke="black" stroke-miterlimit="10" stroke-linecap="round" stroke-linejoin="round"/>
<path d="M459.463 237.4V241.82H425.833V235.67H440.303V237.4H459.463Z" stroke="black" stroke-miterlimit="10" stroke-linecap="round" stroke-linejoin="round"/>
<path d="M459.463 241.82V260.894C459.463 261.865 458.676 262.652 457.705 262.652H427.59C426.619 262.652 425.832 261.865 425.832 260.894V241.82H459.463Z" stroke="black" stroke-miterlimit="10" stroke-linecap="round" stroke-linejoin="round"/>
</g>
<g opacity="0.3">
<path d="M261.577 338.465V340.376H246.71V337.716H253.107V338.465H261.577Z" stroke="black" stroke-miterlimit="10" stroke-linecap="round" stroke-linejoin="round"/>
<path d="M261.577 340.376V348.629C261.577 349.049 261.229 349.389 260.8 349.389H247.487C247.058 349.389 246.71 349.049 246.71 348.629V340.376H261.577Z" stroke="black" stroke-miterlimit="10" stroke-linecap="round" stroke-linejoin="round"/>
<path d="M261.577 355.195V357.107H246.71V354.446H253.107V355.195H261.577Z" stroke="black" stroke-miterlimit="10" stroke-linecap="round" stroke-linejoin="round"/>
<path d="M261.577 357.107V365.36C261.577 365.78 261.229 366.12 260.8 366.12H247.487C247.058 366.12 246.71 365.78 246.71 365.36V357.107H261.577Z" stroke="black" stroke-miterlimit="10" stroke-linecap="round" stroke-linejoin="round"/>
<path d="M283.667 338.465V340.376H268.8V337.716H275.197V338.465H283.667Z" stroke="black" stroke-miterlimit="10" stroke-linecap="round" stroke-linejoin="round"/>
<path d="M283.667 340.376V348.629C283.667 349.049 283.319 349.389 282.89 349.389H269.577C269.148 349.389 268.8 349.049 268.8 348.629V340.376H283.667Z" stroke="black" stroke-miterlimit="10" stroke-linecap="round" stroke-linejoin="round"/>
<path d="M283.667 355.195V357.107H268.8V354.446H275.197V355.195H283.667Z" stroke="black" stroke-miterlimit="10" stroke-linecap="round" stroke-linejoin="round"/>
<path d="M283.667 357.107V365.36C283.667 365.78 283.319 366.12 282.89 366.12H269.577C269.148 366.12 268.8 365.78 268.8 365.36V357.107H283.667Z" stroke="black" stroke-miterlimit="10" stroke-linecap="round" stroke-linejoin="round"/>
<path d="M306.451 338.465V340.376H291.584V337.716H297.981V338.465H306.451Z" stroke="black" stroke-miterlimit="10" stroke-linecap="round" stroke-linejoin="round"/>
<path d="M306.451 340.376V348.629C306.451 349.049 306.103 349.389 305.674 349.389H292.361C291.932 349.389 291.584 349.049 291.584 348.629V340.376H306.451Z" stroke="black" stroke-miterlimit="10" stroke-linecap="round" stroke-linejoin="round"/>
<path d="M306.451 355.195V357.107H291.584V354.446H297.981V355.195H306.451Z" stroke="black" stroke-miterlimit="10" stroke-linecap="round" stroke-linejoin="round"/>
<path d="M306.451 357.107V365.36C306.451 365.78 306.103 366.12 305.674 366.12H292.361C291.932 366.12 291.584 365.78 291.584 365.36V357.107H306.451Z" stroke="black" stroke-miterlimit="10" stroke-linecap="round" stroke-linejoin="round"/>
<path d="M329.235 338.465V340.376H314.368V337.716H320.765V338.465H329.235Z" stroke="black" stroke-miterlimit="10" stroke-linecap="round" stroke-linejoin="round"/>
<path d="M329.235 340.376V348.629C329.235 349.049 328.887 349.389 328.458 349.389H315.145C314.716 349.389 314.368 349.049 314.368 348.629V340.376H329.235Z" stroke="black" stroke-miterlimit="10" stroke-linecap="round" stroke-linejoin="round"/>
<path d="M329.235 355.195V357.107H314.368V354.446H320.765V355.195H329.235Z" stroke="black" stroke-miterlimit="10" stroke-linecap="round" stroke-linejoin="round"/>
<path d="M329.235 357.107V365.36C329.235 365.78 328.887 366.12 328.458 366.12H315.145C314.716 366.12 314.368 365.78 314.368 365.36V357.107H329.235Z" stroke="black" stroke-miterlimit="10" stroke-linecap="round" stroke-linejoin="round"/>
</g>
<g opacity="0.3">
<path d="M261.577 374.271V376.184H246.71V373.522H253.107V374.271H261.577Z" stroke="black" stroke-miterlimit="10" stroke-linecap="round" stroke-linejoin="round"/>
<path d="M261.577 376.184V384.436C261.577 384.856 261.229 385.197 260.8 385.197H247.487C247.058 385.197 246.71 384.856 246.71 384.436V376.184H261.577Z" stroke="black" stroke-miterlimit="10" stroke-linecap="round" stroke-linejoin="round"/>
<path d="M261.577 391.002V392.915H246.71V390.254H253.107V391.002H261.577Z" stroke="black" stroke-miterlimit="10" stroke-linecap="round" stroke-linejoin="round"/>
<path d="M261.577 392.915V401.167C261.577 401.587 261.229 401.928 260.8 401.928H247.487C247.058 401.928 246.71 401.587 246.71 401.167V392.915H261.577Z" stroke="black" stroke-miterlimit="10" stroke-linecap="round" stroke-linejoin="round"/>
<path d="M283.667 374.271V376.184H268.8V373.522H275.197V374.271H283.667Z" stroke="black" stroke-miterlimit="10" stroke-linecap="round" stroke-linejoin="round"/>
<path d="M283.667 376.184V384.436C283.667 384.856 283.319 385.197 282.89 385.197H269.577C269.148 385.197 268.8 384.856 268.8 384.436V376.184H283.667Z" stroke="black" stroke-miterlimit="10" stroke-linecap="round" stroke-linejoin="round"/>
<path d="M283.667 391.002V392.915H268.8V390.254H275.197V391.002H283.667Z" stroke="black" stroke-miterlimit="10" stroke-linecap="round" stroke-linejoin="round"/>
<path d="M283.667 392.915V401.167C283.667 401.587 283.319 401.928 282.89 401.928H269.577C269.148 401.928 268.8 401.587 268.8 401.167V392.915H283.667Z" stroke="black" stroke-miterlimit="10" stroke-linecap="round" stroke-linejoin="round"/>
<path d="M306.451 374.271V376.184H291.584V373.522H297.981V374.271H306.451Z" stroke="black" stroke-miterlimit="10" stroke-linecap="round" stroke-linejoin="round"/>
<path d="M306.451 376.184V384.436C306.451 384.856 306.103 385.197 305.674 385.197H292.361C291.932 385.197 291.584 384.856 291.584 384.436V376.184H306.451Z" stroke="black" stroke-miterlimit="10" stroke-linecap="round" stroke-linejoin="round"/>
<path d="M306.451 391.002V392.915H291.584V390.254H297.981V391.002H306.451Z" stroke="black" stroke-miterlimit="10" stroke-linecap="round" stroke-linejoin="round"/>
<path d="M306.451 392.915V401.167C306.451 401.587 306.103 401.928 305.674 401.928H292.361C291.932 401.928 291.584 401.587 291.584 401.167V392.915H306.451Z" stroke="black" stroke-miterlimit="10" stroke-linecap="round" stroke-linejoin="round"/>
<path d="M329.235 374.271V376.184H314.368V373.522H320.765V374.271H329.235Z" stroke="black" stroke-miterlimit="10" stroke-linecap="round" stroke-linejoin="round"/>
<path d="M329.235 376.184V384.436C329.235 384.856 328.887 385.197 328.458 385.197H315.145C314.716 385.197 314.368 384.856 314.368 384.436V376.184H329.235Z" stroke="black" stroke-miterlimit="10" stroke-linecap="round" stroke-linejoin="round"/>
<path d="M329.235 391.002V392.915H314.368V390.254H320.765V391.002H329.235Z" stroke="black" stroke-miterlimit="10" stroke-linecap="round" stroke-linejoin="round"/>
<path d="M329.235 392.915V401.167C329.235 401.587 328.887 401.928 328.458 401.928H315.145C314.716 401.928 314.368 401.587 314.368 401.167V392.915H329.235Z" stroke="black" stroke-miterlimit="10" stroke-linecap="round" stroke-linejoin="round"/>
</g>
<path opacity="0.3" d="M345.902 322H217.642V419H345.902V322Z" stroke="black" stroke-miterlimit="10" stroke-linecap="round" stroke-linejoin="round"/>
<path opacity="0.3" d="M217.635 330.29H345.237" stroke="black" stroke-miterlimit="10" stroke-linecap="round" stroke-linejoin="round"/>
<path opacity="0.3" d="M239.943 330.726V418.058" stroke="black" stroke-miterlimit="10" stroke-linecap="round" stroke-linejoin="round"/>
<g opacity="0.3">
<path d="M44.4894 247.006V248.96H29.6224V246.241H36.0194V247.006H44.4894Z" stroke="black" stroke-miterlimit="10" stroke-linecap="round" stroke-linejoin="round"/>
<path d="M44.4894 248.96V257.392C44.4894 257.821 44.1414 258.169 43.7124 258.169H30.3994C29.9704 258.169 29.6224 257.821 29.6224 257.392V248.96H44.4894Z" stroke="black" stroke-miterlimit="10" stroke-linecap="round" stroke-linejoin="round"/>
<path d="M44.4894 264.101V266.055H29.6224V263.336H36.0194V264.101H44.4894Z" stroke="black" stroke-miterlimit="10" stroke-linecap="round" stroke-linejoin="round"/>
<path d="M44.4894 266.056V274.488C44.4894 274.917 44.1414 275.265 43.7124 275.265H30.3994C29.9704 275.265 29.6224 274.917 29.6224 274.488V266.056H44.4894Z" stroke="black" stroke-miterlimit="10" stroke-linecap="round" stroke-linejoin="round"/>
<path d="M66.5794 247.006V248.96H51.7124V246.241H58.1094V247.006H66.5794Z" stroke="black" stroke-miterlimit="10" stroke-linecap="round" stroke-linejoin="round"/>
<path d="M66.5794 248.96V257.392C66.5794 257.821 66.2314 258.169 65.8024 258.169H52.4894C52.0604 258.169 51.7124 257.821 51.7124 257.392V248.96H66.5794Z" stroke="black" stroke-miterlimit="10" stroke-linecap="round" stroke-linejoin="round"/>
<path d="M66.5794 264.101V266.055H51.7124V263.336H58.1094V264.101H66.5794Z" stroke="black" stroke-miterlimit="10" stroke-linecap="round" stroke-linejoin="round"/>
<path d="M66.5794 266.056V274.488C66.5794 274.917 66.2314 275.265 65.8024 275.265H52.4894C52.0604 275.265 51.7124 274.917 51.7124 274.488V266.056H66.5794Z" stroke="black" stroke-miterlimit="10" stroke-linecap="round" stroke-linejoin="round"/>
<path d="M89.3634 247.006V248.96H74.4964V246.241H80.8934V247.006H89.3634Z" stroke="black" stroke-miterlimit="10" stroke-linecap="round" stroke-linejoin="round"/>
<path d="M89.3634 248.96V257.392C89.3634 257.821 89.0154 258.169 88.5864 258.169H75.2734C74.8444 258.169 74.4964 257.821 74.4964 257.392V248.96H89.3634Z" stroke="black" stroke-miterlimit="10" stroke-linecap="round" stroke-linejoin="round"/>
<path d="M89.3634 264.101V266.055H74.4964V263.336H80.8934V264.101H89.3634Z" stroke="black" stroke-miterlimit="10" stroke-linecap="round" stroke-linejoin="round"/>
<path d="M89.3634 266.056V274.488C89.3634 274.917 89.0154 275.265 88.5864 275.265H75.2734C74.8444 275.265 74.4964 274.917 74.4964 274.488V266.056H89.3634Z" stroke="black" stroke-miterlimit="10" stroke-linecap="round" stroke-linejoin="round"/>
<path d="M112.148 247.006V248.96H97.2814V246.241H103.677V247.006H112.148Z" stroke="black" stroke-miterlimit="10" stroke-linecap="round" stroke-linejoin="round"/>
<path d="M112.148 248.96V257.392C112.148 257.821 111.8 258.169 111.371 258.169H98.0584C97.6294 258.169 97.2814 257.821 97.2814 257.392V248.96H112.148Z" stroke="black" stroke-miterlimit="10" stroke-linecap="round" stroke-linejoin="round"/>
<path d="M112.148 264.101V266.055H97.2814V263.336H103.677V264.101H112.148Z" stroke="black" stroke-miterlimit="10" stroke-linecap="round" stroke-linejoin="round"/>
<path d="M112.148 266.056V274.488C112.148 274.917 111.8 275.265 111.371 275.265H98.0584C97.6294 275.265 97.2814 274.917 97.2814 274.488V266.056H112.148Z" stroke="black" stroke-miterlimit="10" stroke-linecap="round" stroke-linejoin="round"/>
</g>
<g opacity="0.3">
<path d="M44.4894 283.591V285.545H29.6224V282.827H36.0194V283.591H44.4894Z" stroke="black" stroke-miterlimit="10" stroke-linecap="round" stroke-linejoin="round"/>
<path d="M44.4894 285.545V293.977C44.4894 294.406 44.1414 294.754 43.7124 294.754H30.3994C29.9704 294.754 29.6224 294.406 29.6224 293.977V285.545H44.4894Z" stroke="black" stroke-miterlimit="10" stroke-linecap="round" stroke-linejoin="round"/>
<path d="M44.4894 300.686V302.64H29.6224V299.921H36.0194V300.686H44.4894Z" stroke="black" stroke-miterlimit="10" stroke-linecap="round" stroke-linejoin="round"/>
<path d="M44.4894 302.64V311.072C44.4894 311.501 44.1414 311.849 43.7124 311.849H30.3994C29.9704 311.849 29.6224 311.501 29.6224 311.072V302.64H44.4894Z" stroke="black" stroke-miterlimit="10" stroke-linecap="round" stroke-linejoin="round"/>
<path d="M66.5794 283.591V285.545H51.7124V282.827H58.1094V283.591H66.5794Z" stroke="black" stroke-miterlimit="10" stroke-linecap="round" stroke-linejoin="round"/>
<path d="M66.5794 285.545V293.977C66.5794 294.406 66.2314 294.754 65.8024 294.754H52.4894C52.0604 294.754 51.7124 294.406 51.7124 293.977V285.545H66.5794Z" stroke="black" stroke-miterlimit="10" stroke-linecap="round" stroke-linejoin="round"/>
<path d="M66.5794 300.686V302.64H51.7124V299.921H58.1094V300.686H66.5794Z" stroke="black" stroke-miterlimit="10" stroke-linecap="round" stroke-linejoin="round"/>
<path d="M66.5794 302.64V311.072C66.5794 311.501 66.2314 311.849 65.8024 311.849H52.4894C52.0604 311.849 51.7124 311.501 51.7124 311.072V302.64H66.5794Z" stroke="black" stroke-miterlimit="10" stroke-linecap="round" stroke-linejoin="round"/>
<path d="M89.3634 283.591V285.545H74.4964V282.827H80.8934V283.591H89.3634Z" stroke="black" stroke-miterlimit="10" stroke-linecap="round" stroke-linejoin="round"/>
<path d="M89.3634 285.545V293.977C89.3634 294.406 89.0154 294.754 88.5864 294.754H75.2734C74.8444 294.754 74.4964 294.406 74.4964 293.977V285.545H89.3634Z" stroke="black" stroke-miterlimit="10" stroke-linecap="round" stroke-linejoin="round"/>
<path d="M89.3634 300.686V302.64H74.4964V299.921H80.8934V300.686H89.3634Z" stroke="black" stroke-miterlimit="10" stroke-linecap="round" stroke-linejoin="round"/>
<path d="M89.3634 302.64V311.072C89.3634 311.501 89.0154 311.849 88.5864 311.849H75.2734C74.8444 311.849 74.4964 311.501 74.4964 311.072V302.64H89.3634Z" stroke="black" stroke-miterlimit="10" stroke-linecap="round" stroke-linejoin="round"/>
<path d="M112.148 283.591V285.545H97.2814V282.827H103.677V283.591H112.148Z" stroke="black" stroke-miterlimit="10" stroke-linecap="round" stroke-linejoin="round"/>
<path d="M112.148 285.545V293.977C112.148 294.406 111.8 294.754 111.371 294.754H98.0584C97.6294 294.754 97.2814 294.406 97.2814 293.977V285.545H112.148Z" stroke="black" stroke-miterlimit="10" stroke-linecap="round" stroke-linejoin="round"/>
<path d="M112.148 300.686V302.64H97.2814V299.921H103.677V300.686H112.148Z" stroke="black" stroke-miterlimit="10" stroke-linecap="round" stroke-linejoin="round"/>
<path d="M112.148 302.64V311.072C112.148 311.501 111.8 311.849 111.371 311.849H98.0584C97.6294 311.849 97.2814 311.501 97.2814 311.072V302.64H112.148Z" stroke="black" stroke-miterlimit="10" stroke-linecap="round" stroke-linejoin="round"/>
</g>
<path opacity="0.3" d="M128.814 230.183H0.554382V329.293H128.814V230.183Z" stroke="black" stroke-miterlimit="10" stroke-linecap="round" stroke-linejoin="round"/>
<path opacity="0.3" d="M0.547363 238.654H128.15" stroke="black" stroke-miterlimit="10" stroke-linecap="round" stroke-linejoin="round"/>
<path opacity="0.3" d="M22.8564 239.1V328.332" stroke="black" stroke-miterlimit="10" stroke-linecap="round" stroke-linejoin="round"/>
<g opacity="0.3">
<path d="M253.938 17.8231V19.7771H239.07V17.0581H245.467V17.8231H253.938Z" stroke="black" stroke-miterlimit="10" stroke-linecap="round" stroke-linejoin="round"/>
<path d="M253.938 19.7773V28.2093C253.938 28.6383 253.59 28.9863 253.161 28.9863H239.848C239.419 28.9863 239.071 28.6383 239.071 28.2093V19.7773H253.938Z" stroke="black" stroke-miterlimit="10" stroke-linecap="round" stroke-linejoin="round"/>
<path d="M253.938 34.9183V36.8723H239.07V34.1533H245.467V34.9183H253.938Z" stroke="black" stroke-miterlimit="10" stroke-linecap="round" stroke-linejoin="round"/>
<path d="M253.938 36.8726V45.3046C253.938 45.7336 253.59 46.0816 253.161 46.0816H239.848C239.419 46.0816 239.071 45.7336 239.071 45.3046V36.8726H253.938Z" stroke="black" stroke-miterlimit="10" stroke-linecap="round" stroke-linejoin="round"/>
<path d="M276.027 17.8231V19.7771H261.16V17.0581H267.557V17.8231H276.027Z" stroke="black" stroke-miterlimit="10" stroke-linecap="round" stroke-linejoin="round"/>
<path d="M276.027 19.7773V28.2093C276.027 28.6383 275.679 28.9863 275.25 28.9863H261.937C261.508 28.9863 261.16 28.6383 261.16 28.2093V19.7773H276.027Z" stroke="black" stroke-miterlimit="10" stroke-linecap="round" stroke-linejoin="round"/>
<path d="M276.027 34.9183V36.8723H261.16V34.1533H267.557V34.9183H276.027Z" stroke="black" stroke-miterlimit="10" stroke-linecap="round" stroke-linejoin="round"/>
<path d="M276.027 36.8726V45.3046C276.027 45.7336 275.679 46.0816 275.25 46.0816H261.937C261.508 46.0816 261.16 45.7336 261.16 45.3046V36.8726H276.027Z" stroke="black" stroke-miterlimit="10" stroke-linecap="round" stroke-linejoin="round"/>
<path d="M298.812 17.8231V19.7771H283.945V17.0581H290.341V17.8231H298.812Z" stroke="black" stroke-miterlimit="10" stroke-linecap="round" stroke-linejoin="round"/>
<path d="M298.812 19.7773V28.2093C298.812 28.6383 298.464 28.9863 298.035 28.9863H284.722C284.293 28.9863 283.945 28.6383 283.945 28.2093V19.7773H298.812Z" stroke="black" stroke-miterlimit="10" stroke-linecap="round" stroke-linejoin="round"/>
<path d="M298.812 34.9183V36.8723H283.945V34.1533H290.341V34.9183H298.812Z" stroke="black" stroke-miterlimit="10" stroke-linecap="round" stroke-linejoin="round"/>
<path d="M298.812 36.8726V45.3046C298.812 45.7336 298.464 46.0816 298.035 46.0816H284.722C284.293 46.0816 283.945 45.7336 283.945 45.3046V36.8726H298.812Z" stroke="black" stroke-miterlimit="10" stroke-linecap="round" stroke-linejoin="round"/>
<path d="M321.596 17.8231V19.7771H306.729V17.0581H313.126V17.8231H321.596Z" stroke="black" stroke-miterlimit="10" stroke-linecap="round" stroke-linejoin="round"/>
<path d="M321.596 19.7773V28.2093C321.596 28.6383 321.248 28.9863 320.819 28.9863H307.506C307.077 28.9863 306.729 28.6383 306.729 28.2093V19.7773H321.596Z" stroke="black" stroke-miterlimit="10" stroke-linecap="round" stroke-linejoin="round"/>
<path d="M321.596 34.9183V36.8723H306.729V34.1533H313.126V34.9183H321.596Z" stroke="black" stroke-miterlimit="10" stroke-linecap="round" stroke-linejoin="round"/>
<path d="M321.596 36.8726V45.3046C321.596 45.7336 321.248 46.0816 320.819 46.0816H307.506C307.077 46.0816 306.729 45.7336 306.729 45.3046V36.8726H321.596Z" stroke="black" stroke-miterlimit="10" stroke-linecap="round" stroke-linejoin="round"/>
</g>
<g opacity="0.3">
<path d="M253.938 54.4081V56.3621H239.07V53.6431H245.467V54.4081H253.938Z" stroke="black" stroke-miterlimit="10" stroke-linecap="round" stroke-linejoin="round"/>
<path d="M253.938 56.3623V64.7943C253.938 65.2233 253.59 65.5713 253.161 65.5713H239.848C239.419 65.5713 239.071 65.2233 239.071 64.7943V56.3623H253.938Z" stroke="black" stroke-miterlimit="10" stroke-linecap="round" stroke-linejoin="round"/>
<path d="M253.938 71.5033V73.4573H239.07V70.7383H245.467V71.5033H253.938Z" stroke="black" stroke-miterlimit="10" stroke-linecap="round" stroke-linejoin="round"/>
<path d="M253.938 73.4575V81.8895C253.938 82.3185 253.59 82.6665 253.161 82.6665H239.848C239.419 82.6665 239.071 82.3185 239.071 81.8895V73.4575H253.938Z" stroke="black" stroke-miterlimit="10" stroke-linecap="round" stroke-linejoin="round"/>
<path d="M276.027 54.4081V56.3621H261.16V53.6431H267.557V54.4081H276.027Z" stroke="black" stroke-miterlimit="10" stroke-linecap="round" stroke-linejoin="round"/>
<path d="M276.027 56.3623V64.7943C276.027 65.2233 275.679 65.5713 275.25 65.5713H261.937C261.508 65.5713 261.16 65.2233 261.16 64.7943V56.3623H276.027Z" stroke="black" stroke-miterlimit="10" stroke-linecap="round" stroke-linejoin="round"/>
<path d="M276.027 71.5033V73.4573H261.16V70.7383H267.557V71.5033H276.027Z" stroke="black" stroke-miterlimit="10" stroke-linecap="round" stroke-linejoin="round"/>
<path d="M276.027 73.4575V81.8895C276.027 82.3185 275.679 82.6665 275.25 82.6665H261.937C261.508 82.6665 261.16 82.3185 261.16 81.8895V73.4575H276.027Z" stroke="black" stroke-miterlimit="10" stroke-linecap="round" stroke-linejoin="round"/>
<path d="M298.812 54.4081V56.3621H283.945V53.6431H290.341V54.4081H298.812Z" stroke="black" stroke-miterlimit="10" stroke-linecap="round" stroke-linejoin="round"/>
<path d="M298.812 56.3623V64.7943C298.812 65.2233 298.464 65.5713 298.035 65.5713H284.722C284.293 65.5713 283.945 65.2233 283.945 64.7943V56.3623H298.812Z" stroke="black" stroke-miterlimit="10" stroke-linecap="round" stroke-linejoin="round"/>
<path d="M298.812 71.5033V73.4573H283.945V70.7383H290.341V71.5033H298.812Z" stroke="black" stroke-miterlimit="10" stroke-linecap="round" stroke-linejoin="round"/>
<path d="M298.812 73.4575V81.8895C298.812 82.3185 298.464 82.6665 298.035 82.6665H284.722C284.293 82.6665 283.945 82.3185 283.945 81.8895V73.4575H298.812Z" stroke="black" stroke-miterlimit="10" stroke-linecap="round" stroke-linejoin="round"/>
<path d="M321.596 54.4081V56.3621H306.729V53.6431H313.126V54.4081H321.596Z" stroke="black" stroke-miterlimit="10" stroke-linecap="round" stroke-linejoin="round"/>
<path d="M321.596 56.3623V64.7943C321.596 65.2233 321.248 65.5713 320.819 65.5713H307.506C307.077 65.5713 306.729 65.2233 306.729 64.7943V56.3623H321.596Z" stroke="black" stroke-miterlimit="10" stroke-linecap="round" stroke-linejoin="round"/>
<path d="M321.596 71.5033V73.4573H306.729V70.7383H313.126V71.5033H321.596Z" stroke="black" stroke-miterlimit="10" stroke-linecap="round" stroke-linejoin="round"/>
<path d="M321.596 73.4575V81.8895C321.596 82.3185 321.248 82.6665 320.819 82.6665H307.506C307.077 82.6665 306.729 82.3185 306.729 81.8895V73.4575H321.596Z" stroke="black" stroke-miterlimit="10" stroke-linecap="round" stroke-linejoin="round"/>
</g>
<path opacity="0.3" d="M338.262 1H210.002V100.11H338.262V1Z" stroke="black" stroke-miterlimit="10" stroke-linecap="round" stroke-linejoin="round"/>
<path opacity="0.3" d="M209.996 9.47021H337.598" stroke="black" stroke-miterlimit="10" stroke-linecap="round" stroke-linejoin="round"/>
<path opacity="0.3" d="M232.304 9.91602V99.149" stroke="black" stroke-miterlimit="10" stroke-linecap="round" stroke-linejoin="round"/>
<path d="M281.808 170.661H408.961C419.548 170.661 428.13 179.243 428.13 189.83C428.13 200.417 419.548 208.999 408.961 208.999H388.851C378.888 208.999 370.758 216.975 370.569 226.937L369.91 282.181" stroke="#263238" stroke-width="6" stroke-miterlimit="10" stroke-linecap="round" stroke-linejoin="round"/>
<path d="M375.073 283.283V271.399H364.975V283.283L360.463 288.144V309.356H379.585V288.144L375.073 283.283Z" fill="#263238" stroke="#263238" stroke-miterlimit="10" stroke-linecap="round" stroke-linejoin="round"/>
<path d="M273.494 176.107H285.377V166.009H273.494L268.632 161.497H247.421V180.619H268.632L273.494 176.107Z" fill="#263238" stroke="#263238" stroke-miterlimit="10" stroke-linecap="round" stroke-linejoin="round"/>
<path d="M403.333 426H335.286C332.046 426 329.42 423.374 329.42 420.134V316.156C329.42 312.916 332.046 310.29 335.286 310.29H403.333C406.573 310.29 409.199 312.917 409.199 316.156V420.134C409.199 423.374 406.573 426 403.333 426Z" fill="#263238" stroke="#263238" stroke-miterlimit="10" stroke-linecap="round" stroke-linejoin="round"/>
<path d="M236.695 124.24H52.3484C46.4574 124.24 41.6814 129.016 41.6814 134.907V253.011C41.6814 259.454 46.9044 264.678 53.3484 264.678H129.906L130.121 262.6H157.816L158.031 264.678H235.695C242.138 264.678 247.362 259.455 247.362 253.011V134.907C247.361 129.015 242.586 124.24 236.695 124.24Z" fill="white" stroke="#263238" stroke-miterlimit="10" stroke-linecap="round" stroke-linejoin="round"/>
<path d="M172.712 255.714H115.224C113.629 255.714 112.336 254.421 112.336 252.826V217.753C112.336 216.158 113.629 214.864 115.224 214.864H172.712C174.307 214.864 175.6 216.157 175.6 217.753V252.826C175.601 254.421 174.308 255.714 172.712 255.714Z" fill="white" stroke="#263238" stroke-miterlimit="10" stroke-linecap="round" stroke-linejoin="round"/>
<path d="M119.329 138.062H107.75V145.668H119.329V138.062Z" fill="#263238"/>
<path d="M81.8204 184.977H71.0704V195.642H81.8204V184.977Z" fill="#263238"/>
<path d="M129.306 147.496H118.474V158.161H129.306V147.496Z" fill="#263238"/>
<path d="M105.921 138.062H94.3423V145.668H105.921V138.062Z" fill="#263238"/>
<path d="M141.967 147.496H131.135V158.161H141.967V147.496Z" fill="#263238"/>
<path d="M132.737 138.062H121.158V145.668H132.737V138.062Z" fill="#263238"/>
<path d="M75.3244 172.483H54.9514V183.148H75.3244V172.483Z" fill="#263238"/>
<path d="M103.985 147.496H93.1534V158.161H103.985V147.496Z" fill="#263238"/>
<path d="M69.2424 184.977H54.9514V195.642H69.2424V184.977Z" fill="#263238"/>
<path d="M146.144 138.062H134.565V145.668H146.144V138.062Z" fill="#263238"/>
<path d="M78.6643 147.496H67.8323V158.161H78.6643V147.496Z" fill="#263238"/>
<path d="M79.1063 138.062H67.5273V145.668H79.1063V138.062Z" fill="#263238"/>
<path d="M92.5144 138.062H80.9354V145.668H92.5144V138.062Z" fill="#263238"/>
<path d="M91.3244 147.496H80.4924V158.161H91.3244V147.496Z" fill="#263238"/>
<path d="M116.646 147.496H105.814V158.161H116.646V147.496Z" fill="#263238"/>
<path d="M199.775 138.062H188.196V145.668H199.775V138.062Z" fill="#263238"/>
<path d="M213.183 138.062H201.604V145.668H213.183V138.062Z" fill="#263238"/>
<path d="M205.27 147.496H194.438V158.161H205.27V147.496Z" fill="#263238"/>
<path d="M217.931 147.496H207.099V158.161H217.931V147.496Z" fill="#263238"/>
<path d="M237.961 184.977H222.012V195.642H237.961V184.977Z" fill="#263238"/>
<path d="M226.59 138.062H215.011V145.668H226.59V138.062Z" fill="#263238"/>
<path d="M66.0034 147.496H54.9514V158.161H66.0034V147.496Z" fill="#263238"/>
<path d="M159.552 138.062H147.973V145.668H159.552V138.062Z" fill="#263238"/>
<path d="M172.96 138.062H161.381V145.668H172.96V138.062Z" fill="#263238"/>
<path d="M167.288 147.496H156.456V158.161H167.288V147.496Z" fill="#263238"/>
<path d="M192.609 147.496H181.777V158.161H192.609V147.496Z" fill="#263238"/>
<path d="M154.628 147.496H143.796V158.161H154.628V147.496Z" fill="#263238"/>
<path d="M179.949 147.496H169.117V158.161H179.949V147.496Z" fill="#263238"/>
<path d="M186.367 138.062H174.788V145.668H186.367V138.062Z" fill="#263238"/>
<path d="M169.87 184.977H159.12V195.642H169.87V184.977Z" fill="#263238"/>
<path d="M226.266 172.483H215.516V183.148H226.266V172.483Z" fill="#263238"/>
<path d="M213.687 172.483H202.937V183.148H213.687V172.483Z" fill="#263238"/>
<path d="M220.184 184.977H209.434V195.642H220.184V184.977Z" fill="#263238"/>
<path d="M207.605 184.977H196.855V195.642H207.605V184.977Z" fill="#263238"/>
<path d="M182.448 184.977H171.698V195.642H182.448V184.977Z" fill="#263238"/>
<path d="M195.027 184.977H184.277V195.642H195.027V184.977Z" fill="#263238"/>
<path d="M201.109 172.483H190.359V183.148H201.109V172.483Z" fill="#263238"/>
<path d="M188.53 172.483H177.78V183.148H188.53V172.483Z" fill="#263238"/>
<path d="M237.962 138.062H228.419V145.668H237.962V138.062Z" fill="#263238"/>
<path d="M65.6994 138.062H54.9514V145.668H65.6994V138.062Z" fill="#263238"/>
<path d="M200.971 197.47H183.395V208.557H200.971V197.47Z" fill="#263238"/>
<path d="M84.2503 197.47H72.0823V208.557H84.2503V197.47Z" fill="#263238"/>
<path d="M98.6714 197.47H86.5034V208.557H98.6714V197.47Z" fill="#263238"/>
<path d="M181.142 197.47H100.924V208.557H181.142V197.47Z" fill="#263238"/>
<path d="M237.962 197.47H220.054V208.557H237.962V197.47Z" fill="#263238"/>
<path d="M217.801 197.47H203.225V208.557H217.801V197.47Z" fill="#263238"/>
<path d="M69.8284 197.47H54.9514V208.557H69.8284V197.47Z" fill="#263238"/>
<path d="M237.961 147.496H219.759V158.161H237.961V147.496Z" fill="#263238"/>
<path d="M237.961 172.483H228.094V183.148H237.961V172.483Z" fill="#263238"/>
<path d="M225.053 170.577H223.225V159.99H212.475V170.577H210.647V159.99H199.896V170.577H198.068V159.99H187.318V170.577H185.489V159.99H174.739V170.577H172.911V159.99H162.161V170.577H160.332V159.99H149.582V170.577H147.754V159.99H137.004V170.577H135.175V159.99H124.425V170.577H122.597V159.99H111.847V170.577H110.018V159.99H99.2684V170.577H97.4404V159.99H86.6904V170.577H84.8614V159.99H74.1114V170.577H72.2834V159.99H54.9514V170.655H237.962V159.99H225.053V170.577Z" fill="#263238"/>
<path d="M138.216 172.483H127.466V183.148H138.216V172.483Z" fill="#263238"/>
<path d="M175.952 172.483H165.202V183.148H175.952V172.483Z" fill="#263238"/>
<path d="M113.059 172.483H102.309V183.148H113.059V172.483Z" fill="#263238"/>
<path d="M119.556 184.977H108.806V195.642H119.556V184.977Z" fill="#263238"/>
<path d="M125.637 172.483H114.887V183.148H125.637V172.483Z" fill="#263238"/>
<path d="M100.481 172.483H89.7313V183.148H100.481V172.483Z" fill="#263238"/>
<path d="M94.3994 184.977H83.6494V195.642H94.3994V184.977Z" fill="#263238"/>
<path d="M106.977 184.977H96.2274V195.642H106.977V184.977Z" fill="#263238"/>
<path d="M150.795 172.483H140.045V183.148H150.795V172.483Z" fill="#263238"/>
<path d="M157.291 184.977H146.541V195.642H157.291V184.977Z" fill="#263238"/>
<path d="M163.373 172.483H152.623V183.148H163.373V172.483Z" fill="#263238"/>
<path d="M132.134 184.977H121.384V195.642H132.134V184.977Z" fill="#263238"/>
<path d="M144.713 184.977H133.963V195.642H144.713V184.977Z" fill="#263238"/>
<path d="M87.9023 172.483H77.1523V183.148H87.9023V172.483Z" fill="#263238"/>
<path d="M259.108 17.5H28.8294C23.9894 17.5 19.3734 19.772 20.6284 26.187L38.5594 116.258C39.4224 120.67 42.3374 123.737 45.6664 123.737H69.1664V129.661H219.876V123.737H242.271C245.6 123.737 248.514 120.67 249.378 116.258L267.163 26.517C268.418 20.102 263.948 17.5 259.108 17.5Z" fill="#263238" stroke="#263238" stroke-miterlimit="10" stroke-linecap="round" stroke-linejoin="round"/>
<path d="M233.065 116.15H54.8723L37.0533 28.124H250.884L233.065 116.15Z" fill="white" stroke="#263238" stroke-miterlimit="10" stroke-linecap="round" stroke-linejoin="round"/>
<path d="M204.905 111.003H80.7104L69.0684 35.2959H216.546L204.905 111.003Z" fill="white" stroke="#263238" stroke-miterlimit="10" stroke-linecap="round" stroke-linejoin="round"/>
<path d="M204.905 111.003H112.933L107.333 35.2959H216.546L204.905 111.003Z" fill="white" stroke="#263238" stroke-miterlimit="10" stroke-linecap="round" stroke-linejoin="round"/>
<path d="M79.1544 51.6089H101.382" stroke="#263238" stroke-miterlimit="10" stroke-linecap="round" stroke-linejoin="round"/>
<path d="M80.0483 58.1118H101.964" stroke="#263238" stroke-miterlimit="10" stroke-linecap="round" stroke-linejoin="round"/>
<path d="M80.9174 64.436H102.53" stroke="#263238" stroke-miterlimit="10" stroke-linecap="round" stroke-linejoin="round"/>
<path d="M81.7623 70.5869H103.08" stroke="#263238" stroke-miterlimit="10" stroke-linecap="round" stroke-linejoin="round"/>
<path d="M82.5853 76.5718H103.615" stroke="#263238" stroke-miterlimit="10" stroke-linecap="round" stroke-linejoin="round"/>
<path d="M88.1914 90.4282H104.854" stroke="#263238" stroke-miterlimit="10" stroke-linecap="round" stroke-linejoin="round"/>
<path d="M86.4994 90.4281C86.5794 91.0331 85.9074 91.5221 84.9994 91.5221C84.0904 91.5221 83.2854 91.0331 83.2004 90.4281C83.1154 89.8221 83.7864 89.3291 84.7004 89.3291C85.6144 89.3291 86.4184 89.8221 86.4994 90.4281Z" stroke="#263238" stroke-miterlimit="10" stroke-linecap="round" stroke-linejoin="round"/>
<path d="M88.7634 94.8701H105.251" stroke="#263238" stroke-miterlimit="10" stroke-linecap="round" stroke-linejoin="round"/>
<path d="M87.0883 94.8699C87.1673 95.4619 86.5013 95.9409 85.6023 95.9409C84.7033 95.9409 83.9073 95.4619 83.8233 94.8699C83.7403 94.2759 84.4053 93.7939 85.3093 93.7939C86.2133 93.7939 87.0103 94.2759 87.0883 94.8699Z" stroke="#263238" stroke-miterlimit="10" stroke-linecap="round" stroke-linejoin="round"/>
<path d="M89.3234 99.2202H105.64" stroke="#263238" stroke-miterlimit="10" stroke-linecap="round" stroke-linejoin="round"/>
<path d="M87.6654 99.22C87.7424 99.8 87.0834 100.269 86.1934 100.269C85.3034 100.269 84.5164 99.8 84.4344 99.22C84.3524 98.638 85.0114 98.166 85.9064 98.166C86.8004 98.165 87.5884 98.638 87.6654 99.22Z" stroke="#263238" stroke-miterlimit="10" stroke-linecap="round" stroke-linejoin="round"/>
<path d="M89.8713 103.48H106.021" stroke="#263238" stroke-miterlimit="10" stroke-linecap="round" stroke-linejoin="round"/>
<path d="M88.2314 103.48C88.3064 104.048 87.6534 104.507 86.7724 104.507C85.8914 104.507 85.1124 104.048 85.0334 103.48C84.9534 102.91 85.6064 102.447 86.4914 102.447C87.3764 102.448 88.1554 102.911 88.2314 103.48Z" stroke="#263238" stroke-miterlimit="10" stroke-linecap="round" stroke-linejoin="round"/>
<path d="M120.462 51.2219L120.411 50.1519H113.724L113.791 51.2219L114.252 58.5969L114.354 60.2269H131.83L131.612 51.2219H120.462Z" fill="white" stroke="#263238" stroke-miterlimit="10" stroke-linecap="round" stroke-linejoin="round"/>
<path d="M131.83 60.2269H114.354L113.901 52.9819H131.655L131.83 60.2269Z" fill="white" stroke="#263238" stroke-miterlimit="10" stroke-linecap="round" stroke-linejoin="round"/>
<path d="M145.011 51.2219L145.016 50.1519H138.329L138.34 51.2219L138.411 58.5969L138.426 60.2269H155.902L156.161 51.2219H145.011Z" fill="white" stroke="#263238" stroke-miterlimit="10" stroke-linecap="round" stroke-linejoin="round"/>
<path d="M155.902 60.2269H138.426L138.357 52.9819H156.111L155.902 60.2269Z" fill="white" stroke="#263238" stroke-miterlimit="10" stroke-linecap="round" stroke-linejoin="round"/>
<path d="M169.56 51.2219L169.622 50.1519H162.935L162.888 51.2219L162.569 58.5969L162.498 60.2269H179.974L180.71 51.2219H169.56Z" fill="white" stroke="#263238" stroke-miterlimit="10" stroke-linecap="round" stroke-linejoin="round"/>
<path d="M179.974 60.2269H162.498L162.812 52.9819H180.566L179.974 60.2269Z" fill="white" stroke="#263238" stroke-miterlimit="10" stroke-linecap="round" stroke-linejoin="round"/>
<path d="M194.109 51.2219L194.227 50.1519H187.54L187.437 51.2219L186.727 58.5969L186.57 60.2269H204.046L205.259 51.2219H194.109Z" fill="white" stroke="#263238" stroke-miterlimit="10" stroke-linecap="round" stroke-linejoin="round"/>
<path d="M204.046 60.2269H186.57L187.268 52.9819H205.022L204.046 60.2269Z" fill="white" stroke="#263238" stroke-miterlimit="10" stroke-linecap="round" stroke-linejoin="round"/>
<path d="M121.215 66.8491L121.167 65.8501H114.706L114.769 66.8491L115.2 73.7391L115.295 75.2631H132.193L131.99 66.8491H121.215Z" fill="white" stroke="#263238" stroke-miterlimit="10" stroke-linecap="round" stroke-linejoin="round"/>
<path d="M132.193 75.2632H115.295L114.872 68.4932H132.03L132.193 75.2632Z" fill="white" stroke="#263238" stroke-miterlimit="10" stroke-linecap="round" stroke-linejoin="round"/>
<path d="M144.937 66.8491L144.941 65.8501H138.481L138.49 66.8491L138.557 73.7391L138.571 75.2631H155.469L155.711 66.8491H144.937Z" fill="white" stroke="#263238" stroke-miterlimit="10" stroke-linecap="round" stroke-linejoin="round"/>
<path d="M155.469 75.2632H138.571L138.506 68.4932H155.664L155.469 75.2632Z" fill="white" stroke="#263238" stroke-miterlimit="10" stroke-linecap="round" stroke-linejoin="round"/>
<path d="M168.658 66.8491L168.716 65.8501H162.255L162.212 66.8491L161.913 73.7391L161.847 75.2631H178.745L179.433 66.8491H168.658Z" fill="white" stroke="#263238" stroke-miterlimit="10" stroke-linecap="round" stroke-linejoin="round"/>
<path d="M178.745 75.2632H161.847L162.14 68.4932H179.298L178.745 75.2632Z" fill="white" stroke="#263238" stroke-miterlimit="10" stroke-linecap="round" stroke-linejoin="round"/>
<path d="M192.379 66.8491L192.49 65.8501H186.029L185.933 66.8491L185.27 73.7391L185.123 75.2631H202.021L203.154 66.8491H192.379Z" fill="white" stroke="#263238" stroke-miterlimit="10" stroke-linecap="round" stroke-linejoin="round"/>
<path d="M202.021 75.2632H185.123L185.775 68.4932H202.932L202.021 75.2632Z" fill="white" stroke="#263238" stroke-miterlimit="10" stroke-linecap="round" stroke-linejoin="round"/>
<path d="M121.919 81.457L121.874 80.522H115.625L115.683 81.457L116.087 87.908L116.176 89.336H132.533L132.343 81.457H121.919Z" fill="white" stroke="#263238" stroke-miterlimit="10" stroke-linecap="round" stroke-linejoin="round"/>
<path d="M132.533 89.3361H116.176L115.779 82.9961H132.38L132.533 89.3361Z" fill="white" stroke="#263238" stroke-miterlimit="10" stroke-linecap="round" stroke-linejoin="round"/>
<path d="M144.867 81.457L144.872 80.522H138.622L138.631 81.457L138.693 87.908L138.707 89.336H155.063L155.29 81.457H144.867Z" fill="white" stroke="#263238" stroke-miterlimit="10" stroke-linecap="round" stroke-linejoin="round"/>
<path d="M155.063 89.3361H138.707L138.646 82.9961H155.246L155.063 89.3361Z" fill="white" stroke="#263238" stroke-miterlimit="10" stroke-linecap="round" stroke-linejoin="round"/>
<path d="M167.815 81.457L167.869 80.522H161.619L161.579 81.457L161.299 87.908L161.238 89.336H177.594L178.238 81.457H167.815Z" fill="white" stroke="#263238" stroke-miterlimit="10" stroke-linecap="round" stroke-linejoin="round"/>
<path d="M177.594 89.3361H161.238L161.512 82.9961H178.112L177.594 89.3361Z" fill="white" stroke="#263238" stroke-miterlimit="10" stroke-linecap="round" stroke-linejoin="round"/>
<path d="M190.763 81.457L190.867 80.522H184.617L184.527 81.457L183.906 87.908L183.768 89.336H200.125L201.186 81.457H190.763Z" fill="white" stroke="#263238" stroke-miterlimit="10" stroke-linecap="round" stroke-linejoin="round"/>
<path d="M200.125 89.3361H183.768L184.379 82.9961H200.979L200.125 89.3361Z" fill="white" stroke="#263238" stroke-miterlimit="10" stroke-linecap="round" stroke-linejoin="round"/>
<path d="M122.579 95.1421L122.537 94.2661H116.485L116.54 95.1421L116.918 101.195L117.002 102.536H132.852L132.673 95.1421H122.579Z" fill="white" stroke="#263238" stroke-miterlimit="10" stroke-linecap="round" stroke-linejoin="round"/>
<path d="M132.852 102.536H117.002L116.63 96.585H132.708L132.852 102.536Z" fill="white" stroke="#263238" stroke-miterlimit="10" stroke-linecap="round" stroke-linejoin="round"/>
<path d="M144.802 95.1421L144.806 94.2661H138.754L138.763 95.1421L138.821 101.195L138.834 102.536H154.683L154.896 95.1421H144.802Z" fill="white" stroke="#263238" stroke-miterlimit="10" stroke-linecap="round" stroke-linejoin="round"/>
<path d="M154.683 102.536H138.834L138.777 96.585H154.855L154.683 102.536Z" fill="white" stroke="#263238" stroke-miterlimit="10" stroke-linecap="round" stroke-linejoin="round"/>
<path d="M167.025 95.1421L167.076 94.2661H161.024L160.986 95.1421L160.724 101.195L160.666 102.536H176.515L177.119 95.1421H167.025Z" fill="white" stroke="#263238" stroke-miterlimit="10" stroke-linecap="round" stroke-linejoin="round"/>
<path d="M176.515 102.536H160.666L160.924 96.585H177.001L176.515 102.536Z" fill="white" stroke="#263238" stroke-miterlimit="10" stroke-linecap="round" stroke-linejoin="round"/>
<path d="M189.249 95.1421L189.346 94.2661H183.294L183.209 95.1421L182.627 101.195L182.498 102.536H198.347L199.343 95.1421H189.249Z" fill="white" stroke="#263238" stroke-miterlimit="10" stroke-linecap="round" stroke-linejoin="round"/>
<path d="M198.347 102.536H182.498L183.07 96.585H199.148L198.347 102.536Z" fill="white" stroke="#263238" stroke-miterlimit="10" stroke-linecap="round" stroke-linejoin="round"/>
<path d="M215.111 44.6299H70.5044L69.0684 35.2959H216.546L215.111 44.6299Z" fill="#263238" stroke="#263238" stroke-miterlimit="10" stroke-linecap="round" stroke-linejoin="round"/>
<path d="M194.803 39.8037C194.693 40.8097 193.509 41.6227 192.158 41.6227C190.807 41.6227 189.793 40.8097 189.893 39.8037C189.993 38.7927 191.178 37.9707 192.539 37.9707C193.9 37.9707 194.913 38.7937 194.803 39.8037Z" fill="white" stroke="#263238" stroke-miterlimit="10" stroke-linecap="round" stroke-linejoin="round"/>
<path d="M202.713 39.8037C202.586 40.8097 201.389 41.6227 200.038 41.6227C198.687 41.6227 197.686 40.8097 197.803 39.8037C197.92 38.7927 199.119 37.9707 200.48 37.9707C201.841 37.9707 202.841 38.7937 202.713 39.8037Z" fill="white" stroke="#263238" stroke-miterlimit="10" stroke-linecap="round" stroke-linejoin="round"/>
<path d="M210.624 39.8037C210.48 40.8097 209.269 41.6227 207.919 41.6227C206.568 41.6227 205.581 40.8097 205.714 39.8037C205.848 38.7927 207.06 37.9707 208.421 37.9707C209.782 37.9707 210.768 38.7937 210.624 39.8037Z" fill="white" stroke="#263238" stroke-miterlimit="10" stroke-linecap="round" stroke-linejoin="round"/>
</svg>
