<svg width="333" height="182" viewBox="0 0 333 182" fill="none" xmlns="http://www.w3.org/2000/svg">
<g clip-path="url(#clip0_69_63)">
<path d="M137.894 123.295V102.036V0H286.717L333 46.0005V123.295H208.438L178.686 151.177H137.894V123.295Z" fill="#E44A77"/>
<path d="M176.738 57.2418C175.385 57.2418 174.14 57.0752 173.004 56.7457C171.868 56.4166 170.922 55.9499 170.167 55.354L171.165 53.2202C171.959 53.7992 172.839 54.233 173.806 54.5203C174.774 54.808 175.758 54.954 176.769 54.954C177.949 54.954 178.842 54.7536 179.44 54.3497C180.043 53.9493 180.343 53.3953 180.343 52.6951C180.343 52.1576 180.156 51.7239 179.779 51.3947C179.402 51.0656 178.785 50.8153 177.927 50.6528L174.834 50.0653C173.459 49.7776 172.418 49.2819 171.711 48.5818C171.005 47.8813 170.649 46.9812 170.649 45.8892C170.649 44.9601 170.913 44.1349 171.438 43.4139C171.963 42.6928 172.713 42.1259 173.694 41.7135C174.67 41.3011 175.814 41.0967 177.124 41.0967C178.326 41.0967 179.445 41.2633 180.473 41.5928C181.505 41.9219 182.364 42.3971 183.049 43.018L182.017 45.0893C181.349 44.5517 180.599 44.1349 179.761 43.8348C178.924 43.5346 178.074 43.3845 177.215 43.3845C176.014 43.3845 175.121 43.6014 174.544 44.0347C173.962 44.4681 173.676 45.035 173.676 45.7351C173.676 46.2727 173.854 46.7104 174.206 47.052C174.561 47.394 175.125 47.6564 175.897 47.8399L178.989 48.4273C180.451 48.715 181.544 49.1902 182.273 49.8529C183.001 50.5111 183.37 51.3988 183.37 52.5157C183.37 53.487 183.092 54.3328 182.533 55.0538C181.974 55.7748 181.202 56.3208 180.212 56.6958C179.232 57.0543 178.07 57.2418 176.738 57.2418Z" fill="white"/>
<path d="M193.977 58.7095C192.085 58.7095 190.653 58.2248 189.684 57.2557C188.715 56.2862 188.23 54.828 188.23 52.8892V44.483H184.837V41.9321H188.23V37.5788L191.725 36.6934V41.9277H196.573V44.4786H191.725V52.5941C191.725 53.8146 191.954 54.6868 192.42 55.2111C192.881 55.7355 193.548 55.9956 194.429 55.9956C194.867 55.9956 195.254 55.9556 195.589 55.8808C195.925 55.8059 196.228 55.7135 196.507 55.6034V58.2864C196.163 58.4189 195.757 58.5201 195.296 58.5994C194.834 58.6699 194.391 58.7095 193.977 58.7095Z" fill="white"/>
<path d="M205.22 57.2418C203.774 57.2418 202.516 56.9211 201.436 56.2841C200.356 55.6468 199.525 54.7184 198.928 53.5024C198.336 52.2864 198.04 50.8414 198.04 49.1715C198.04 47.4806 198.336 46.0397 198.928 44.8405C199.52 43.6454 200.356 42.7207 201.436 42.0713C202.511 41.4214 203.774 41.0967 205.22 41.0967C206.643 41.0967 207.88 41.4383 208.938 42.1171C209.992 42.7956 210.693 43.7243 211.041 44.8989H210.684L211.006 41.3756H214.176C214.111 42.017 214.05 42.6499 213.998 43.2788C213.946 43.9078 213.915 44.5198 213.915 45.1194V56.963H210.649V53.498H211.006C210.662 54.6516 209.957 55.5635 208.89 56.2342C207.824 56.9046 206.596 57.2418 205.22 57.2418ZM206.025 54.7973C207.427 54.7973 208.551 54.3225 209.404 53.3732C210.258 52.4236 210.68 51.0245 210.68 49.1671C210.68 47.31 210.253 45.9149 209.404 44.9778C208.551 44.041 207.427 43.5702 206.025 43.5702C204.601 43.5702 203.465 44.041 202.616 44.9778C201.762 45.9149 201.34 47.314 201.34 49.1671C201.34 51.0245 201.762 52.4236 202.603 53.3732C203.439 54.3225 204.584 54.7973 206.025 54.7973Z" fill="white"/>
<path d="M218.885 66.0483L218.081 63.4141C219.133 63.1976 220.01 62.9426 220.714 62.6439C221.419 62.3456 222.005 61.9519 222.475 61.4719C222.945 60.9872 223.347 60.3729 223.681 59.6248L224.521 57.7303L224.453 59.045L217.11 42.5645H220.732L226.431 56.0559H225.528L231.227 42.5645H234.714L226.968 59.9102C226.476 60.9787 225.953 61.8785 225.393 62.6094C224.833 63.3363 224.227 63.9245 223.582 64.3788C222.931 64.8286 222.218 65.1831 221.437 65.4385C220.655 65.6935 219.802 65.8968 218.885 66.0483Z" fill="white"/>
<path d="M251.551 57.2418C249.912 57.2418 248.49 56.9171 247.288 56.2673C246.086 55.6174 245.154 54.6883 244.5 53.4848C243.847 52.2809 243.515 50.8396 243.515 49.1693C243.515 47.499 243.842 46.0617 244.5 44.8537C245.159 43.6458 246.086 42.7211 247.288 42.0713C248.49 41.4214 249.912 41.0967 251.551 41.0967C253.189 41.0967 254.616 41.4214 255.831 42.0713C257.046 42.7211 257.987 43.6502 258.654 44.8537C259.321 46.0617 259.652 47.499 259.652 49.1693C259.652 50.8396 259.321 52.2768 258.654 53.4848C257.987 54.6927 257.046 55.6174 255.831 56.2673C254.616 56.9171 253.189 57.2418 251.551 57.2418ZM251.551 54.7966C252.995 54.7966 254.144 54.3218 254.996 53.3721C255.849 52.4225 256.277 51.023 256.277 49.1652C256.277 47.3074 255.849 45.912 254.996 44.9748C254.144 44.0373 252.995 43.5669 251.551 43.5669C250.128 43.5669 248.993 44.0373 248.14 44.9748C247.288 45.912 246.859 47.3115 246.859 49.1652C246.859 51.023 247.279 52.4225 248.123 53.3721C248.962 54.3218 250.106 54.7966 251.551 54.7966Z" fill="white"/>
<path d="M264.312 57.2418V45.1902C264.312 44.584 264.286 43.9569 264.23 43.317C264.178 42.6774 264.118 42.0331 264.053 41.3807H267.199L267.489 44.7154H267.104C267.597 43.5419 268.358 42.6433 269.382 42.0247C270.411 41.406 271.595 41.0967 272.944 41.0967C274.85 41.0967 276.285 41.6093 277.261 42.6393C278.234 43.6689 278.722 45.2621 278.722 47.4234V57.2418H275.481V47.6142C275.481 46.2074 275.196 45.1942 274.629 44.5756C274.063 43.9569 273.203 43.6476 272.044 43.6476C270.674 43.6476 269.585 44.063 268.768 44.8893C267.956 45.7197 267.549 46.8344 267.549 48.2413V57.2418H264.312Z" fill="white"/>
<path d="M171.634 93.9356V71.9194H174.568V93.9356H171.634Z" fill="white"/>
<path d="M185.346 93.9356V74.6362H177.502V71.9194H196.573V74.6362H188.729V93.9356H185.346Z" fill="white"/>
<path d="M199.507 73.9064V70.4517H203.907V73.9064H199.507ZM199.805 93.9355V77.357H203.603V93.9355H199.805Z" fill="white"/>
<path d="M208.568 93.9357V81.8841C208.568 81.2738 208.542 80.6508 208.485 80.0109C208.434 79.3713 208.373 78.7269 208.308 78.0745H211.455L211.744 81.4092H211.36C211.853 80.2358 212.613 79.3372 213.638 78.7185C214.662 78.0999 215.851 77.7905 217.199 77.7905C219.105 77.7905 220.54 78.3031 221.517 79.3331C222.489 80.3627 222.978 81.956 222.978 84.1172V93.9357H219.736V84.308C219.736 82.9012 219.451 81.8881 218.885 81.2694C218.319 80.6508 217.459 80.3415 216.3 80.3415C214.93 80.3415 213.841 80.7568 213.024 81.5832C212.211 82.4135 211.805 83.5283 211.805 84.9351V93.9357H208.568Z" fill="white"/>
<path d="M234.288 93.9357C231.688 93.9357 229.644 93.2231 228.15 91.8023C226.656 90.3775 225.912 88.4107 225.912 85.8943C225.912 84.2651 226.235 82.8403 226.885 81.6235C227.535 80.4071 228.439 79.4612 229.601 78.7948C230.763 78.1237 232.11 77.7905 233.643 77.7905C235.154 77.7905 236.423 78.0988 237.448 78.7196C238.472 79.3364 239.247 80.2112 239.781 81.3362C240.315 82.4612 240.581 83.7863 240.581 85.3112V86.3027H228.434V84.5069H238.378L237.835 84.9069C237.835 83.361 237.478 82.1571 236.763 81.3028C236.049 80.4486 235.02 80.0197 233.677 80.0197C232.184 80.0197 231.034 80.5194 230.225 81.5197C229.416 82.5196 229.011 83.8985 229.011 85.6484V85.9567C229.011 87.7943 229.476 89.1732 230.402 90.1027C231.327 91.0318 232.644 91.4941 234.349 91.4941C235.287 91.4941 236.165 91.3649 236.987 91.1066C237.809 90.8483 238.589 90.4234 239.338 89.8234L240.392 91.9564C239.647 92.5982 238.739 93.0859 237.676 93.4275C236.609 93.7647 235.481 93.9357 234.288 93.9357Z" fill="white"/>
<path d="M245.181 93.9357V82.0081C245.181 81.3593 245.163 80.7025 245.131 80.0413C245.1 79.3801 245.045 78.7229 244.982 78.0745H248.264L248.634 82.1648H248.097C248.318 81.1773 248.701 80.3591 249.233 79.7107C249.77 79.0623 250.423 78.5791 251.189 78.2609C251.96 77.9472 252.767 77.7905 253.615 77.7905C253.971 77.7905 254.273 77.8074 254.516 77.8371C254.76 77.8668 255.008 77.9179 255.251 77.9769L255.22 80.8086C254.841 80.66 254.512 80.5712 254.232 80.5414C253.953 80.5117 253.615 80.4948 253.213 80.4948C252.231 80.4948 251.392 80.6981 250.703 81.1095C250.009 81.5204 249.486 82.0716 249.129 82.7625C248.773 83.4534 248.593 84.1994 248.593 84.9964V93.9357H245.181Z" fill="white"/>
<path d="M263.898 93.9357C262.452 93.9357 261.194 93.615 260.114 92.978C259.034 92.3366 258.203 91.4123 257.606 90.1963C257.014 88.9802 256.718 87.5352 256.718 85.8653C256.718 84.1745 257.014 82.7295 257.606 81.5344C258.199 80.3393 259.034 79.4146 260.114 78.7651C261.19 78.1153 262.452 77.7905 263.898 77.7905C265.322 77.7905 266.558 78.1321 267.616 78.8106C268.67 79.4894 269.371 80.4182 269.72 81.5927H269.363L269.685 78.0654H272.855C272.789 78.7068 272.728 79.3397 272.676 79.9683C272.624 80.5972 272.594 81.2096 272.594 81.8092V93.6524H269.328V90.1878H269.685C269.341 91.3415 268.635 92.2533 267.569 92.9237C266.502 93.6025 265.279 93.9357 263.898 93.9357ZM264.708 91.4956C266.11 91.4956 267.233 91.0208 268.087 90.0711C268.94 89.1219 269.363 87.7224 269.363 85.8653C269.363 84.0079 268.936 82.6128 268.087 81.676C267.233 80.7389 266.11 80.2684 264.708 80.2684C263.284 80.2684 262.148 80.7389 261.299 81.676C260.445 82.6128 260.023 84.0119 260.023 85.8653C260.023 87.7224 260.445 89.1219 261.285 90.0711C262.126 91.0208 263.263 91.4956 264.708 91.4956Z" fill="white"/>
<path d="M277.454 93.9357V82.0081C277.454 81.3593 277.436 80.7025 277.404 80.0413C277.373 79.3801 277.319 78.7229 277.256 78.0745H280.537L280.907 82.1648H280.37C280.591 81.1773 280.974 80.3591 281.506 79.7107C282.043 79.0623 282.696 78.5791 283.463 78.2609C284.233 77.9472 285.04 77.7905 285.888 77.7905C286.244 77.7905 286.546 77.8074 286.789 77.8371C287.033 77.8668 287.281 77.9179 287.524 77.9769L287.493 80.8086C287.114 80.66 286.785 80.5712 286.505 80.5414C286.226 80.5117 285.888 80.4948 285.487 80.4948C284.504 80.4948 283.665 80.6981 282.976 81.1095C282.282 81.5204 281.759 82.0716 281.403 82.7625C281.047 83.4534 280.866 84.1994 280.866 84.9964V93.9357H277.454Z" fill="white"/>
<path d="M289.299 101.274L288.495 98.6402C289.548 98.4281 290.424 98.1687 291.128 97.87C291.833 97.5716 292.419 97.1779 292.889 96.698C293.359 96.2177 293.761 95.599 294.095 94.8508L294.935 92.9563L294.867 94.2711L287.524 77.7905H291.146L296.845 91.282H295.942L301.642 77.7905H305.128L297.383 95.1363C296.89 96.2048 296.367 97.1045 295.807 97.8355C295.247 98.5624 294.642 99.1506 293.996 99.6004C293.345 100.05 292.632 100.405 291.851 100.66C291.065 100.92 290.216 101.127 289.299 101.274Z" fill="white"/>
<path d="M34.7663 85.1289L0 119.753V182H102.434L132.026 152.526V85.1289H34.7663Z" fill="#7F61DD"/>
<path d="M36.0748 135.032C34.882 135.032 33.7979 134.884 32.826 134.585C31.854 134.286 30.9807 133.842 30.2092 133.247L30.8651 131.183C31.4088 131.575 31.9424 131.885 32.4691 132.119C32.9959 132.353 33.5464 132.525 34.1275 132.635C34.7052 132.745 35.3033 132.804 35.9151 132.804C37.1757 132.804 38.1274 132.463 38.7696 131.785C39.4084 131.108 39.7315 130.127 39.7315 128.844V125.078H39.993C39.711 126.12 39.1367 126.942 38.2701 127.548C37.4035 128.153 36.3976 128.456 35.2592 128.456C34.0493 128.456 33.0027 128.174 32.1157 127.606C31.2287 127.039 30.5457 126.23 30.0631 125.181C29.5805 124.132 29.3392 122.89 29.3392 121.456C29.3392 120.025 29.5805 118.787 30.0631 117.745C30.5457 116.702 31.2287 115.898 32.1157 115.333C32.9993 114.766 34.0493 114.484 35.2592 114.484C36.418 114.484 37.4207 114.787 38.2701 115.392C39.1198 115.997 39.6872 116.819 39.9659 117.862L39.7279 117.638L39.9659 114.739H42.5419C42.4704 115.316 42.4194 115.887 42.3856 116.455C42.3515 117.022 42.331 117.576 42.331 118.113V128.518C42.331 130.636 41.8011 132.256 40.7408 133.371C39.6806 134.486 38.1241 135.032 36.0748 135.032ZM35.8879 126.247C37.0466 126.247 37.9712 125.828 38.6643 124.992C39.3575 124.156 39.7044 122.973 39.7044 121.449C39.7044 119.926 39.3575 118.752 38.6643 117.934C37.9712 117.115 37.0466 116.706 35.8879 116.706C34.695 116.706 33.7537 117.115 33.0604 117.934C32.3671 118.752 32.0205 119.926 32.0205 121.449C32.0205 122.973 32.3671 124.156 33.0604 124.992C33.7537 125.828 34.695 126.247 35.8879 126.247Z" fill="white"/>
<path d="M46.9427 111.636V108.613H49.8767V111.636H46.9427ZM47.1404 129.161V114.659H49.6728V129.161H47.1404Z" fill="white"/>
<path d="M53.0295 129.161V118.203C53.0295 117.649 53.0049 117.081 52.9624 116.502C52.9165 115.92 52.867 115.334 52.8105 114.741H55.4892L55.7364 117.776H55.4078C55.7896 116.728 56.3797 115.916 57.1711 115.345C57.9625 114.773 58.9168 114.488 60.0298 114.488C61.1605 114.488 62.0865 114.77 62.8071 115.331C63.5282 115.895 64.0229 116.756 64.2983 117.92H63.8601C64.2242 116.873 64.8462 116.036 65.7191 115.415C66.5952 114.794 67.6059 114.484 68.7542 114.484C70.2842 114.484 71.4329 114.953 72.1997 115.884C72.9662 116.819 73.348 118.27 73.348 120.235V129.161H70.5846V120.376C70.5846 119.116 70.3796 118.206 69.9699 117.645C69.5599 117.084 68.8991 116.802 67.9873 116.802C66.9308 116.802 66.0898 117.183 65.4715 117.945C64.8532 118.707 64.5422 119.737 64.5422 121.036V129.161H61.7788V120.376C61.7788 119.116 61.5738 118.206 61.1642 117.645C60.7541 117.084 60.0933 116.802 59.1816 116.802C58.125 116.802 57.2947 117.183 56.694 117.945C56.0932 118.707 55.7929 119.737 55.7929 121.036V129.161H53.0295Z" fill="white"/>
<path d="M77.9678 129.161V118.203C77.9678 117.649 77.9433 117.081 77.9007 116.502C77.8549 115.92 77.8054 115.334 77.7489 114.741H80.4276L80.6748 117.776H80.3462C80.7276 116.728 81.318 115.916 82.1094 115.345C82.9009 114.773 83.8551 114.488 84.9682 114.488C86.0988 114.488 87.0245 114.77 87.7455 115.331C88.4665 115.895 88.9612 116.756 89.2367 117.92H88.7984C89.1626 116.873 89.7846 116.036 90.6571 115.415C91.5336 114.794 92.5443 114.484 93.6926 114.484C95.2226 114.484 96.3712 114.953 97.1381 115.884C97.9046 116.819 98.2863 118.27 98.2863 120.235V129.161H95.523V120.376C95.523 119.116 95.318 118.206 94.9083 117.645C94.4983 117.084 93.8374 116.802 92.9257 116.802C91.8691 116.802 91.0282 117.183 90.4099 117.945C89.7915 118.707 89.4805 119.737 89.4805 121.036V129.161H86.7172V120.376C86.7172 119.116 86.5122 118.206 86.1025 117.645C85.6925 117.084 85.0316 116.802 84.1199 116.802C83.0633 116.802 82.233 117.183 81.6323 117.945C81.0316 118.707 80.7312 119.737 80.7312 121.036V129.161H77.9678Z" fill="white"/>
<path d="M107.921 129.161C105.839 129.161 104.204 128.513 103.011 127.223C101.818 125.93 101.22 124.141 101.22 121.852C101.22 120.371 101.481 119.078 102 117.972C102.519 116.866 103.246 116.01 104.174 115.399C105.103 114.789 106.183 114.484 107.409 114.484C108.618 114.484 109.632 114.765 110.451 115.326C111.271 115.888 111.892 116.682 112.318 117.702C112.744 118.725 112.956 119.928 112.956 121.315V122.213H103.239V120.583H111.192L110.756 120.947C110.756 119.543 110.468 118.45 109.9 117.67C109.328 116.894 108.506 116.502 107.432 116.502C106.239 116.502 105.317 116.956 104.669 117.864C104.022 118.773 103.698 120.025 103.698 121.616V121.897C103.698 123.565 104.068 124.82 104.812 125.666C105.552 126.509 106.606 126.932 107.97 126.932C108.72 126.932 109.424 126.814 110.078 126.582C110.736 126.349 111.36 125.961 111.958 125.413L112.801 127.355C112.203 127.937 111.479 128.381 110.627 128.69C109.781 129.009 108.876 129.161 107.921 129.161Z" fill="white"/>
<path d="M36.3057 159.984C34.8937 159.984 33.6618 159.689 32.6136 159.1C31.5617 158.51 30.7549 157.657 30.1893 156.54C29.6202 155.427 29.3392 154.098 29.3392 152.562C29.3392 151.043 29.6274 149.743 30.2037 148.653C30.7801 147.568 31.5869 146.735 32.6279 146.163C33.669 145.591 34.8937 145.307 36.3093 145.307C37.2205 145.307 38.1032 145.463 38.957 145.772C39.8104 146.08 40.5167 146.517 41.0749 147.079L40.1562 149.077C39.6377 148.57 39.0505 148.192 38.3984 147.935C37.7464 147.682 37.1163 147.557 36.5038 147.557C35.1674 147.557 34.1156 147.987 33.352 148.851C32.5883 149.715 32.2101 150.96 32.2101 152.593C32.2101 154.244 32.5919 155.51 33.352 156.391C34.1156 157.272 35.1638 157.712 36.5038 157.712C37.0984 157.712 37.7214 157.595 38.3735 157.362C39.0252 157.13 39.6197 156.748 40.1562 156.224L41.0749 158.222C40.4984 158.784 39.7781 159.221 38.9137 159.53C38.0493 159.828 37.1809 159.984 36.3057 159.984Z" fill="white"/>
<path d="M49.1153 159.984C47.7738 159.984 46.6123 159.689 45.6276 159.1C44.6429 158.51 43.8838 157.664 43.3461 156.568C42.8089 155.472 42.5419 154.164 42.5419 152.645C42.5419 151.126 42.8089 149.819 43.3461 148.723C43.8838 147.627 44.6429 146.781 45.6276 146.191C46.6123 145.601 47.7738 145.307 49.1153 145.307C50.4572 145.307 51.6257 145.601 52.6173 146.191C53.6086 146.781 54.3784 147.627 54.9263 148.723C55.4706 149.819 55.7445 151.126 55.7445 152.645C55.7445 154.164 55.4706 155.472 54.9263 156.568C54.3784 157.664 53.6123 158.51 52.6173 159.1C51.6257 159.689 50.4572 159.984 49.1153 159.984ZM49.1153 157.761C50.2977 157.761 51.234 157.331 51.9341 156.467C52.6313 155.604 52.9811 154.331 52.9811 152.642C52.9811 150.953 52.6313 149.683 51.9341 148.83C51.2373 147.977 50.2977 147.55 49.1153 147.55C47.9539 147.55 47.0212 147.977 46.3244 148.83C45.6276 149.683 45.2774 150.953 45.2774 152.642C45.2774 154.331 45.6207 155.604 46.3105 156.467C47.0007 157.331 47.9366 157.761 49.1153 157.761Z" fill="white"/>
<path d="M64.6493 159.984C63.4647 159.984 62.4228 159.698 61.5162 159.13C60.6097 158.562 59.9114 157.731 59.4181 156.646C58.9249 155.561 58.6784 154.274 58.6784 152.784C58.6784 151.277 58.9249 149.987 59.4181 148.922C59.9114 147.857 60.6097 147.034 61.5162 146.452C62.4192 145.873 63.4647 145.584 64.6493 145.584C65.813 145.584 66.8409 145.883 67.7266 146.483C68.6127 147.081 69.1994 147.895 69.4877 148.926H69.165V139.436H71.8811V159.742H69.1925V156.598H69.5156C69.2101 157.646 68.6196 158.473 67.7406 159.082C66.8618 159.681 65.8339 159.984 64.6493 159.984ZM65.3197 157.803C66.4834 157.803 67.4244 157.381 68.1436 156.534C68.8591 155.686 69.2203 154.438 69.2203 152.781C69.2203 151.124 68.8628 149.878 68.1436 149.041C67.4281 148.204 66.4867 147.786 65.3197 147.786C64.1351 147.786 63.1904 148.204 62.4819 149.041C61.7733 149.878 61.4191 151.124 61.4191 152.781C61.4191 154.438 61.7733 155.686 62.4819 156.534C63.1941 157.381 64.1388 157.803 65.3197 157.803Z" fill="white"/>
<path d="M81.5153 159.984C79.4341 159.984 77.7984 159.336 76.6058 158.046C75.4132 156.752 74.815 154.963 74.815 152.675C74.815 151.194 75.0761 149.901 75.5947 148.795C76.1136 147.689 76.8405 146.832 77.7687 146.222C78.6973 145.612 79.7777 145.307 81.0034 145.307C82.2125 145.307 83.2269 145.587 84.0462 146.149C84.8655 146.711 85.4868 147.505 85.9129 148.524C86.3391 149.547 86.5507 150.75 86.5507 152.138V153.035H76.8339V151.406H84.7863L84.3502 151.77C84.3502 150.366 84.0627 149.273 83.4946 148.493C82.9229 147.716 82.1003 147.325 81.0265 147.325C79.8338 147.325 78.9119 147.779 78.2642 148.687C77.6169 149.596 77.2931 150.847 77.2931 152.439V152.72C77.2931 154.388 77.6631 155.643 78.4065 156.489C79.1466 157.331 80.2006 157.755 81.5649 157.755C82.3148 157.755 83.0186 157.637 83.6729 157.405C84.3304 157.172 84.955 156.784 85.5528 156.236L86.3956 158.178C85.7974 158.76 85.0738 159.204 84.2215 159.513C83.3722 159.828 82.4703 159.984 81.5153 159.984Z" fill="white"/>
<path d="M90.2371 153.24L89.4846 139.436H92.4185L91.6901 153.24H90.2371ZM89.5542 158.516V155.296H92.3488V158.516H89.5542Z" fill="white"/>
</g>
<defs>
<clipPath id="clip0_69_63">
<rect width="333" height="182" fill="white"/>
</clipPath>
</defs>
</svg>
