<svg xmlns="http://www.w3.org/2000/svg" width="134" height="35" viewBox="0 0 864 252" fill="none"> <path d="M737.731 0H126.269L0 125.992L126.269 252H737.731L864 125.992L737.731 0Z" fill="#92DA63"/> <path d="M217.788 152C214.212 152 210.855 151.544 207.718 150.616C204.58 149.688 202.008 148.354 200 146.612L202.51 140.882C204.518 142.51 206.808 143.731 209.412 144.545C212.016 145.358 214.792 145.765 217.773 145.765C221.506 145.765 224.235 145.196 225.929 144.04C227.639 142.884 228.486 141.24 228.486 139.108C228.486 137.024 227.78 135.461 226.369 134.387C224.957 133.313 222.902 132.792 220.188 132.792H210.118V126.72H219.373C221.804 126.72 223.702 126.183 225.051 125.125C226.4 124.05 227.075 122.569 227.075 120.664C227.075 118.646 226.29 117.067 224.722 115.944C223.153 114.821 220.722 114.251 217.412 114.251C214.604 114.251 212.016 114.609 209.694 115.341C207.373 116.074 205.145 117.165 203.027 118.63L200.596 113.144C202.808 111.402 205.443 110.116 208.471 109.27C211.498 108.423 214.776 108 218.306 108C223.608 108 227.639 109.026 230.4 111.077C233.161 113.128 234.541 116.058 234.541 119.883C234.541 122.52 233.694 124.767 231.984 126.622C230.275 128.478 227.984 129.601 225.114 129.992V128.901C228.424 129.064 231.059 130.09 233.035 131.978C235.012 133.866 236 136.34 236 139.433C236 143.259 234.447 146.303 231.325 148.582C228.267 150.861 223.733 152 217.788 152Z" fill="white"/> <path d="M240 160V142.941H244.331C246.034 140.201 247.274 137.002 248.035 133.343C248.812 129.684 249.2 125.249 249.2 120.054V108H277.742V142.941H284V160H277.279V149.34H246.736V160H240ZM251.53 143.02H270.394V114.399H255.936V121.701C255.936 125.692 255.563 129.589 254.816 133.39C254.069 137.192 252.964 140.391 251.53 143.02Z" fill="white"/> <path d="M312.545 152C306.167 152 301.136 150.062 297.485 146.187C293.833 142.311 292 136.937 292 130.081C292 125.636 292.803 121.76 294.394 118.454C295.985 115.149 298.212 112.56 301.061 110.736C303.909 108.912 307.212 108 310.985 108C314.697 108 317.803 108.847 320.318 110.524C322.833 112.218 324.742 114.579 326.045 117.657C327.348 120.718 328 124.333 328 128.486V131.189H298.182V126.303H322.576L321.242 127.395C321.242 123.177 320.364 119.904 318.621 117.575C316.864 115.246 314.348 114.074 311.045 114.074C307.379 114.074 304.561 115.442 302.576 118.161C300.591 120.881 299.591 124.642 299.591 129.414V130.261C299.591 135.26 300.727 139.021 303 141.562C305.273 144.086 308.5 145.356 312.682 145.356C314.985 145.356 317.136 144.998 319.152 144.298C321.167 143.597 323.091 142.425 324.924 140.796L327.515 146.61C325.682 148.352 323.455 149.688 320.848 150.616C318.242 151.544 315.47 152 312.545 152Z" fill="white"/> <path d="M358.986 152C355.142 152 351.782 151.121 348.921 149.347C346.06 147.572 343.859 145.017 342.318 141.68C340.778 138.343 340 134.354 340 129.748C340 125.19 340.792 121.299 342.362 118.027C343.932 114.755 346.133 112.281 348.965 110.572C351.796 108.863 355.142 108 359 108C361.48 108 363.886 108.472 366.219 109.384C368.552 110.295 370.474 111.614 372 113.307L369.491 119.297C368.068 117.783 366.483 116.644 364.708 115.879C362.933 115.114 361.216 114.739 359.543 114.739C355.905 114.739 353.029 116.025 350.96 118.613C348.877 121.202 347.85 124.929 347.85 129.829C347.85 134.778 348.891 138.57 350.96 141.208C353.029 143.845 355.905 145.163 359.543 145.163C361.172 145.163 362.859 144.805 364.635 144.105C366.41 143.405 368.024 142.266 369.491 140.687L372 146.677C370.43 148.37 368.464 149.672 366.116 150.6C363.74 151.544 361.363 152 358.986 152Z" fill="white"/> <path d="M380 148V108H388.15V121.962H399.794C405.175 121.962 409.219 123.065 411.925 125.257C414.631 127.448 416 130.636 416 134.82C416 137.517 415.371 139.862 414.128 141.839C412.885 143.816 411.044 145.349 408.636 146.406C406.213 147.464 403.271 148 399.794 148H380ZM388.15 142.529H398.897C401.934 142.529 404.278 141.9 405.899 140.659C407.535 139.418 408.337 137.502 408.337 134.912C408.337 132.322 407.535 130.421 405.93 129.241C404.325 128.061 401.981 127.448 398.881 127.448H388.135V142.529H388.15Z" fill="white"/> <path d="M448 148V108H456.365V124.352H463.648L476.777 108H485.981L470.269 127.678L468.186 125.134C469.801 125.287 471.205 125.671 472.368 126.284C473.531 126.897 474.677 127.785 475.792 128.935C476.906 130.1 478.052 131.632 479.215 133.533L488 147.969H478.973L471.448 135.755C470.608 134.375 469.801 133.303 469.025 132.536C468.25 131.77 467.346 131.234 466.345 130.943C465.344 130.651 464.116 130.513 462.663 130.513H456.397V147.969H448V148Z" fill="white"/> <path d="M507.914 152C503.846 152 500.328 151.121 497.344 149.346C494.36 147.571 492.052 145.047 490.434 141.757C488.801 138.468 488 134.543 488 130C488 125.457 488.817 121.532 490.434 118.243C492.052 114.953 494.36 112.429 497.344 110.654C500.328 108.879 503.846 108 507.914 108C511.981 108 515.515 108.879 518.53 110.654C521.545 112.429 523.87 114.953 525.519 118.243C527.168 121.532 528 125.457 528 130C528 134.543 527.168 138.468 525.519 141.757C523.87 145.047 521.53 147.571 518.53 149.346C515.53 151.121 511.981 152 507.914 152ZM507.914 145.34C511.494 145.34 514.337 144.053 516.457 141.464C518.577 138.875 519.629 135.048 519.629 130C519.629 124.952 518.577 121.141 516.457 118.568C514.337 116.012 511.494 114.725 507.914 114.725C504.396 114.725 501.569 116.012 499.464 118.568C497.344 121.125 496.292 124.936 496.292 130C496.292 135.064 497.329 138.875 499.417 141.464C501.506 144.053 504.333 145.34 507.914 145.34Z" fill="white"/> <path d="M536 160V142.941H540.331C542.034 140.201 543.274 137.002 544.035 133.343C544.812 129.684 545.2 125.249 545.2 120.054V108H573.742V142.941H580V160H573.279V149.34H542.736V160H536ZM547.53 143.02H566.394V114.399H551.936V121.701C551.936 125.692 551.563 129.589 550.816 133.39C550.069 137.192 548.964 140.391 547.53 143.02Z" fill="white"/> <path d="M584 147.985L590.349 137.195C591.374 135.448 592.662 134.038 594.246 132.95C595.829 131.862 597.444 131.326 599.105 131.326H600.549L600.471 132.123C595.86 132.123 592.274 131.096 589.697 129.027C587.12 126.958 585.847 124 585.847 120.138C585.847 116.276 587.136 113.287 589.697 111.172C592.274 109.057 596.047 108 601.03 108H620V148H612.533V133.165H607.146C605.113 133.165 603.374 133.671 601.961 134.667C600.533 135.678 599.369 136.996 598.468 138.636L593.004 148H584V147.985ZM602.489 127.739H612.533V113.379H602.489C599.493 113.379 597.257 114.008 595.783 115.28C594.308 116.552 593.578 118.299 593.578 120.521C593.578 122.851 594.308 124.628 595.783 125.885C597.242 127.126 599.477 127.739 602.489 127.739Z" fill="white"/> <path d="M642.014 148V114.424H628V108H664V114.424H649.895V148H642.014Z" fill="white"/> </svg>
