<svg width="554" height="475" viewBox="0 0 554 475" fill="none" xmlns="http://www.w3.org/2000/svg">
<mask id="path-1-inside-1_2018_2" fill="white">
<path d="M550.219 229.205C550.356 240.561 549.253 251.885 546.691 262.908C545.849 266.534 544.829 270.151 543.654 273.711C543.312 274.732 542.97 275.752 542.604 276.761C542.307 277.592 541.998 278.423 541.688 279.243C541.597 279.468 541.517 279.694 541.425 279.919C541.092 280.774 540.76 281.629 540.404 282.473C540.346 282.603 540.289 282.746 540.232 282.889C539.887 283.72 539.531 284.552 539.174 285.371C539.013 285.74 538.852 286.096 538.691 286.453C538.369 287.189 538.035 287.914 537.689 288.64C537.332 289.412 536.963 290.173 536.594 290.934C536.456 291.207 536.329 291.481 536.19 291.742C535.867 292.396 535.532 293.05 535.209 293.704C534.944 294.216 534.678 294.715 534.412 295.215C533.188 297.546 531.904 299.843 530.56 302.116C530.016 303.045 529.46 303.973 528.892 304.89C528.765 305.116 528.625 305.343 528.486 305.569C527.837 306.617 527.176 307.665 526.503 308.713C525.958 309.559 525.413 310.404 524.844 311.25C524.357 311.989 523.869 312.716 523.37 313.455C523.265 313.61 523.161 313.765 523.044 313.92C522.534 314.682 521.999 315.445 521.477 316.208C520.826 317.149 520.163 318.067 519.501 318.997C519.362 319.188 519.234 319.379 519.094 319.558C518.339 320.619 517.56 321.668 516.792 322.706C516.327 323.326 515.862 323.958 515.385 324.566C514.547 325.699 513.686 326.821 512.814 327.942C511.987 329.016 511.149 330.078 510.299 331.14C510.206 331.259 510.113 331.367 510.02 331.486C509.182 332.548 508.344 333.598 507.482 334.649C507.237 334.971 506.969 335.293 506.713 335.604C505.933 336.57 505.141 337.537 504.349 338.492C502.066 341.262 499.759 344.008 497.44 346.731C492.721 352.295 487.895 357.826 482.974 363.322C478.88 367.862 474.727 372.38 470.491 376.816C450.161 398.206 428.113 418.198 404.067 434.207C401.077 436.194 398.063 438.133 395.012 439.978C393.898 440.653 392.783 441.329 391.669 441.992C391.481 442.101 391.281 442.222 391.093 442.33C389.943 443.006 388.793 443.67 387.631 444.322C386.446 444.998 385.26 445.663 384.062 446.304C383.522 446.594 382.982 446.884 382.442 447.174C380.105 448.432 377.744 449.642 375.359 450.805C374.078 451.435 372.797 452.042 371.505 452.637C370.318 453.195 369.119 453.741 367.92 454.276C367.426 454.494 366.944 454.713 366.45 454.92C365.357 455.406 364.251 455.868 363.146 456.331C361.018 457.219 358.865 458.073 356.7 458.879C355.877 459.196 355.041 459.502 354.206 459.807C353.735 459.978 353.264 460.138 352.794 460.309C352.017 460.578 351.24 460.848 350.463 461.105C349.792 461.338 349.11 461.559 348.439 461.78C348.415 461.792 348.392 461.792 348.368 461.804C347.038 462.234 345.707 462.652 344.377 463.058C342.269 463.698 340.16 464.291 338.04 464.86C336.638 465.232 335.236 465.58 333.822 465.916C332.49 466.239 331.158 466.539 329.814 466.839C329.708 466.864 329.602 466.889 329.496 466.902C328.105 467.202 326.702 467.491 325.299 467.756C324.58 467.895 323.872 468.022 323.153 468.149C322.433 468.275 321.714 468.402 320.983 468.518C320.334 468.632 319.673 468.734 319.024 468.825C318.234 468.953 317.432 469.069 316.641 469.185C308.253 470.362 299.832 470.913 291.406 470.92C290.898 470.926 290.401 470.92 289.893 470.915C282.258 470.865 274.617 470.367 267.006 469.478C266.45 469.413 265.894 469.349 265.338 469.273C264.379 469.155 263.42 469.036 262.461 468.906C261.715 468.797 260.969 468.688 260.223 468.579C257.062 468.121 253.924 467.591 250.785 466.991C250.086 466.869 249.399 466.736 248.712 466.591C246.603 466.179 244.482 465.732 242.384 465.261C240.974 464.947 239.576 464.621 238.177 464.283C237.478 464.115 236.778 463.946 236.079 463.765C235.379 463.596 234.68 463.416 233.98 463.235C231.194 462.524 228.419 461.754 225.656 460.948C222.442 460.018 219.251 459.028 216.071 457.98C214.92 457.603 213.757 457.216 212.606 456.828C209.033 455.606 205.46 454.314 201.934 452.974C201.305 452.733 200.663 452.481 199.998 452.217C199.488 452.011 198.977 451.792 198.442 451.562C198.098 451.413 197.753 451.264 197.397 451.102C195.091 450.09 192.583 448.903 189.884 447.565C189.432 447.334 188.969 447.103 188.505 446.872C186.852 446.03 185.128 445.141 183.355 444.193C179.632 442.205 175.646 440.008 171.457 437.612C123.841 410.367 50.8303 359.035 33.5981 339.447C32.7233 338.453 31.872 337.447 31.0205 336.429C30.3609 335.633 29.7011 334.826 29.0648 334.006C28.4767 333.268 27.9005 332.531 27.3358 331.769C26.8315 331.114 26.3389 330.446 25.8579 329.766C25.4013 329.145 24.9445 328.513 24.4996 327.88C24.4754 327.833 24.4393 327.786 24.4033 327.739C23.862 326.954 23.3206 326.169 22.791 325.371C22.2854 324.609 21.7798 323.847 21.2977 323.073C21.0569 322.71 20.8278 322.334 20.5987 321.959C20.0564 321.091 19.5258 320.223 19.0071 319.354C19.007 319.342 19.007 319.342 18.995 319.331C18.4397 318.368 17.8844 317.406 17.3408 316.431C16.3983 314.729 15.4912 313.015 14.6429 311.276C14.4247 310.829 14.2065 310.371 13.9883 309.924C12.2669 306.352 10.7454 302.707 9.43599 299C8.9594 297.706 8.52994 296.399 8.1123 295.092C7.58373 293.408 7.10229 291.712 6.6563 290.016C6.56943 289.674 6.48271 289.344 6.40766 289.002C6.18424 288.119 5.97249 287.223 5.78437 286.327C5.49743 285.078 5.25776 283.828 5.02976 282.566C4.97877 282.259 4.91597 281.953 4.87681 281.646C4.76259 280.998 4.6602 280.349 4.56947 279.688C4.45369 278.909 4.34958 278.119 4.25742 277.34C4.21869 277.068 4.19191 276.809 4.16513 276.549C4.08608 275.876 4.03066 275.203 3.96357 274.542C3.96286 274.483 3.96215 274.424 3.94976 274.377C3.88095 273.574 3.82411 272.783 3.7909 271.992C3.77808 271.909 3.77722 271.838 3.77637 271.767C3.73077 270.929 3.69699 270.09 3.67502 269.251C3.66533 268.938 3.671 268.626 3.66605 268.314C3.65774 267.822 3.65063 267.332 3.65177 266.84C3.65339 265.606 3.67394 264.373 3.73113 263.141C3.76868 262.337 3.81804 261.533 3.87937 260.74C4.00202 259.155 4.17194 257.569 4.38927 255.995C4.49772 255.19 4.61799 254.385 4.76203 253.591C5.02634 251.992 5.34974 250.393 5.73222 248.793C6.74501 244.585 8.05508 240.527 9.66257 236.631C10.879 233.626 12.2623 230.738 13.8 227.906C13.9153 227.668 14.0541 227.419 14.193 227.18C20.4267 215.889 28.9682 205.834 38.6175 196.499C39.6454 195.494 40.6854 194.512 41.7492 193.542C42.8594 192.5 43.9816 191.482 45.1156 190.452C45.1858 190.392 45.2558 190.32 45.326 190.26C47.1382 188.631 48.9743 187.025 50.8342 185.431C53.7001 182.973 56.6138 180.563 59.5512 178.163C59.6448 178.079 59.7503 178.007 59.8438 177.923C62.3602 175.884 64.9003 173.856 67.4287 171.84C71.4089 168.683 75.4011 165.538 79.3106 162.406C80.3525 161.578 81.3825 160.75 82.4007 159.923C83.5361 159.011 84.6479 158.099 85.7596 157.187C96.245 148.575 105.258 139.436 113.631 130.093C115.252 128.277 116.861 126.449 118.458 124.609C119.215 123.726 119.973 122.854 120.719 121.97C131.359 109.55 141.241 96.9972 152.266 85.1279C154.891 82.2951 157.576 79.5089 160.344 76.769C162.68 74.4833 165.052 72.2327 167.519 70.0282C170.337 67.4886 173.238 65.007 176.281 62.6065C180.437 59.2943 184.819 56.1093 189.509 53.0624C190.658 52.304 191.796 51.5693 192.945 50.8462C309.887 -23.8087 396.901 -0.95191 455.353 47.6724C459.758 51.3183 464.012 55.1316 468.09 59.077C470.576 61.4225 472.981 63.8517 475.316 66.3054C475.579 66.5622 475.818 66.8311 476.07 67.1117C477.71 68.8174 479.302 70.5355 480.86 72.2658C481.327 72.7802 481.782 73.2947 482.238 73.8092C482.921 74.581 483.604 75.3528 484.275 76.1365C485.102 77.0838 485.917 78.0431 486.732 79.0024C487.248 79.6107 487.752 80.2192 488.255 80.8277C491.53 84.7592 494.651 88.7516 497.63 92.7694C498.231 93.5658 498.82 94.3741 499.409 95.1825C503.519 100.806 507.346 106.492 510.901 112.145C511.407 112.955 511.913 113.764 512.407 114.562C512.913 115.371 513.408 116.18 513.89 116.99C514.373 117.788 514.855 118.598 515.326 119.396C515.808 120.205 516.279 121.003 516.738 121.801C517.196 122.599 517.655 123.409 518.114 124.208C518.585 125.006 519.032 125.804 519.455 126.591C519.902 127.389 520.337 128.187 520.772 128.974C521.207 129.76 521.63 130.559 522.053 131.346C522.465 132.133 522.888 132.919 523.299 133.694C523.71 134.481 524.11 135.268 524.509 136.043C526.095 139.144 527.598 142.211 529.029 145.231C529.733 146.759 530.437 148.275 531.105 149.768C534.129 156.492 536.724 162.925 538.853 168.915C538.865 168.939 538.877 168.974 538.878 168.997C539.086 169.574 539.282 170.139 539.477 170.704C539.686 171.292 539.882 171.869 540.078 172.446C540.225 172.893 540.384 173.329 540.519 173.776C540.74 174.435 540.961 175.094 541.17 175.765C541.403 176.484 541.624 177.202 541.834 177.92C542.24 179.239 542.634 180.558 543.005 181.889C543.326 183.008 543.635 184.127 543.932 185.258C543.994 185.47 544.055 185.67 544.105 185.882C544.154 186.059 544.192 186.236 544.241 186.412C544.415 187.072 544.588 187.732 544.75 188.404C545.197 190.159 545.608 191.927 545.996 193.695C546.208 194.662 546.421 195.616 546.61 196.583C546.647 196.76 546.685 196.937 546.723 197.126C546.911 198.033 547.087 198.941 547.252 199.849C547.48 201.064 547.695 202.29 547.887 203.505C548.052 204.425 548.193 205.357 548.335 206.289C548.348 206.419 548.373 206.561 548.399 206.702C548.489 207.316 548.579 207.941 548.658 208.566C548.735 209.085 548.8 209.605 548.865 210.112C549.101 211.988 549.313 213.853 549.489 215.73C549.529 216.155 549.57 216.58 549.611 217.005C549.666 217.714 549.722 218.434 549.778 219.142C549.835 219.934 549.892 220.725 549.937 221.528C549.98 222.142 550.011 222.744 550.042 223.358C550.088 224.256 550.123 225.166 550.146 226.064C550.182 227.102 550.206 228.154 550.219 229.205Z"/>
</mask>
<path d="M550.219 229.205C550.356 240.561 549.253 251.885 546.691 262.908C545.849 266.534 544.829 270.151 543.654 273.711C543.312 274.732 542.97 275.752 542.604 276.761C542.307 277.592 541.998 278.423 541.688 279.243C541.597 279.468 541.517 279.694 541.425 279.919C541.092 280.774 540.76 281.629 540.404 282.473C540.346 282.603 540.289 282.746 540.232 282.889C539.887 283.72 539.531 284.552 539.174 285.371C539.013 285.74 538.852 286.096 538.691 286.453C538.369 287.189 538.035 287.914 537.689 288.64C537.332 289.412 536.963 290.173 536.594 290.934C536.456 291.207 536.329 291.481 536.19 291.742C535.867 292.396 535.532 293.05 535.209 293.704C534.944 294.216 534.678 294.715 534.412 295.215C533.188 297.546 531.904 299.843 530.56 302.116C530.016 303.045 529.46 303.973 528.892 304.89C528.765 305.116 528.625 305.343 528.486 305.569C527.837 306.617 527.176 307.665 526.503 308.713C525.958 309.559 525.413 310.404 524.844 311.25C524.357 311.989 523.869 312.716 523.37 313.455C523.265 313.61 523.161 313.765 523.044 313.92C522.534 314.682 521.999 315.445 521.477 316.208C520.826 317.149 520.163 318.067 519.501 318.997C519.362 319.188 519.234 319.379 519.094 319.558C518.339 320.619 517.56 321.668 516.792 322.706C516.327 323.326 515.862 323.958 515.385 324.566C514.547 325.699 513.686 326.821 512.814 327.942C511.987 329.016 511.149 330.078 510.299 331.14C510.206 331.259 510.113 331.367 510.02 331.486C509.182 332.548 508.344 333.598 507.482 334.649C507.237 334.971 506.969 335.293 506.713 335.604C505.933 336.57 505.141 337.537 504.349 338.492C502.066 341.262 499.759 344.008 497.44 346.731C492.721 352.295 487.895 357.826 482.974 363.322C478.88 367.862 474.727 372.38 470.491 376.816C450.161 398.206 428.113 418.198 404.067 434.207C401.077 436.194 398.063 438.133 395.012 439.978C393.898 440.653 392.783 441.329 391.669 441.992C391.481 442.101 391.281 442.222 391.093 442.33C389.943 443.006 388.793 443.67 387.631 444.322C386.446 444.998 385.26 445.663 384.062 446.304C383.522 446.594 382.982 446.884 382.442 447.174C380.105 448.432 377.744 449.642 375.359 450.805C374.078 451.435 372.797 452.042 371.505 452.637C370.318 453.195 369.119 453.741 367.92 454.276C367.426 454.494 366.944 454.713 366.45 454.92C365.357 455.406 364.251 455.868 363.146 456.331C361.018 457.219 358.865 458.073 356.7 458.879C355.877 459.196 355.041 459.502 354.206 459.807C353.735 459.978 353.264 460.138 352.794 460.309C352.017 460.578 351.24 460.848 350.463 461.105C349.792 461.338 349.11 461.559 348.439 461.78C348.415 461.792 348.392 461.792 348.368 461.804C347.038 462.234 345.707 462.652 344.377 463.058C342.269 463.698 340.16 464.291 338.04 464.86C336.638 465.232 335.236 465.58 333.822 465.916C332.49 466.239 331.158 466.539 329.814 466.839C329.708 466.864 329.602 466.889 329.496 466.902C328.105 467.202 326.702 467.491 325.299 467.756C324.58 467.895 323.872 468.022 323.153 468.149C322.433 468.275 321.714 468.402 320.983 468.518C320.334 468.632 319.673 468.734 319.024 468.825C318.234 468.953 317.432 469.069 316.641 469.185C308.253 470.362 299.832 470.913 291.406 470.92C290.898 470.926 290.401 470.92 289.893 470.915C282.258 470.865 274.617 470.367 267.006 469.478C266.45 469.413 265.894 469.349 265.338 469.273C264.379 469.155 263.42 469.036 262.461 468.906C261.715 468.797 260.969 468.688 260.223 468.579C257.062 468.121 253.924 467.591 250.785 466.991C250.086 466.869 249.399 466.736 248.712 466.591C246.603 466.179 244.482 465.732 242.384 465.261C240.974 464.947 239.576 464.621 238.177 464.283C237.478 464.115 236.778 463.946 236.079 463.765C235.379 463.596 234.68 463.416 233.98 463.235C231.194 462.524 228.419 461.754 225.656 460.948C222.442 460.018 219.251 459.028 216.071 457.98C214.92 457.603 213.757 457.216 212.606 456.828C209.033 455.606 205.46 454.314 201.934 452.974C201.305 452.733 200.663 452.481 199.998 452.217C199.488 452.011 198.977 451.792 198.442 451.562C198.098 451.413 197.753 451.264 197.397 451.102C195.091 450.09 192.583 448.903 189.884 447.565C189.432 447.334 188.969 447.103 188.505 446.872C186.852 446.03 185.128 445.141 183.355 444.193C179.632 442.205 175.646 440.008 171.457 437.612C123.841 410.367 50.8303 359.035 33.5981 339.447C32.7233 338.453 31.872 337.447 31.0205 336.429C30.3609 335.633 29.7011 334.826 29.0648 334.006C28.4767 333.268 27.9005 332.531 27.3358 331.769C26.8315 331.114 26.3389 330.446 25.8579 329.766C25.4013 329.145 24.9445 328.513 24.4996 327.88C24.4754 327.833 24.4393 327.786 24.4033 327.739C23.862 326.954 23.3206 326.169 22.791 325.371C22.2854 324.609 21.7798 323.847 21.2977 323.073C21.0569 322.71 20.8278 322.334 20.5987 321.959C20.0564 321.091 19.5258 320.223 19.0071 319.354C19.007 319.342 19.007 319.342 18.995 319.331C18.4397 318.368 17.8844 317.406 17.3408 316.431C16.3983 314.729 15.4912 313.015 14.6429 311.276C14.4247 310.829 14.2065 310.371 13.9883 309.924C12.2669 306.352 10.7454 302.707 9.43599 299C8.9594 297.706 8.52994 296.399 8.1123 295.092C7.58373 293.408 7.10229 291.712 6.6563 290.016C6.56943 289.674 6.48271 289.344 6.40766 289.002C6.18424 288.119 5.97249 287.223 5.78437 286.327C5.49743 285.078 5.25776 283.828 5.02976 282.566C4.97877 282.259 4.91597 281.953 4.87681 281.646C4.76259 280.998 4.6602 280.349 4.56947 279.688C4.45369 278.909 4.34958 278.119 4.25742 277.34C4.21869 277.068 4.19191 276.809 4.16513 276.549C4.08608 275.876 4.03066 275.203 3.96357 274.542C3.96286 274.483 3.96215 274.424 3.94976 274.377C3.88095 273.574 3.82411 272.783 3.7909 271.992C3.77808 271.909 3.77722 271.838 3.77637 271.767C3.73077 270.929 3.69699 270.09 3.67502 269.251C3.66533 268.938 3.671 268.626 3.66605 268.314C3.65774 267.822 3.65063 267.332 3.65177 266.84C3.65339 265.606 3.67394 264.373 3.73113 263.141C3.76868 262.337 3.81804 261.533 3.87937 260.74C4.00202 259.155 4.17194 257.569 4.38927 255.995C4.49772 255.19 4.61799 254.385 4.76203 253.591C5.02634 251.992 5.34974 250.393 5.73222 248.793C6.74501 244.585 8.05508 240.527 9.66257 236.631C10.879 233.626 12.2623 230.738 13.8 227.906C13.9153 227.668 14.0541 227.419 14.193 227.18C20.4267 215.889 28.9682 205.834 38.6175 196.499C39.6454 195.494 40.6854 194.512 41.7492 193.542C42.8594 192.5 43.9816 191.482 45.1156 190.452C45.1858 190.392 45.2558 190.32 45.326 190.26C47.1382 188.631 48.9743 187.025 50.8342 185.431C53.7001 182.973 56.6138 180.563 59.5512 178.163C59.6448 178.079 59.7503 178.007 59.8438 177.923C62.3602 175.884 64.9003 173.856 67.4287 171.84C71.4089 168.683 75.4011 165.538 79.3106 162.406C80.3525 161.578 81.3825 160.75 82.4007 159.923C83.5361 159.011 84.6479 158.099 85.7596 157.187C96.245 148.575 105.258 139.436 113.631 130.093C115.252 128.277 116.861 126.449 118.458 124.609C119.215 123.726 119.973 122.854 120.719 121.97C131.359 109.55 141.241 96.9972 152.266 85.1279C154.891 82.2951 157.576 79.5089 160.344 76.769C162.68 74.4833 165.052 72.2327 167.519 70.0282C170.337 67.4886 173.238 65.007 176.281 62.6065C180.437 59.2943 184.819 56.1093 189.509 53.0624C190.658 52.304 191.796 51.5693 192.945 50.8462C309.887 -23.8087 396.901 -0.95191 455.353 47.6724C459.758 51.3183 464.012 55.1316 468.09 59.077C470.576 61.4225 472.981 63.8517 475.316 66.3054C475.579 66.5622 475.818 66.8311 476.07 67.1117C477.71 68.8174 479.302 70.5355 480.86 72.2658C481.327 72.7802 481.782 73.2947 482.238 73.8092C482.921 74.581 483.604 75.3528 484.275 76.1365C485.102 77.0838 485.917 78.0431 486.732 79.0024C487.248 79.6107 487.752 80.2192 488.255 80.8277C491.53 84.7592 494.651 88.7516 497.63 92.7694C498.231 93.5658 498.82 94.3741 499.409 95.1825C503.519 100.806 507.346 106.492 510.901 112.145C511.407 112.955 511.913 113.764 512.407 114.562C512.913 115.371 513.408 116.18 513.89 116.99C514.373 117.788 514.855 118.598 515.326 119.396C515.808 120.205 516.279 121.003 516.738 121.801C517.196 122.599 517.655 123.409 518.114 124.208C518.585 125.006 519.032 125.804 519.455 126.591C519.902 127.389 520.337 128.187 520.772 128.974C521.207 129.76 521.63 130.559 522.053 131.346C522.465 132.133 522.888 132.919 523.299 133.694C523.71 134.481 524.11 135.268 524.509 136.043C526.095 139.144 527.598 142.211 529.029 145.231C529.733 146.759 530.437 148.275 531.105 149.768C534.129 156.492 536.724 162.925 538.853 168.915C538.865 168.939 538.877 168.974 538.878 168.997C539.086 169.574 539.282 170.139 539.477 170.704C539.686 171.292 539.882 171.869 540.078 172.446C540.225 172.893 540.384 173.329 540.519 173.776C540.74 174.435 540.961 175.094 541.17 175.765C541.403 176.484 541.624 177.202 541.834 177.92C542.24 179.239 542.634 180.558 543.005 181.889C543.326 183.008 543.635 184.127 543.932 185.258C543.994 185.47 544.055 185.67 544.105 185.882C544.154 186.059 544.192 186.236 544.241 186.412C544.415 187.072 544.588 187.732 544.75 188.404C545.197 190.159 545.608 191.927 545.996 193.695C546.208 194.662 546.421 195.616 546.61 196.583C546.647 196.76 546.685 196.937 546.723 197.126C546.911 198.033 547.087 198.941 547.252 199.849C547.48 201.064 547.695 202.29 547.887 203.505C548.052 204.425 548.193 205.357 548.335 206.289C548.348 206.419 548.373 206.561 548.399 206.702C548.489 207.316 548.579 207.941 548.658 208.566C548.735 209.085 548.8 209.605 548.865 210.112C549.101 211.988 549.313 213.853 549.489 215.73C549.529 216.155 549.57 216.58 549.611 217.005C549.666 217.714 549.722 218.434 549.778 219.142C549.835 219.934 549.892 220.725 549.937 221.528C549.98 222.142 550.011 222.744 550.042 223.358C550.088 224.256 550.123 225.166 550.146 226.064C550.182 227.102 550.206 228.154 550.219 229.205Z" stroke="black" stroke-width="2" mask="url(#path-1-inside-1_2018_2)"/>
<path d="M425.727 268.38H153.127V383.186H425.727V268.38Z" fill="#7F61DD" stroke="#263238" stroke-miterlimit="10" stroke-linecap="round" stroke-linejoin="round"/>
<path d="M184.471 275.326H158.822V289.524H184.471V275.326Z" fill="white" stroke="#263238" stroke-miterlimit="10"/>
<path d="M419.421 344.536H379.023V358.734H419.421V344.536Z" fill="white" stroke="#263238" stroke-miterlimit="10"/>
<path d="M419.421 293.058H394.485V307.256H419.421V293.058Z" fill="white" stroke="#263238" stroke-miterlimit="10"/>
<path d="M184.47 327.03H158.822V341.228H184.47V327.03Z" fill="white" stroke="#263238" stroke-miterlimit="10"/>
<path d="M179.585 309.932H158.822V324.13H179.585V309.932Z" fill="white" stroke="#263238" stroke-miterlimit="10"/>
<path d="M173.02 292.629H158.822V306.827H173.02V292.629Z" fill="white" stroke="#263238" stroke-miterlimit="10"/>
<path d="M191.141 292.629H176.944V306.827H191.141V292.629Z" fill="white" stroke="#263238" stroke-miterlimit="10"/>
<path d="M209.262 292.629H195.064V306.827H209.262V292.629Z" fill="white" stroke="#263238" stroke-miterlimit="10"/>
<path d="M227.383 292.629H213.185V306.827H227.383V292.629Z" fill="white" stroke="#263238" stroke-miterlimit="10"/>
<path d="M245.505 292.629H231.307V306.827H245.505V292.629Z" fill="white" stroke="#263238" stroke-miterlimit="10"/>
<path d="M263.625 292.629H249.427V306.827H263.625V292.629Z" fill="white" stroke="#263238" stroke-miterlimit="10"/>
<path d="M281.746 292.629H267.548V306.827H281.746V292.629Z" fill="white" stroke="#263238" stroke-miterlimit="10"/>
<path d="M299.868 292.629H285.67V306.827H299.868V292.629Z" fill="white" stroke="#263238" stroke-miterlimit="10"/>
<path d="M317.988 292.629H303.79V306.827H317.988V292.629Z" fill="white" stroke="#263238" stroke-miterlimit="10"/>
<path d="M336.11 292.629H321.912V306.827H336.11V292.629Z" fill="white" stroke="#263238" stroke-miterlimit="10"/>
<path d="M354.231 292.629H340.033V306.827H354.231V292.629Z" fill="white" stroke="#263238" stroke-miterlimit="10"/>
<path d="M372.351 292.629H358.153V306.827H372.351V292.629Z" fill="white" stroke="#263238" stroke-miterlimit="10"/>
<path d="M390.473 292.629H376.275V306.827H390.473V292.629Z" fill="white" stroke="#263238" stroke-miterlimit="10"/>
<path d="M173.02 362.043H158.822V376.241H173.02V362.043Z" fill="white" stroke="#263238" stroke-miterlimit="10"/>
<path d="M191.141 362.043H176.944V376.241H191.141V362.043Z" fill="white" stroke="#263238" stroke-miterlimit="10"/>
<path d="M209.262 362.043H195.064V376.241H209.262V362.043Z" fill="white" stroke="#263238" stroke-miterlimit="10"/>
<path d="M230.508 362.043H213.185V376.241H230.508V362.043Z" fill="white" stroke="#263238" stroke-miterlimit="10"/>
<path d="M321.113 362.043H234.431V376.241H321.113V362.043Z" fill="white" stroke="#263238" stroke-miterlimit="10"/>
<path d="M364.455 362.043H350.257V376.241H364.455V362.043Z" fill="white" stroke="#263238" stroke-miterlimit="10"/>
<path d="M382.576 362.043H368.378V376.241H382.576V362.043Z" fill="white" stroke="#263238" stroke-miterlimit="10"/>
<path d="M400.727 362.043H386.529V376.241H400.727V362.043Z" fill="white" stroke="#263238" stroke-miterlimit="10"/>
<path d="M346.703 362.043H324.659V376.241H346.703V362.043Z" fill="white" stroke="#263238" stroke-miterlimit="10"/>
<path d="M419.421 362.043H405.223V376.241H419.421V362.043Z" fill="white" stroke="#263238" stroke-miterlimit="10"/>
<path d="M197.813 309.932H183.615V324.13H197.813V309.932Z" fill="white" stroke="#263238" stroke-miterlimit="10"/>
<path d="M215.933 309.932H201.735V324.13H215.933V309.932Z" fill="white" stroke="#263238" stroke-miterlimit="10"/>
<path d="M234.055 309.932H219.857V324.13H234.055V309.932Z" fill="white" stroke="#263238" stroke-miterlimit="10"/>
<path d="M252.175 309.932H237.977V324.13H252.175V309.932Z" fill="white" stroke="#263238" stroke-miterlimit="10"/>
<path d="M270.296 309.932H256.098V324.13H270.296V309.932Z" fill="white" stroke="#263238" stroke-miterlimit="10"/>
<path d="M288.418 309.932H274.22V324.13H288.418V309.932Z" fill="white" stroke="#263238" stroke-miterlimit="10"/>
<path d="M306.538 309.932H292.34V324.13H306.538V309.932Z" fill="white" stroke="#263238" stroke-miterlimit="10"/>
<path d="M324.66 309.932H310.462V324.13H324.66V309.932Z" fill="white" stroke="#263238" stroke-miterlimit="10"/>
<path d="M342.781 309.932H328.583V324.13H342.781V309.932Z" fill="white" stroke="#263238" stroke-miterlimit="10"/>
<path d="M360.901 309.932H346.703V324.13H360.901V309.932Z" fill="white" stroke="#263238" stroke-miterlimit="10"/>
<path d="M379.023 309.932H364.825V324.13H379.023V309.932Z" fill="white" stroke="#263238" stroke-miterlimit="10"/>
<path d="M397.143 309.932H382.945V324.13H397.143V309.932Z" fill="white" stroke="#263238" stroke-miterlimit="10"/>
<path d="M419.421 309.935V341.434H405.227V324.129H401.063V309.935H419.421Z" fill="white" stroke="#263238" stroke-miterlimit="10"/>
<path d="M201.968 327.235H187.77V341.433H201.968V327.235Z" fill="white" stroke="#263238" stroke-miterlimit="10"/>
<path d="M220.089 327.235H205.891V341.433H220.089V327.235Z" fill="white" stroke="#263238" stroke-miterlimit="10"/>
<path d="M238.21 327.235H224.012V341.433H238.21V327.235Z" fill="white" stroke="#263238" stroke-miterlimit="10"/>
<path d="M256.331 327.235H242.133V341.433H256.331V327.235Z" fill="white" stroke="#263238" stroke-miterlimit="10"/>
<path d="M274.452 327.235H260.255V341.433H274.452V327.235Z" fill="white" stroke="#263238" stroke-miterlimit="10"/>
<path d="M292.573 327.235H278.375V341.433H292.573V327.235Z" fill="white" stroke="#263238" stroke-miterlimit="10"/>
<path d="M310.694 327.235H296.496V341.433H310.694V327.235Z" fill="white" stroke="#263238" stroke-miterlimit="10"/>
<path d="M328.816 327.235H314.618V341.433H328.816V327.235Z" fill="white" stroke="#263238" stroke-miterlimit="10"/>
<path d="M346.936 327.235H332.738V341.433H346.936V327.235Z" fill="white" stroke="#263238" stroke-miterlimit="10"/>
<path d="M365.057 327.235H350.859V341.433H365.057V327.235Z" fill="white" stroke="#263238" stroke-miterlimit="10"/>
<path d="M383.178 327.235H368.98V341.433H383.178V327.235Z" fill="white" stroke="#263238" stroke-miterlimit="10"/>
<path d="M401.299 327.235H387.101V341.433H401.299V327.235Z" fill="white" stroke="#263238" stroke-miterlimit="10"/>
<path d="M194.266 344.536H180.068V358.734H194.266V344.536Z" fill="white" stroke="#263238" stroke-miterlimit="10"/>
<path d="M212.388 344.536H198.19V358.734H212.388V344.536Z" fill="white" stroke="#263238" stroke-miterlimit="10"/>
<path d="M230.509 344.536H216.311V358.734H230.509V344.536Z" fill="white" stroke="#263238" stroke-miterlimit="10"/>
<path d="M248.629 344.536H234.432V358.734H248.629V344.536Z" fill="white" stroke="#263238" stroke-miterlimit="10"/>
<path d="M266.751 344.536H252.553V358.734H266.751V344.536Z" fill="white" stroke="#263238" stroke-miterlimit="10"/>
<path d="M284.872 344.536H270.674V358.734H284.872V344.536Z" fill="white" stroke="#263238" stroke-miterlimit="10"/>
<path d="M302.993 344.536H288.795V358.734H302.993V344.536Z" fill="white" stroke="#263238" stroke-miterlimit="10"/>
<path d="M321.114 344.536H306.916V358.734H321.114V344.536Z" fill="white" stroke="#263238" stroke-miterlimit="10"/>
<path d="M339.236 344.536H325.038V358.734H339.236V344.536Z" fill="white" stroke="#263238" stroke-miterlimit="10"/>
<path d="M357.356 344.536H343.158V358.734H357.356V344.536Z" fill="white" stroke="#263238" stroke-miterlimit="10"/>
<path d="M375.477 344.536H361.279V358.734H375.477V344.536Z" fill="white" stroke="#263238" stroke-miterlimit="10"/>
<path d="M201.968 276.183H187.77V290.381H201.968V276.183Z" fill="white" stroke="#263238" stroke-miterlimit="10"/>
<path d="M220.089 276.183H205.891V290.381H220.089V276.183Z" fill="white" stroke="#263238" stroke-miterlimit="10"/>
<path d="M238.21 276.183H224.012V290.381H238.21V276.183Z" fill="white" stroke="#263238" stroke-miterlimit="10"/>
<path d="M256.331 276.183H242.133V290.381H256.331V276.183Z" fill="white" stroke="#263238" stroke-miterlimit="10"/>
<path d="M274.452 276.183H260.255V290.381H274.452V276.183Z" fill="white" stroke="#263238" stroke-miterlimit="10"/>
<path d="M292.573 276.183H278.375V290.381H292.573V276.183Z" fill="white" stroke="#263238" stroke-miterlimit="10"/>
<path d="M310.694 276.183H296.496V290.381H310.694V276.183Z" fill="white" stroke="#263238" stroke-miterlimit="10"/>
<path d="M328.816 276.183H314.618V290.381H328.816V276.183Z" fill="white" stroke="#263238" stroke-miterlimit="10"/>
<path d="M346.936 276.183H332.738V290.381H346.936V276.183Z" fill="white" stroke="#263238" stroke-miterlimit="10"/>
<path d="M365.057 276.183H350.859V290.381H365.057V276.183Z" fill="white" stroke="#263238" stroke-miterlimit="10"/>
<path d="M383.178 276.183H368.98V290.381H383.178V276.183Z" fill="white" stroke="#263238" stroke-miterlimit="10"/>
<path d="M401.299 276.183H387.101V290.381H401.299V276.183Z" fill="white" stroke="#263238" stroke-miterlimit="10"/>
<path d="M419.421 276.183H405.223V290.381H419.421V276.183Z" fill="white" stroke="#263238" stroke-miterlimit="10"/>
<path d="M176.023 344.536H158.822V358.734H176.023V344.536Z" fill="white" stroke="#263238" stroke-miterlimit="10"/>
<path d="M153.127 269.116L158.822 267.216H422.024L425.775 269.091L153.127 269.116Z" fill="#263238"/>
<path opacity="0.2" d="M347.704 466.02L342.161 432.634C340.944 427.659 338.332 423.133 334.657 419.564C323.631 408.928 309.06 398.008 308.433 384.063C307.476 362.756 304.155 363.394 304.51 358.135C304.522 357.946 306.164 355.594 308.303 350.335C308.989 348.633 309.45 346.104 309.911 344.024C310.383 341.838 312.463 340.349 314.685 340.656C316.174 340.857 317.639 341.531 318.691 342.535C320.712 344.497 321.61 347.392 321.693 350.217C321.776 353.03 321.149 355.819 320.511 358.56C322.497 363.004 323.43 368.405 324.068 373.226C325.333 369.326 326.29 365.391 327.555 361.503C327.815 361.361 327.72 361.054 327.968 360.912C326.184 357.083 327.696 357.296 324.163 348.87C318.219 334.688 311.589 321.015 306.85 303.194C306.472 301.811 306.495 299.542 306.956 298.183C308.67 293.089 313.917 294.259 316.209 297.226C316.824 298.006 317.273 298.88 317.628 299.802C320.05 306.148 325.215 315.933 328.937 321.606L341.807 341.223C341.807 341.223 346.286 337.548 346.971 335.905L346.983 335.894C347.657 334.239 347.988 320.92 347.988 320.92C347.988 320.92 346.971 323.414 344.714 323.272C343.083 323.154 339.774 324.099 337.423 321.452C335.496 319.29 335.496 316.04 337.21 313.723L343.036 305.853C343.036 305.853 346.948 302.426 352.183 304.754C357.406 307.094 362.476 311.963 362.476 311.963C362.476 311.963 367.322 311.714 371.434 313.688C375.559 315.673 379.884 321.37 379.884 321.37C379.884 321.37 384.694 321.665 386.856 323.237C387.4 323.627 394.739 335.055 392.092 343.953C390.52 349.26 389.551 356.965 388.842 359.033L385.237 411.138L392.505 445.433L376.966 454.096C371.252 457.282 365.268 459.957 359.083 462.092L347.704 466.02Z" fill="black"/>
<path d="M391.834 405.133L391.974 352.893C392.543 350.782 392.998 343.03 394.212 337.631C396.26 328.577 388.18 317.663 387.61 317.309C385.347 315.893 380.529 315.918 380.529 315.918C380.529 315.918 375.837 310.518 371.589 308.81C367.352 307.116 362.535 307.685 362.535 307.685C362.535 307.685 357.161 303.158 351.787 301.173C346.412 299.2 342.732 302.88 342.732 302.88L337.446 311.113C335.891 313.54 336.106 316.791 338.167 318.814C340.696 321.305 343.933 320.143 345.565 320.143C347.828 320.143 348.675 317.589 348.675 317.589C348.675 317.589 349.232 330.892 348.675 332.587L348.662 332.6C348.081 334.294 343.857 338.252 343.857 338.252L329.72 319.536C325.622 314.124 319.819 304.703 316.986 298.533C316.569 297.634 316.063 296.787 315.393 296.054C312.915 293.246 307.604 292.425 306.224 297.623C305.858 299.014 305.985 301.277 306.453 302.63C312.371 320.093 319.895 333.296 326.762 347.054C330.846 355.224 329.328 355.122 331.365 358.814C331.125 358.978 331.238 359.282 330.985 359.433C329.987 363.404 329.291 367.388 328.292 371.359C327.331 366.591 326.041 361.268 323.765 356.968C324.22 354.186 324.663 351.367 324.384 348.559C324.118 345.751 323.031 342.919 320.881 341.098C319.768 340.162 318.263 339.594 316.759 339.492C314.521 339.328 312.548 340.959 312.22 343.172C311.903 345.271 311.612 347.826 311.031 349.57C309.248 354.957 307.768 357.41 307.768 357.6C307.768 362.874 311.031 362.013 313.407 383.22C315.253 399.736 336.523 410.648 348.107 422.574L360.449 461.395C374.777 455.654 388.485 448.307 401.637 439.771L391.834 405.133Z" fill="white"/>
<mask id="mask0_2018_2" style="mask-type:luminance" maskUnits="userSpaceOnUse" x="306" y="293" width="96" height="169">
<path d="M391.834 405.133L391.974 352.893C392.543 350.782 392.998 343.03 394.212 337.631C396.26 328.577 388.18 317.663 387.61 317.309C385.347 315.893 380.529 315.918 380.529 315.918C380.529 315.918 375.837 310.518 371.589 308.81C367.352 307.116 362.535 307.685 362.535 307.685C362.535 307.685 357.161 303.158 351.787 301.173C346.412 299.2 342.732 302.88 342.732 302.88L337.446 311.113C335.891 313.54 336.106 316.791 338.167 318.814C340.696 321.305 343.933 320.143 345.565 320.143C347.828 320.143 348.675 317.589 348.675 317.589C348.675 317.589 349.232 330.892 348.675 332.587L348.662 332.6C348.081 334.294 343.857 338.252 343.857 338.252L329.72 319.536C325.622 314.124 319.819 304.703 316.986 298.533C316.569 297.634 316.063 296.787 315.393 296.054C312.915 293.246 307.604 292.425 306.224 297.623C305.858 299.014 305.985 301.277 306.453 302.63C312.371 320.093 319.895 333.296 326.762 347.054C330.846 355.224 329.328 355.122 331.365 358.814C331.125 358.978 331.238 359.282 330.985 359.433C329.987 363.404 329.291 367.388 328.292 371.359C327.331 366.591 326.041 361.268 323.765 356.968C324.22 354.186 324.663 351.367 324.384 348.559C324.118 345.751 323.031 342.919 320.881 341.098C319.768 340.162 318.263 339.594 316.759 339.492C314.521 339.328 312.548 340.959 312.22 343.172C311.903 345.271 311.612 347.826 311.031 349.57C309.248 354.957 307.768 357.41 307.768 357.6C307.768 362.874 311.031 362.013 313.407 383.22C315.253 399.736 336.523 410.648 348.107 422.574L360.449 461.395C374.777 455.654 388.485 448.307 401.637 439.771L391.834 405.133Z" fill="white"/>
</mask>
<g mask="url(#mask0_2018_2)">
<path opacity="0.5" d="M385.776 334.149C386.405 332.613 387.149 331.033 388.489 330.054C389.83 329.076 391.935 328.952 393.012 330.215C392.13 327.504 391.193 324.812 390.203 322.139C389.449 320.104 388.597 317.986 386.918 316.613C385.237 315.239 382.469 314.949 381.029 316.573C382.056 322.737 382.167 329.053 381.36 335.251C380.922 338.606 380.358 342.464 382.618 344.983C383.241 345.491 384.321 344.578 383.926 343.88C383.74 343.549 383.07 343.527 382.781 343.556C383.507 340.348 384.53 337.193 385.776 334.149Z" fill="white"/>
<g opacity="0.5">
<path d="M366.922 328.542C367.011 330.814 366.996 333.118 367.557 335.322C368.117 337.527 369.343 339.674 371.332 340.777C370.16 336.372 370.793 331.715 371.435 327.203C371.824 324.462 372.214 321.72 372.603 318.98C372.739 318.027 372.888 317.035 373.436 316.244C373.984 315.453 375.06 314.938 375.934 315.339C374.767 316.031 373.25 315.104 372.546 313.943C371.842 312.783 371.564 311.381 370.731 310.309C369.151 308.279 365.772 307.83 363.435 308.37C364.145 315.121 366.65 321.566 366.922 328.542Z" fill="white"/>
</g>
<g opacity="0.5">
<path d="M347.627 310.323C346.865 309.763 346.611 308.757 346.381 307.839C346.151 306.921 345.824 305.916 344.998 305.453C341.367 307.754 343.351 314.502 339.682 316.74C338.97 317.174 338.063 317.418 337.667 318.152C337.309 318.815 337.537 319.685 338.055 320.232C338.572 320.779 339.32 321.052 340.062 321.186C342.981 321.711 346.058 320.22 347.8 317.82C349.237 315.841 350.232 312.643 349.521 310.296C348.967 310.607 348.171 310.722 347.627 310.323Z" fill="white"/>
<path d="M309.901 354.504C309.836 354.757 309.789 355.072 309.989 355.239C310.3 355.496 310.715 355.098 310.947 354.769C312.469 352.604 315.484 351.625 317.987 352.483C318.943 352.464 319.268 351.009 318.641 350.286C318.015 349.563 316.951 349.438 315.995 349.435C315.039 349.432 314.016 349.483 313.205 348.976C312.209 348.352 311.816 347.085 312.071 345.996C311.428 348.843 310.634 351.672 309.901 354.504Z" fill="white"/>
</g>
<path opacity="0.5" d="M358.015 309.424C355.948 309.147 353.762 309.096 351.962 308.042C349.707 306.721 348.162 303.899 345.552 303.786C343.232 303.685 341.505 305.811 340.186 307.723C340.035 304.838 342.156 302.143 344.838 301.07C347.519 299.997 350.605 300.337 353.29 301.404C355.974 302.471 358.332 304.21 360.623 305.968C361.545 306.675 362.48 307.408 363.102 308.387C366.017 312.975 359.84 309.667 358.015 309.424Z" fill="white"/>
</g>
<mask id="mask1_2018_2" style="mask-type:luminance" maskUnits="userSpaceOnUse" x="306" y="293" width="96" height="169">
<path d="M391.834 405.133L391.974 352.893C392.543 350.782 392.998 343.03 394.212 337.631C396.26 328.577 388.18 317.663 387.61 317.309C385.347 315.893 380.529 315.918 380.529 315.918C380.529 315.918 375.837 310.518 371.589 308.81C367.352 307.116 362.535 307.685 362.535 307.685C362.535 307.685 357.161 303.158 351.787 301.173C346.412 299.2 342.732 302.88 342.732 302.88L337.446 311.113C335.891 313.54 336.106 316.791 338.167 318.814C340.696 321.305 343.933 320.143 345.565 320.143C347.828 320.143 348.675 317.589 348.675 317.589C348.675 317.589 349.232 330.892 348.675 332.587L348.662 332.6C348.081 334.294 343.857 338.252 343.857 338.252L329.72 319.536C325.622 314.124 319.819 304.703 316.986 298.533C316.569 297.634 316.063 296.787 315.393 296.054C312.915 293.246 307.604 292.425 306.224 297.623C305.858 299.014 305.985 301.277 306.453 302.63C312.371 320.093 319.895 333.296 326.762 347.054C330.846 355.224 329.328 355.122 331.365 358.814C331.125 358.978 331.238 359.282 330.985 359.433C329.987 363.404 329.291 367.388 328.292 371.359C327.331 366.591 326.041 361.268 323.765 356.968C324.22 354.186 324.663 351.367 324.384 348.559C324.118 345.751 323.031 342.919 320.881 341.098C319.768 340.162 318.263 339.594 316.759 339.492C314.521 339.328 312.548 340.959 312.22 343.172C311.903 345.271 311.612 347.826 311.031 349.57C309.248 354.957 307.768 357.41 307.768 357.6C307.768 362.874 311.031 362.013 313.407 383.22C315.253 399.736 336.523 410.648 348.107 422.574L360.449 461.395C374.777 455.654 388.485 448.307 401.637 439.771L391.834 405.133Z" fill="white"/>
</mask>
<g mask="url(#mask1_2018_2)">
<g opacity="0.5">
<path d="M321.05 376.541C321.192 376.282 321.316 376.015 321.437 375.748C321.19 375.937 321.026 376.201 321.05 376.541Z" fill="white"/>
<path d="M324.56 358.234C324.328 355.321 324.743 352.391 324.621 349.472C324.5 346.552 323.736 343.478 321.61 341.474C318.561 338.6 310.209 340.07 313.01 345.525C313.787 347.037 315.789 347.824 317.345 347.142C318.901 346.46 319.668 344.342 318.816 342.872C322.193 347.993 321.89 355.263 318.101 360.087C322.431 363.839 323.807 370.557 321.438 375.748C321.943 375.362 322.826 375.31 323.382 375.728C324.209 376.353 324.487 377.444 324.89 378.399C325.293 379.354 326.075 380.349 327.108 380.279C328.528 376.799 328.057 372.84 327.135 369.195C326.212 365.551 324.859 361.982 324.56 358.234Z" fill="white"/>
<path d="M355.136 303.431C353.51 302.184 351.581 301.338 349.547 301.075L355.136 303.431Z" fill="white"/>
<path d="M369.032 340.409C368.584 338.4 367.656 336.529 367.103 334.546C365.814 329.924 366.623 324.988 366.032 320.227C365.269 314.07 362.055 308.251 357.253 304.325L355.136 303.432C357.162 304.985 358.715 307.162 359.396 309.624C361.032 315.267 361.546 321.161 362.272 326.991C363.391 335.983 365.032 344.911 367.184 353.714C368.593 349.403 370.017 344.835 369.032 340.409Z" fill="white"/>
<path d="M346.53 319.392C347.993 318.235 348.776 316.386 349.026 314.537C349.25 312.884 349.09 311.21 348.893 309.55C348.753 310.263 347.826 310.857 347.035 310.671C346.029 310.432 345.368 309.501 344.799 308.638C344.655 309.134 344.512 309.629 344.368 310.126C344.31 309.858 344.252 309.589 344.194 309.321L343.633 310.035C344.471 312.407 345.278 315.159 343.984 317.317C343.357 318.362 342.326 319.087 341.323 319.78C342.853 320.846 345.067 320.55 346.53 319.392Z" fill="white"/>
<path d="M348.824 308.961C348.848 309.157 348.869 309.353 348.893 309.549C348.931 309.358 348.923 309.158 348.824 308.961Z" fill="white"/>
<path d="M342.65 332.878C338.505 324.738 334.358 316.593 329.802 308.676C327.139 304.047 324.318 299.471 320.765 295.483C319.191 293.716 314.667 289.623 312.177 292.319C310.516 294.116 312.702 297.385 310.656 299.33C311.125 299.358 313.435 299.106 313.679 299.408C318.87 305.821 321.728 314.079 321.613 322.328C323.281 321.02 325.564 322.836 326.866 324.509C334.872 334.798 342.356 345.492 349.282 356.538C347.94 351.656 347.907 346.478 346.458 341.626C345.547 338.573 344.094 335.715 342.65 332.878Z" fill="white"/>
<path d="M390.788 352.719C392.769 347.418 394.316 341.988 394.491 336.363C394.65 331.25 393.481 325.941 390.78 321.561C390.097 320.454 387.257 315.925 385.703 316.293C382.929 316.95 386.572 321.773 387.206 322.977C389.603 327.525 392.064 332.337 391.911 337.475C391.793 341.435 390.126 345.154 388.796 348.886C387.868 351.487 387.112 354.268 387.131 356.994C386.926 357.297 386.739 357.613 386.517 357.903C384.676 360.318 382.09 362.309 379.093 362.797C380.235 359.272 381.378 355.745 382.519 352.22C382.927 350.961 383.074 349.241 382.342 348.365C382.578 347.883 382.725 347.374 382.704 346.825C382.666 345.854 382.112 344.992 381.701 344.111C380.12 340.705 380.656 336.747 381.041 333.011C381.515 328.404 381.694 323.657 380.344 319.227C378.992 314.796 375.865 310.687 371.472 309.217C371.848 309.623 372.224 310.028 372.599 310.433L371.11 309.351C372.033 311.271 372.957 313.192 373.88 315.112C373.54 315.598 373.2 316.083 372.859 316.57C374.384 315.771 376.337 316.93 377.036 318.503C377.734 320.076 377.543 321.879 377.382 323.593C376.484 333.15 376.967 342.831 378.777 352.258C378.604 354.458 378.222 356.687 377.076 358.564C375.837 360.589 373.515 362.112 371.166 361.768C371.686 359.497 370.81 356.811 368.887 355.469C366.505 358.777 367.908 363.918 368.27 367.685C368.82 373.394 369.737 379.068 371.015 384.659C371.381 379.81 372.398 375.012 374.03 370.431C375.316 375.098 376.602 379.765 377.887 384.432C377.927 383.126 377.981 381.762 378.615 380.619C379.248 379.477 380.653 378.646 381.876 379.107C382.877 379.485 383.42 380.549 383.831 381.537C387.172 389.558 388.013 398.603 386.209 407.103C387.796 407.984 389.896 406.919 390.775 405.332C391.656 403.745 391.646 401.834 391.614 400.02C391.339 384.251 391.064 368.485 390.788 352.719Z" fill="white"/>
<path d="M350.726 357.72C349.968 359.048 353.065 364.32 353.578 365.572C356.182 371.931 358.787 378.29 361.392 384.649C360.529 376.276 358.482 368.025 355.334 360.218C354.802 358.899 352.229 355.085 350.726 357.72Z" fill="white"/>
<path d="M354.771 324.015C354.328 324.688 353.692 325.515 352.923 325.279C352.204 325.059 352.082 324.11 352.094 323.36C352.166 318.935 352.238 314.512 352.311 310.087C348.739 312.645 349.197 316.002 348.946 319.821C348.801 322.032 349.441 332.58 347.932 333.873C351.463 330.86 354.455 327.219 356.726 323.172C356.105 322.658 355.214 323.343 354.771 324.015Z" fill="white"/>
</g>
</g>
<path d="M311.351 353.853C309.982 354.938 308.804 356.264 307.886 357.749L311.351 353.853Z" fill="white"/>
<path d="M360.447 461.393L348.105 422.572C336.521 410.646 315.251 399.734 313.405 383.218C311.027 362.011 307.766 362.871 307.766 357.598C307.766 357.408 309.245 354.956 311.028 349.568C311.61 347.823 311.901 345.269 312.217 343.17C312.546 340.958 314.518 339.326 316.757 339.49C318.261 339.591 319.767 340.16 320.879 341.096C323.028 342.917 324.116 345.75 324.381 348.556C324.66 351.363 324.217 354.184 323.762 356.966C326.038 361.265 327.329 366.589 328.29 371.357C329.288 367.386 329.984 363.402 330.983 359.431C331.236 359.28 331.122 358.976 331.362 358.812C329.326 355.119 330.843 355.221 326.759 347.052C319.893 333.294 312.369 320.092 306.45 302.628C305.982 301.274 305.856 299.011 306.222 297.62C307.6 292.423 312.912 293.245 315.39 296.052C316.061 296.786 316.566 297.633 316.983 298.53C319.816 304.702 325.62 314.123 329.717 319.534L343.855 338.25C343.855 338.25 348.079 334.292 348.66 332.598L348.673 332.585C349.23 330.89 348.673 317.587 348.673 317.587C348.673 317.587 347.826 320.14 345.563 320.14C343.932 320.14 340.694 321.303 338.165 318.812C336.104 316.789 335.889 313.539 337.444 311.11L342.73 302.878C342.73 302.878 346.41 299.198 351.785 301.172C357.159 303.157 362.533 307.684 362.533 307.684C362.533 307.684 367.351 307.115 371.587 308.809C375.835 310.517 380.527 315.917 380.527 315.917C380.527 315.917 385.345 315.892 387.608 317.308C388.178 317.662 396.258 328.575 394.21 337.63C392.996 343.029 392.54 350.782 391.971 352.892L391.832 405.132L401.632 439.769" stroke="#263238" stroke-miterlimit="10"/>
<path d="M363.819 309.542C365.906 317.247 366.992 325.221 367.043 333.204C367.051 334.539 367.035 335.905 367.463 337.171C367.891 338.437 368.865 339.608 370.174 339.872" stroke="#263238" stroke-miterlimit="10"/>
<path d="M380.533 317.305C384.041 324.706 380.45 341.231 380.716 342.395C380.981 343.559 381.645 344.69 382.707 345.233" stroke="#263238" stroke-miterlimit="10"/>
<path d="M350.064 308.529C349.652 310.881 349.306 313.609 348.893 315.96C346.146 313.623 344.397 310.15 344.155 306.551" stroke="#263238" stroke-miterlimit="10"/>
<path d="M327.423 371.586C326.574 371.961 325.723 372.335 324.873 372.709" stroke="#263238" stroke-miterlimit="10"/>
<path d="M328.077 373.633C327.661 375.596 327.651 377.645 328.05 379.611" stroke="#263238" stroke-miterlimit="10"/>
<path d="M343.01 351.546C343.953 353.245 344.896 354.942 345.84 356.64" stroke="#263238" stroke-miterlimit="10"/>
<path d="M348.443 332.908C349.38 331.583 350.318 330.259 351.255 328.935" stroke="#263238" stroke-miterlimit="10"/>
<path d="M388.004 351.546C387.72 352.584 387.438 353.622 387.155 354.659" stroke="#263238" stroke-miterlimit="10"/>
<path d="M381.125 343.029C381.954 340.382 382.784 337.735 383.612 335.088" stroke="#263238" stroke-miterlimit="10"/>
<path d="M389.442 328.947C390.902 328.101 393.022 328.76 393.743 330.286" stroke="#263238" stroke-miterlimit="10"/>
<path d="M372.456 315.382C374.409 314.813 376.64 315.324 378.15 316.684" stroke="#263238" stroke-miterlimit="10"/>
<path d="M319.821 323.261C321.636 321.244 324.458 320.18 327.154 320.5" stroke="#263238" stroke-miterlimit="10"/>
<path d="M309.159 300.971C310.849 299.734 313.048 299.219 315.11 299.577" stroke="#263238" stroke-miterlimit="10"/>
<path d="M311.351 353.853C309.983 354.938 308.804 356.264 307.886 357.749" stroke="#263238" stroke-miterlimit="10"/>
<path d="M312.487 348.488C314.355 347.152 317.332 350.139 319.049 348.615C319.734 348.008 319.784 346.956 319.626 346.056C319.468 345.155 319.151 344.252 319.285 343.348" stroke="#263238" stroke-miterlimit="10"/>
<path d="M365.183 340.292C367.452 344.953 367.923 350.46 366.48 355.439" stroke="#263238" stroke-miterlimit="10"/>
<path d="M378.909 347.58C379.283 349.795 378.855 352.136 377.724 354.077" stroke="#263238" stroke-miterlimit="10"/>
<path opacity="0.2" d="M264.648 365.32C264.755 366.135 264.719 366.975 264.542 367.778C263.774 371.335 261.552 381.7 260.737 387.372C259.768 394.297 248.576 415.735 248.576 415.735C248.576 415.735 238.271 428.545 233.024 435.211C230.448 438.484 226.37 451.732 222.908 464.354C218.535 463.03 214.21 461.6 209.908 460.075C206.351 458.811 202.794 457.476 199.284 456.093C194.344 454.143 188.045 451.047 180.813 447.088C182.774 439.962 184.086 434.478 184.063 434.159C184.004 433.414 188.27 425.201 188.27 425.201L184.547 376.228L182.349 368.771C181.203 364.918 180.482 360.947 180.186 356.977C179.725 350.914 180.234 344.804 181.711 338.86L188.128 329.335L191.13 329.11L200.419 316.134C200.419 316.134 205.441 314.622 206.729 318.403C208.017 322.197 202.546 329.252 202.546 329.252L200.667 340.916L205.134 351.836L207.45 352.687C207.45 352.687 208.23 333.459 207.698 329.618L212.638 312.069C212.638 312.069 215.581 306.207 216.491 303.253C217.389 300.31 222.672 297.391 225.709 302.556C225.709 302.556 227.399 305.179 226.181 308.784C224.941 312.388 223.912 315.224 223.912 315.224C223.912 315.224 222.79 330.091 222.435 330.505C222.081 330.895 224.621 352.639 224.621 352.639L226.56 353.502L227.245 332.762L231.275 313.274C231.275 313.274 230.944 303.903 237.55 305.037C237.55 305.037 240.646 304.683 242.407 308.063C244.168 311.431 242.49 333.861 242.49 333.861L244.121 357.048L246.733 374.928L249.805 362.673C249.805 362.673 249.983 345.112 261.068 343.611C261.068 343.611 264.365 343.02 265.038 345.312C265.712 347.593 263.396 352.285 263.727 356.776C263.975 359.931 264.424 363.488 264.648 365.32Z" fill="black"/>
<path d="M261.28 343.612C260.774 341.272 257.449 341.613 257.449 341.613C246.282 342.27 244.778 359.773 244.778 359.773L240.782 371.761L239.531 353.728L239.657 330.486C239.657 330.486 243.033 308.242 241.529 304.751C240.036 301.248 236.913 301.375 236.913 301.375C230.413 299.744 230.034 309.114 230.034 309.114L224.546 328.234L222.294 348.859L220.422 347.86C220.422 347.86 219.537 325.983 219.917 325.617C220.296 325.237 222.547 310.492 222.547 310.492C222.547 310.492 223.787 307.748 225.291 304.245C226.784 300.743 225.291 297.998 225.291 297.998C222.661 292.624 217.173 295.128 216.047 297.998C214.922 300.869 211.546 306.497 211.546 306.497L205.286 323.618C205.526 327.487 203.301 346.609 203.301 346.609L201.049 345.584L197.42 334.355L200.177 322.86C200.177 322.86 206.171 316.246 205.173 312.364C204.174 308.495 199.052 309.62 199.052 309.62L188.81 321.861H185.8L178.681 330.865C176.759 336.682 175.784 342.74 175.784 348.822C175.784 352.806 176.201 356.815 177.049 360.748L178.679 368.348V417.464C178.679 417.464 173.81 425.33 173.81 426.075C173.81 426.417 171.8 432.626 168.992 440.364C181.246 447.572 191.806 453.149 199.279 456.095C202.795 457.486 206.347 458.814 209.914 460.079C214.404 447.472 219.651 433.978 222.547 430.83C228.288 424.583 239.531 412.582 239.531 412.582C239.531 412.582 252.315 392.058 253.808 385.229C255.047 379.628 258.044 369.461 259.081 365.97C259.321 365.186 259.422 364.351 259.372 363.529C259.283 361.684 259.106 358.104 259.106 354.943C259.106 350.44 261.773 345.939 261.28 343.612Z" fill="white"/>
<mask id="mask2_2018_2" style="mask-type:luminance" maskUnits="userSpaceOnUse" x="168" y="294" width="94" height="167">
<path d="M261.28 343.612C260.774 341.272 257.449 341.613 257.449 341.613C246.282 342.27 244.778 359.773 244.778 359.773L240.782 371.761L239.531 353.728L239.657 330.486C239.657 330.486 243.033 308.242 241.529 304.751C240.036 301.248 236.913 301.375 236.913 301.375C230.413 299.744 230.034 309.114 230.034 309.114L224.546 328.234L222.294 348.859L220.422 347.86C220.422 347.86 219.537 325.983 219.917 325.617C220.296 325.237 222.547 310.492 222.547 310.492C222.547 310.492 223.787 307.748 225.291 304.245C226.784 300.743 225.291 297.998 225.291 297.998C222.661 292.624 217.173 295.128 216.047 297.998C214.922 300.869 211.546 306.497 211.546 306.497L205.286 323.618C205.526 327.487 203.301 346.609 203.301 346.609L201.049 345.584L197.42 334.355L200.177 322.86C200.177 322.86 206.171 316.246 205.173 312.364C204.174 308.495 199.052 309.62 199.052 309.62L188.81 321.861H185.8L178.681 330.865C176.759 336.682 175.784 342.74 175.784 348.822C175.784 352.806 176.201 356.815 177.049 360.748L178.679 368.348V417.464C178.679 417.464 173.81 425.33 173.81 426.075C173.81 426.417 171.8 432.626 168.992 440.364C181.246 447.572 191.806 453.149 199.279 456.095C202.795 457.486 206.347 458.814 209.914 460.079C214.404 447.472 219.651 433.978 222.547 430.83C228.288 424.583 239.531 412.582 239.531 412.582C239.531 412.582 252.315 392.058 253.808 385.229C255.047 379.628 258.044 369.461 259.081 365.97C259.321 365.186 259.422 364.351 259.372 363.529C259.283 361.684 259.106 358.104 259.106 354.943C259.106 350.44 261.773 345.939 261.28 343.612Z" fill="white"/>
</mask>
<g mask="url(#mask2_2018_2)">
<path opacity="0.5" d="M184.588 338.668C186.496 336.288 190.422 335.374 192.64 337.467C193.913 338.667 194.342 340.491 194.664 342.21C194.987 343.93 195.307 345.751 196.448 347.078C197.587 348.405 199.864 348.925 201.062 347.652C201.221 350.24 201.38 352.829 201.539 355.416C204.299 350.622 205.723 345.068 205.609 339.537C205.553 336.85 205.148 334.117 205.771 331.502C206.393 328.887 208.424 326.342 211.109 326.22C214.087 326.084 216.442 328.985 217.014 331.911C217.586 334.837 216.916 337.842 216.734 340.819C216.458 345.357 217.346 349.963 219.293 354.072C219.918 352.805 220.544 351.537 221.169 350.27C221.733 352.813 222.297 355.355 222.86 357.898C223.349 352.303 223.838 346.706 224.326 341.11C224.464 339.529 224.615 337.9 225.352 336.495C226.088 335.09 227.567 333.948 229.146 334.107C231.275 334.318 232.499 336.59 233.213 338.606C238.537 353.663 236.343 370.208 234.086 386.019C235.567 386.283 236.81 384.796 237.18 383.339C237.55 381.882 237.418 380.307 237.971 378.909C238.524 377.511 240.236 376.358 241.508 377.159C243.369 378.331 242.069 381.963 244.026 382.966C244.632 378.29 246.498 373.783 249.376 370.046C250.687 368.344 252.654 366.657 254.733 367.197C256.285 367.6 257.298 369.184 257.526 370.772C257.754 372.359 260.043 365.806 259.649 367.36C260.544 358.244 258.754 357.283 259.648 348.166C259.81 346.52 262.471 343.667 261.339 342.462C260.263 341.316 257.049 339.635 255.622 340.296C254.194 340.956 249.55 343.266 248.627 344.54C242.821 352.557 243.215 364.169 241.41 373.902C239.869 359.059 238.336 343.971 241.056 329.298C242.557 321.204 245.324 312.774 242.71 304.969C241.517 301.406 238.351 297.843 234.656 298.52C231.673 299.066 229.871 302.072 228.659 304.852C224.591 314.189 222.782 324.328 221.007 334.357C223.228 324.264 225.449 314.17 227.669 304.076C228.246 301.453 228.826 298.747 228.349 296.104C227.871 293.462 226.065 290.869 223.437 290.316C220.829 289.767 218.238 291.31 216.272 293.108C209.247 299.535 206.632 309.339 204.342 318.58C205.146 316.166 205.96 313.664 205.712 311.133C205.463 308.6 203.853 306.017 201.367 305.471C198.151 304.764 195.227 307.638 193.813 310.613C192.4 313.589 191.703 317.011 189.451 319.415C187.809 317.567 184.723 317.674 182.661 319.039C180.599 320.404 179.354 322.691 178.347 324.949C174.651 333.242 173.064 342.466 173.776 351.518C175.406 347.884 179.526 345.539 183.481 345.993C183.246 343.979 183.011 341.966 182.776 339.952" fill="white"/>
</g>
<mask id="mask3_2018_2" style="mask-type:luminance" maskUnits="userSpaceOnUse" x="168" y="294" width="94" height="167">
<path d="M261.28 343.612C260.774 341.272 257.449 341.613 257.449 341.613C246.282 342.27 244.778 359.773 244.778 359.773L240.782 371.761L239.531 353.728L239.657 330.486C239.657 330.486 243.033 308.242 241.529 304.751C240.036 301.248 236.913 301.375 236.913 301.375C230.413 299.744 230.034 309.114 230.034 309.114L224.546 328.234L222.294 348.859L220.422 347.86C220.422 347.86 219.537 325.983 219.917 325.617C220.296 325.237 222.547 310.492 222.547 310.492C222.547 310.492 223.787 307.748 225.291 304.245C226.784 300.743 225.291 297.998 225.291 297.998C222.661 292.624 217.173 295.128 216.047 297.998C214.922 300.869 211.546 306.497 211.546 306.497L205.286 323.618C205.526 327.487 203.301 346.609 203.301 346.609L201.049 345.584L197.42 334.355L200.177 322.86C200.177 322.86 206.171 316.246 205.173 312.364C204.174 308.495 199.052 309.62 199.052 309.62L188.81 321.861H185.8L178.681 330.865C176.759 336.682 175.784 342.74 175.784 348.822C175.784 352.806 176.201 356.815 177.049 360.748L178.679 368.348V417.464C178.679 417.464 173.81 425.33 173.81 426.075C173.81 426.417 171.8 432.626 168.992 440.364C181.246 447.572 191.806 453.149 199.279 456.095C202.795 457.486 206.347 458.814 209.914 460.079C214.404 447.472 219.651 433.978 222.547 430.83C228.288 424.583 239.531 412.582 239.531 412.582C239.531 412.582 252.315 392.058 253.808 385.229C255.047 379.628 258.044 369.461 259.081 365.97C259.321 365.186 259.422 364.351 259.372 363.529C259.283 361.684 259.106 358.104 259.106 354.943C259.106 350.44 261.773 345.939 261.28 343.612Z" fill="white"/>
</mask>
<g mask="url(#mask3_2018_2)">
<g opacity="0.5">
<path d="M192.367 357.896C192.268 359.387 192.167 360.879 192.068 362.371C192.524 361.128 194.348 360.666 195.342 361.54C195.121 360.593 195.71 359.673 196.085 358.775C196.46 357.877 196.5 356.602 195.625 356.174C194.587 355.666 193.558 356.859 193.011 357.878C192.965 357.508 192.919 357.138 192.874 356.768L192.367 357.896Z" fill="white"/>
<path d="M209.321 355.223C208.103 356.616 207.268 358.343 206.936 360.164C207.45 359.66 207.986 359.143 208.663 358.897C209.339 358.651 210.199 358.756 210.628 359.335C210.895 359.696 210.99 360.215 211.388 360.42C211.789 360.628 212.304 360.378 212.543 359.995C212.781 359.612 212.817 359.142 212.844 358.691C212.897 357.831 212.949 356.949 212.7 356.123C212.45 355.298 211.835 354.528 210.992 354.346C210.15 354.164 209.151 354.783 209.144 355.645L209.321 355.223Z" fill="white"/>
<path d="M225.731 359.296C224.436 361.037 223.578 363.099 223.254 365.245C224.124 365.119 224.854 364.551 225.55 364.012C226.245 363.474 227.003 362.927 227.879 362.858C228.755 362.791 229.742 363.423 229.716 364.302C229.548 363.311 229.708 362.298 229.813 361.298C229.918 360.298 229.966 359.255 229.592 358.321C229.219 357.388 228.319 356.596 227.316 356.65C226.313 356.705 225.45 357.878 225.919 358.767L225.731 359.296Z" fill="white"/>
<path d="M180.575 365.224C179.667 366.926 179.189 368.856 179.199 370.784C179.21 369.896 180.047 369.177 180.926 369.052C181.806 368.925 182.688 369.267 183.452 369.723C183.628 368.83 183.804 367.905 183.616 367.014C183.428 366.123 182.782 365.262 181.882 365.118C180.983 364.972 179.988 365.841 180.235 366.718C180.142 366.491 180.049 366.263 179.956 366.036L180.575 365.224Z" fill="white"/>
</g>
</g>
<path d="M168.992 440.363C171.799 432.624 173.81 426.415 173.81 426.074C173.81 425.329 178.679 417.463 178.679 417.463V368.347L177.049 360.747C176.201 356.814 175.784 352.805 175.784 348.821C175.784 342.739 176.758 336.682 178.679 330.864L185.799 321.86H188.809L199.051 309.619C199.051 309.619 204.173 308.494 205.171 312.363C206.17 316.245 200.176 322.859 200.176 322.859L197.419 334.354L201.048 345.583L203.3 346.608C203.3 346.608 205.525 327.488 205.285 323.617L211.545 306.496C211.545 306.496 214.921 300.868 216.046 297.997C217.171 295.127 222.66 292.623 225.29 297.997C225.29 297.997 226.783 300.742 225.29 304.244C223.786 307.747 222.546 310.491 222.546 310.491C222.546 310.491 220.295 325.236 219.915 325.616C219.536 325.982 220.421 347.859 220.421 347.859L222.293 348.858L224.544 328.232L230.033 309.112C230.033 309.112 230.412 299.742 236.912 301.373C236.912 301.373 240.035 301.246 241.528 304.749C243.032 308.239 239.656 330.484 239.656 330.484L239.529 353.726L240.781 371.758L244.777 359.77C244.777 359.77 246.281 342.268 257.448 341.611C257.448 341.611 260.773 341.27 261.279 343.61C261.772 345.937 259.105 350.438 259.105 354.941C259.105 358.102 259.282 361.68 259.37 363.527C259.421 364.35 259.32 365.184 259.08 365.968C258.043 369.458 255.046 379.626 253.807 385.227C252.314 392.056 239.529 412.58 239.529 412.58C239.529 412.58 228.287 424.581 222.546 430.828C219.651 433.976 214.402 447.469 209.913 460.077" stroke="#263238" stroke-miterlimit="10"/>
<path d="M203.095 348.458C203.749 350.788 203.087 353.44 201.416 355.189L203.095 348.458Z" fill="white"/>
<path d="M203.095 348.458C203.749 350.788 203.087 353.44 201.416 355.189" stroke="#263238" stroke-miterlimit="10"/>
<path d="M184.036 364.982C185.664 362.469 187.241 359.015 186.805 356.053C185.951 350.253 183.309 343.574 184.497 337.833C185.257 334.165 186.017 330.498 186.777 326.83" fill="white"/>
<path d="M184.036 364.982C185.664 362.469 187.241 359.015 186.805 356.053C185.951 350.253 183.309 343.574 184.497 337.833C185.257 334.165 186.017 330.498 186.777 326.83" stroke="#263238" stroke-miterlimit="10"/>
<path d="M231.154 310.17C233.076 309.665 235.13 309.67 237.048 310.186C237.07 309.638 237.093 309.09 237.115 308.541" stroke="#263238" stroke-miterlimit="10"/>
<path d="M215.637 302.787C216.77 303.599 218.365 303.708 219.596 303.057C220.828 302.406 221.637 301.025 221.603 299.633" stroke="#263238" stroke-miterlimit="10"/>
<path d="M258.349 343.812C255.07 344.56 252.614 347.948 252.925 351.298C253.891 351.586 254.857 351.874 255.823 352.162" stroke="#263238" stroke-miterlimit="10"/>
<path d="M220.316 345.254C220.447 347.236 220.205 351.978 220.337 353.958L220.316 345.254Z" fill="white"/>
<path d="M220.316 345.254C220.447 347.236 220.205 351.978 220.337 353.958" stroke="#263238" stroke-miterlimit="10"/>
<path d="M222.494 348.002C222.255 351.25 222.017 354.498 221.777 357.746C221.796 357.332 221.816 356.92 221.835 356.506" fill="white"/>
<path d="M222.494 348.002C222.255 351.25 222.017 354.498 221.777 357.746C221.796 357.332 221.816 356.92 221.835 356.506" stroke="#263238" stroke-miterlimit="10"/>
<path d="M240.523 375.39C241.39 378.945 240.993 382.793 239.418 386.096L240.523 375.39Z" fill="white"/>
<path d="M240.523 375.39C241.39 378.945 240.993 382.793 239.418 386.096" stroke="#263238" stroke-miterlimit="10"/>
<path d="M210.568 358.361C207.991 361.186 208.369 367.961 210.189 371.69" stroke="#263238" stroke-miterlimit="10"/>
<path d="M229.607 363.023C229.671 366.072 228.558 369.131 226.454 371.69" stroke="#263238" stroke-miterlimit="10"/>
<path d="M191.802 359.713C191.375 362.55 192.014 365.535 193.565 367.948" stroke="#263238" stroke-miterlimit="10"/>
<path d="M180.84 368.534C180.715 370.762 181.367 373.026 182.66 374.846" stroke="#263238" stroke-miterlimit="10"/>
<path d="M195.865 314.051C197.203 313.403 198.932 313.681 200 314.714C200.487 314.071 200.974 313.429 201.461 312.786" stroke="#263238" stroke-miterlimit="10"/>
<path d="M207.991 322.725C209.945 321.482 212.806 321.967 214.239 323.786" stroke="#263238" stroke-miterlimit="10"/>
<path d="M226.93 328.636C229.04 327.682 231.58 327.735 233.646 328.777" stroke="#263238" stroke-miterlimit="10"/>
<path d="M184.789 338.552C186.012 336.439 188.56 335.174 190.983 335.479" stroke="#263238" stroke-miterlimit="10"/>
<path d="M176.866 349.857C176.898 348.329 178.153 346.919 179.668 346.711" stroke="#263238" stroke-miterlimit="10"/>
<path d="M481.37 264.928C508.421 264.928 530.351 242.998 530.351 215.946C530.351 188.895 508.421 166.965 481.37 166.965C454.318 166.965 432.388 188.895 432.388 215.946C432.388 242.998 454.318 264.928 481.37 264.928Z" stroke="#263238" stroke-miterlimit="10" stroke-linecap="round" stroke-linejoin="round"/>
<path opacity="0.2" d="M536.825 217.228C526.381 234.358 522.667 232.044 487.042 249.109C468.957 257.772 451.481 229.92 463.304 201.335C463.881 199.94 468.989 192.885 468.989 192.885C471.14 183.431 478.987 175.513 488.43 173.291C497.86 171.058 508.425 174.615 514.583 182.107C521.271 176.187 530.974 173.988 539.613 176.128C540.026 177.333 540.416 178.515 540.795 179.673C540.936 180.122 541.09 180.559 541.22 181.008C541.669 182.391 542.094 183.774 542.484 185.168C543.264 187.815 543.985 190.474 544.659 193.157C540.724 192.058 536.765 192.034 533.03 193.854C530.418 195.131 528.232 197.234 525.514 198.274C522.796 199.302 519.038 198.723 517.998 196.005C519.31 201.465 525.038 199.833 530.543 200.913C539.063 202.588 541.221 210.019 536.825 217.228Z" fill="black"/>
<path d="M520.735 208.786C520.735 208.786 529.504 207.597 533.67 208.221C536.313 208.617 537.936 210.155 538.712 211.115C539.072 211.559 539.278 212.108 539.317 212.679L539.788 219.531C539.841 220.313 539.576 221.089 539.033 221.655C537.323 223.435 532.156 226.685 516.869 227.854C495.373 229.497 520.735 208.786 520.735 208.786Z" fill="white" stroke="#263238" stroke-miterlimit="10" stroke-linecap="round" stroke-linejoin="round"/>
<path d="M514.33 191.071C516.797 194.138 521.507 201.101 521.507 211.906C521.507 220.072 512.049 247.963 487.834 251.358C462.202 254.952 441.597 233.015 445.998 206.617C449.042 188.359 493.752 165.497 514.33 191.071Z" fill="white" stroke="#263238" stroke-miterlimit="10" stroke-linecap="round" stroke-linejoin="round"/>
<path d="M483.011 245.265C503.551 245.265 520.202 229.505 520.202 210.063C520.202 190.622 503.551 174.862 483.011 174.862C462.471 174.862 445.821 190.622 445.821 210.063C445.821 229.505 462.471 245.265 483.011 245.265Z" fill="white"/>
<path d="M482.935 240.804C499.797 240.804 513.466 227.866 513.466 211.906C513.466 195.946 499.797 183.008 482.935 183.008C466.072 183.008 452.403 195.946 452.403 211.906C452.403 227.866 466.072 240.804 482.935 240.804Z" fill="#263238"/>
<path d="M520.202 210.063C520.202 190.622 503.551 174.863 483.011 174.863C462.472 174.863 445.821 190.623 445.821 210.063" stroke="#263238" stroke-miterlimit="10" stroke-linecap="round" stroke-linejoin="round"/>
<path d="M510.388 233.888C516.481 227.619 520.201 219.252 520.201 210.063" stroke="#263238" stroke-miterlimit="10" stroke-linecap="round" stroke-linejoin="round"/>
<path d="M456.959 235.185C463.669 241.42 472.866 245.264 483.011 245.264C489.242 245.264 495.115 243.814 500.274 241.251" stroke="#263238" stroke-miterlimit="10" stroke-linecap="round" stroke-linejoin="round"/>
<path d="M451.594 228.909C452.08 229.636 452.596 230.344 453.136 231.033" stroke="#263238" stroke-miterlimit="10" stroke-linecap="round" stroke-linejoin="round"/>
<path d="M445.821 210.063C445.821 215.436 447.092 220.526 449.365 225.082" stroke="#263238" stroke-miterlimit="10" stroke-linecap="round" stroke-linejoin="round"/>
<path d="M537.589 219.696C537.589 219.696 530.958 215.062 520.202 219.264L537.589 219.696Z" fill="white"/>
<path d="M537.589 219.696C537.589 219.696 530.958 215.062 520.202 219.264" stroke="#263238" stroke-miterlimit="10" stroke-linecap="round" stroke-linejoin="round"/>
<path d="M531.882 222.919C529.346 223.671 525.091 224.54 518.128 225.079L531.882 222.919Z" fill="white"/>
<path d="M531.882 222.919C529.346 223.671 525.091 224.54 518.128 225.079" stroke="#263238" stroke-miterlimit="10" stroke-linecap="round" stroke-linejoin="round"/>
<path d="M535.328 221.455C535.328 221.455 534.927 221.808 533.67 222.308L535.328 221.455Z" fill="white"/>
<path d="M535.328 221.455C535.328 221.455 534.927 221.808 533.67 222.308" stroke="#263238" stroke-miterlimit="10" stroke-linecap="round" stroke-linejoin="round"/>
<path d="M541.221 181.009C541.091 180.56 540.938 180.123 540.796 179.674C538.539 172.678 535.631 164.996 532.098 156.889C531.448 155.388 530.763 153.864 530.077 152.327C529.805 152.351 529.545 152.375 529.285 152.398C525.894 152.741 522.325 153.166 519.536 155.093C516.735 157.055 515.08 161.084 516.888 163.98C518.661 166.852 523.305 168.447 522.573 171.72C514.998 175.987 505.756 175.49 497.33 177.641C492.26 178.929 487.462 181.21 483.255 184.283C483.243 184.283 483.243 184.295 483.231 184.295C481.896 185.299 480.608 186.363 479.402 187.509C478.87 188.017 478.315 188.573 477.842 189.187C477.83 189.199 477.83 189.199 477.83 189.211C477.133 190.097 476.601 191.09 476.495 192.213C476.2 195.368 479.071 197.519 482.132 198.89C482.699 199.15 482.664 199.965 482.085 200.166C480.088 200.97 478.138 201.903 476.566 203.357C476.554 203.357 476.542 203.369 476.53 203.38C475.561 204.255 476.353 205.898 477.677 205.72C477.819 205.697 477.996 205.685 478.15 205.673C479.449 205.579 480.667 205.732 481.719 206.099C483.527 206.737 484.791 207.966 484.921 209.478C485.11 211.877 482.38 214.04 478.835 214.312C477.972 214.395 478.634 215.423 479.899 215.636C482.416 216.085 484.98 215.6 487.462 215.021C490.428 214.312 493.595 213.284 495.274 210.743C495.983 209.668 496.195 208.261 495.983 206.985C495.687 205.236 494.588 203.711 492.839 203.534C498.323 202.884 503.759 201.797 509.053 200.284H509.065L510.731 199.776C512.315 199.303 513.981 198.724 515.305 197.779C516.132 197.188 516.817 196.491 517.302 195.581C518.531 193.205 516.794 189.447 514.17 189.944C521.793 186.954 529.853 185.205 537.558 182.451C538.787 182.002 540.016 181.529 541.221 181.009Z" fill="white"/>
<path d="M487.445 67.0332L90.9973 68.8413L96.9936 59.8562C99.8772 55.5356 104.728 52.9404 109.922 52.9404H468.659C473.363 52.9404 477.816 55.0712 480.766 58.7371L487.445 67.0332Z" fill="white" stroke="#263238" stroke-miterlimit="10" stroke-linecap="round" stroke-linejoin="round"/>
<path d="M296.131 228.906H274.409C252.119 228.906 234.049 210.836 234.049 188.545V166.823C234.049 144.533 252.118 126.463 274.409 126.463H296.131C318.422 126.463 336.491 144.532 336.491 166.823V188.545C336.491 210.836 318.421 228.906 296.131 228.906Z" fill="#757575" stroke="#263238" stroke-miterlimit="10" stroke-linecap="round" stroke-linejoin="round"/>
<path d="M252.669 186.335V200.898C252.669 205.468 256.374 209.172 260.942 209.172H310.892C315.439 209.172 319.122 205.503 319.165 200.956C319.228 194.404 319.578 186.335 319.578 186.335H252.669Z" fill="#999999" stroke="#263238" stroke-miterlimit="10" stroke-linecap="round" stroke-linejoin="round"/>
<path d="M435.494 191.202H143.351C140.267 191.202 137.498 189.309 136.378 186.434L91.3163 70.7875C90.138 67.7621 92.3692 64.498 95.6156 64.498H483.231C486.478 64.498 488.71 67.7621 487.53 70.7875L442.468 186.436C441.349 189.309 438.58 191.202 435.494 191.202Z" fill="#BFBFBF" stroke="#263238" stroke-miterlimit="10" stroke-linecap="round" stroke-linejoin="round"/>
<path d="M437.663 181.121H140.481L99.5878 71.824H478.364L437.663 181.121Z" fill="#263238"/>
<path d="M319.24 191.044H252.988V195.579H319.24V191.044Z" fill="#263238"/>
<path d="M394.251 176.428H184.395C183.241 176.428 182.142 175.905 181.938 175.256L152.088 80.4203C151.754 79.3567 152.685 78.4905 154.17 78.4905H424.475C425.961 78.4905 426.891 79.3567 426.557 80.4203L396.707 175.256C396.504 175.905 395.404 176.428 394.251 176.428Z" fill="#7F61DD"/>
<path d="M393.477 174.279H185.169L159.802 90.95H418.844L393.477 174.279Z" fill="#263238"/>
<path d="M215.068 111.638H175.632C174.658 111.638 174.019 112.164 174.203 112.809C174.388 113.453 175.32 113.975 176.288 113.975H215.496C216.464 113.975 217.155 113.453 217.04 112.809C216.925 112.163 216.041 111.638 215.068 111.638Z" fill="white"/>
<path d="M216.388 118.838H182.849C181.893 118.838 181.255 119.345 181.425 119.967C181.594 120.589 182.502 121.091 183.453 121.091H216.802C217.753 121.091 218.434 120.589 218.323 119.967C218.21 119.345 217.344 118.838 216.388 118.838Z" fill="white"/>
<path opacity="0.5" d="M217.663 125.787H179.606C178.667 125.787 178.044 126.276 178.216 126.877C178.388 127.478 179.284 127.962 180.218 127.962H218.064C218.999 127.962 219.669 127.478 219.561 126.877C219.452 126.276 218.603 125.787 217.663 125.787Z" fill="white"/>
<path d="M218.894 132.496H196.54C195.617 132.496 194.984 132.968 195.127 133.55C195.27 134.13 196.129 134.598 197.048 134.598H219.279C220.197 134.598 220.858 134.13 220.755 133.55C220.651 132.968 219.818 132.496 218.894 132.496Z" fill="white"/>
<path d="M220.084 138.978H183.311C182.404 138.978 181.797 139.435 181.958 139.996C182.118 140.556 182.979 141.009 183.882 141.009H220.456C221.359 141.009 222.01 140.556 221.909 139.996C221.809 139.435 220.991 138.978 220.084 138.978Z" fill="white"/>
<path d="M221.233 145.246H191.539C190.645 145.246 190.04 145.688 190.185 146.231C190.331 146.773 191.168 147.211 192.056 147.211H221.594C222.482 147.211 223.123 146.773 223.026 146.231C222.928 145.688 222.126 145.246 221.233 145.246Z" fill="white"/>
<path d="M222.345 151.308H193.135C192.257 151.308 191.659 151.736 191.8 152.262C191.941 152.787 192.762 153.21 193.635 153.21H222.693C223.566 153.21 224.199 152.786 224.105 152.262C224.012 151.736 223.224 151.308 222.345 151.308Z" fill="white"/>
<path d="M223.421 157.176H191.552C190.688 157.176 190.102 157.589 190.242 158.099C190.383 158.607 191.194 159.017 192.053 159.017H223.759C224.618 159.017 225.242 158.607 225.151 158.099C225.06 157.591 224.286 157.176 223.421 157.176Z" fill="white"/>
<path opacity="0.5" d="M224.463 162.859H203.878C203.027 162.859 202.436 163.26 202.558 163.754C202.678 164.245 203.463 164.644 204.309 164.644H224.791C225.637 164.644 226.251 164.245 226.164 163.754C226.075 163.26 225.314 162.859 224.463 162.859Z" fill="white"/>
<path opacity="0.5" d="M213.698 104.173H184.31C183.318 104.173 182.655 104.718 182.829 105.388C183.002 106.056 183.941 106.596 184.927 106.596H214.143C215.128 106.596 215.832 106.056 215.711 105.388C215.592 104.718 214.69 104.173 213.698 104.173Z" fill="white"/>
<path d="M212.278 96.4265H171.36C170.349 96.4265 169.692 96.9926 169.89 97.6875C170.087 98.3812 171.061 98.9413 172.065 98.9413H212.738C213.742 98.9413 214.456 98.3812 214.332 97.6875C214.208 96.9926 213.287 96.4265 212.278 96.4265Z" fill="white"/>
<path d="M225.474 168.364H191.565C190.728 168.364 190.16 168.753 190.295 169.23C190.431 169.706 191.216 170.092 192.049 170.092H225.79C226.623 170.092 227.23 169.706 227.145 169.23C227.06 168.753 226.31 168.364 225.474 168.364Z" fill="white"/>
<path opacity="0.5" d="M228.92 114.264H236.569L236.187 111.344H228.481L228.92 114.264Z" fill="white"/>
<path opacity="0.5" d="M229.987 121.371H237.502L237.132 118.554H229.564L229.987 121.371Z" fill="white"/>
<path opacity="0.5" d="M231.017 128.232H238.401L238.044 125.512H230.609L231.017 128.232Z" fill="white"/>
<path opacity="0.5" d="M232.013 134.859H239.271L238.926 132.231H231.618L232.013 134.859Z" fill="white"/>
<path opacity="0.5" d="M232.974 141.262H240.111L239.778 138.723H232.593L232.974 141.262Z" fill="white"/>
<path opacity="0.5" d="M233.905 147.455H240.923L240.601 144.999H233.536L233.905 147.455Z" fill="white"/>
<path opacity="0.5" d="M234.805 153.446H241.709L241.397 151.07H234.448L234.805 153.446Z" fill="white"/>
<path opacity="0.5" d="M235.676 159.246H242.47L242.167 156.944H235.33L235.676 159.246Z" fill="white"/>
<path opacity="0.5" d="M236.52 164.863H243.206L242.915 162.635H236.184L236.52 164.863Z" fill="white"/>
<path opacity="0.5" d="M227.813 106.896H235.603L235.206 103.868H227.358L227.813 106.896Z" fill="white"/>
<path opacity="0.5" d="M226.665 99.2532H234.601L234.188 96.1108H226.193L226.665 99.2532Z" fill="white"/>
<path opacity="0.5" d="M237.338 170.308H243.921L243.638 168.146H237.013L237.338 170.308Z" fill="white"/>
<path d="M277.644 158.099C277.627 157.589 278.314 157.176 279.179 157.176H392.416C393.28 157.176 393.86 157.589 393.711 158.099C393.564 158.606 392.747 159.017 391.887 159.017H279.231C278.37 159.017 277.66 158.607 277.644 158.099Z" fill="white"/>
<path d="M393.553 153.21H330.855C329.981 153.21 329.319 152.786 329.377 152.262C329.435 151.736 330.194 151.308 331.072 151.308H394.099C394.977 151.308 395.564 151.736 395.412 152.262C395.258 152.786 394.426 153.21 393.553 153.21Z" fill="white"/>
<path opacity="0.5" d="M315.973 153.21H296.468C295.595 153.21 294.893 152.786 294.901 152.262C294.909 151.736 295.628 151.308 296.506 151.308H316.113C316.991 151.308 317.671 151.736 317.629 152.262C317.588 152.786 316.847 153.21 315.973 153.21Z" fill="white"/>
<path d="M356.679 147.21H268.233C267.346 147.21 266.597 146.771 266.564 146.23C266.531 145.687 267.227 145.245 268.121 145.245H357.037C357.929 145.245 358.571 145.687 358.469 146.23C358.369 146.771 357.566 147.21 356.679 147.21Z" fill="white"/>
<path opacity="0.5" d="M249.74 145.246H256.045C256.937 145.246 257.7 145.688 257.746 146.231C257.792 146.773 257.109 147.211 256.221 147.211H249.951C249.062 147.211 248.294 146.773 248.234 146.231C248.172 145.687 248.847 145.246 249.74 145.246Z" fill="white"/>
<path d="M369.472 139.996C369.352 140.556 368.524 141.009 367.621 141.009H284.276C283.373 141.009 282.632 140.556 282.622 139.996C282.613 139.435 283.34 138.978 284.249 138.978H368.045C368.953 138.978 369.591 139.435 369.472 139.996Z" fill="white"/>
<path d="M249.072 138.978H272.725C273.633 138.978 274.387 139.435 274.409 139.996C274.431 140.556 273.716 141.009 272.814 141.009H249.288C248.385 141.009 247.603 140.556 247.54 139.996C247.479 139.435 248.164 138.978 249.072 138.978Z" fill="white"/>
<path d="M248.38 132.495H339.296C340.219 132.495 340.904 132.967 340.826 133.549C340.748 134.128 339.94 134.597 339.022 134.597H248.604C247.685 134.597 246.889 134.129 246.824 133.549C246.76 132.967 247.457 132.495 248.38 132.495Z" fill="white"/>
<path d="M307.408 127.961C306.473 127.961 305.737 127.477 305.762 126.876C305.786 126.275 306.57 125.786 307.509 125.786H355.483C356.422 125.786 357.099 126.275 356.994 126.876C356.89 127.477 356.048 127.961 355.114 127.961H307.408Z" fill="white"/>
<path d="M247.665 125.786H289.187C290.127 125.786 290.887 126.275 290.884 126.876C290.882 127.477 290.122 127.961 289.189 127.961H247.898C246.963 127.961 246.153 127.477 246.085 126.876C246.018 126.275 246.725 125.786 247.665 125.786Z" fill="white"/>
<path d="M402.77 121.091H288.49C287.539 121.091 286.764 120.589 286.761 119.967C286.757 119.345 287.529 118.838 288.485 118.838H403.416C404.372 118.838 405 119.345 404.819 119.967C404.638 120.589 403.721 121.091 402.77 121.091Z" fill="white"/>
<path d="M404.812 113.973H304.251C303.283 113.973 302.515 113.452 302.537 112.808C302.558 112.162 303.364 111.637 304.338 111.637H405.482C406.456 111.637 407.091 112.162 406.903 112.808C406.717 113.453 405.781 113.973 404.812 113.973Z" fill="white"/>
<path opacity="0.5" d="M406.929 106.596H385.872C384.887 106.596 384.212 106.056 384.367 105.388C384.522 104.718 385.452 104.173 386.443 104.173H407.625C408.617 104.173 409.262 104.718 409.067 105.388C408.872 106.056 407.915 106.596 406.929 106.596Z" fill="white"/>
<path d="M371.139 106.596H293.815C292.829 106.596 292.034 106.056 292.038 105.388C292.042 104.718 292.85 104.173 293.841 104.173H371.622C372.614 104.173 373.307 104.718 373.171 105.388C373.035 106.056 372.125 106.596 371.139 106.596Z" fill="white"/>
<path d="M251.618 162.858H323.024C323.874 162.858 324.524 163.259 324.475 163.753C324.426 164.244 323.7 164.642 322.854 164.642H251.808C250.962 164.642 250.232 164.244 250.178 163.753C250.123 163.26 250.767 162.858 251.618 162.858Z" fill="white"/>
<path d="M252.206 168.364H361.915C362.752 168.364 363.349 168.753 363.247 169.23C363.146 169.706 362.388 170.092 361.555 170.092H252.389C251.556 170.092 250.837 169.706 250.785 169.23C250.732 168.753 251.368 168.364 252.206 168.364Z" fill="white"/>
<path d="M367.303 98.9413H311.451C310.446 98.9413 309.659 98.3812 309.693 97.6875C309.728 96.9926 310.574 96.4265 311.584 96.4265H367.773C368.784 96.4265 369.495 96.9914 369.362 97.6875C369.228 98.3812 368.306 98.9413 367.303 98.9413Z" fill="white"/>
<path opacity="0.5" d="M295.607 98.9413H244.802C243.797 98.9413 242.921 98.3812 242.845 97.6875C242.768 96.9926 243.524 96.4265 244.533 96.4265H295.644C296.655 96.4265 297.463 96.9914 297.449 97.6875C297.436 98.3812 296.611 98.9413 295.607 98.9413Z" fill="white"/>
<path opacity="0.5" d="M338.868 162.858C339.719 162.858 340.35 163.259 340.279 163.753C340.208 164.244 339.465 164.642 338.619 164.642H333.1C332.254 164.642 331.615 164.244 331.675 163.753C331.734 163.26 332.471 162.858 333.322 162.858H338.868Z" fill="white"/>
<path opacity="0.5" d="M271.133 158.099C271.159 158.606 270.483 159.017 269.623 159.017H262.103C261.244 159.017 260.513 158.606 260.472 158.099C260.431 157.589 261.098 157.176 261.962 157.176H269.52C270.386 157.176 271.108 157.591 271.133 158.099Z" fill="white"/>
<path opacity="0.5" d="M361.842 133.549C361.732 134.128 360.899 134.597 359.981 134.597H351.191C350.272 134.597 349.601 134.129 349.693 133.549C349.785 132.967 350.608 132.495 351.532 132.495H360.371C361.292 132.495 361.952 132.967 361.842 133.549Z" fill="white"/>
<path opacity="0.5" d="M389.269 138.978C390.176 138.978 390.79 139.435 390.639 139.996C390.487 140.556 389.634 141.009 388.731 141.009H381.724C380.821 141.009 380.199 140.556 380.335 139.996C380.471 139.435 381.317 138.978 382.225 138.978H389.269Z" fill="white"/>
<path opacity="0.5" d="M274.648 121.091C273.696 121.091 272.905 120.589 272.879 119.967C272.853 119.345 273.608 118.838 274.564 118.838H282.023C282.979 118.838 283.762 119.345 283.771 119.967C283.779 120.589 283.016 121.091 282.065 121.091H274.648Z" fill="white"/>
<path d="M173.086 84.7032C173.664 86.639 172.547 88.1895 170.599 88.1895C168.65 88.1895 166.57 86.639 165.946 84.7032C165.314 82.7415 166.413 81.1331 168.408 81.1331C170.402 81.1331 172.501 82.7426 173.086 84.7032Z" fill="white"/>
<path d="M182.705 84.7614C183.22 86.696 182.054 88.2465 180.106 88.2465C178.159 88.2465 176.128 86.696 175.566 84.7614C174.996 82.8008 176.147 81.1924 178.142 81.1924C180.137 81.1924 182.183 82.8008 182.705 84.7614Z" fill="white"/>
<path d="M192.435 84.7032C192.887 86.639 191.67 88.1895 189.721 88.1895C187.772 88.1895 185.793 86.639 185.294 84.7032C184.788 82.7415 185.992 81.1331 187.988 81.1331C189.982 81.1331 191.976 82.7426 192.435 84.7032Z" fill="white"/>
<path opacity="0.1" d="M99.5877 71.824L131.436 156.944L169.854 71.824H99.5877Z" fill="white"/>
<path opacity="0.1" d="M153.321 181.121L217.053 71.824H283.771L189.973 181.121H153.321Z" fill="white"/>
<path opacity="0.1" d="M312.521 71.2861L213.185 181.121H228.481L331.383 71.8238L312.521 71.2861Z" fill="white"/>
<path opacity="0.1" d="M332.136 181.121L441.314 71.824H456.719L344.157 181.121H332.136Z" fill="white"/>
<path d="M184.112 228.561H159.182C155.945 228.561 153.321 231.184 153.321 234.421V246.551C153.321 249.788 155.945 252.412 159.182 252.412H165.698L170.635 263.603L177.596 252.412H184.112C187.349 252.412 189.973 249.788 189.973 246.551V234.421C189.973 231.184 187.349 228.561 184.112 228.561Z" fill="white" stroke="#263238" stroke-miterlimit="10" stroke-linecap="round" stroke-linejoin="round"/>
<path d="M168.182 235.499C168.182 234.861 168.698 234.361 169.397 234.361C170.095 234.361 170.612 234.831 170.612 235.454C170.612 236.123 170.111 236.64 169.397 236.64C168.698 236.637 168.182 236.136 168.182 235.499ZM168.441 237.974H170.339V246.082H168.441V237.974Z" fill="#263238"/>
<path d="M174.921 237.548V238.034H177.153V239.552H174.982V246.081H173.084V239.552H171.747V238.034H173.084V237.519C173.084 235.818 174.102 234.709 175.984 234.709C176.636 234.709 177.275 234.847 177.7 235.15L177.168 236.577C176.88 236.379 176.516 236.243 176.12 236.243C175.331 236.242 174.921 236.683 174.921 237.548Z" fill="#263238"/>
<path d="M260.002 230.259H235.071C231.834 230.259 229.21 232.883 229.21 236.119V248.249C229.21 251.486 231.834 254.11 235.071 254.11H241.587L246.525 265.301L253.485 254.11H260.002C263.239 254.11 265.862 251.486 265.862 248.249V236.119C265.862 232.883 263.239 230.259 260.002 230.259Z" fill="white" stroke="#263238" stroke-miterlimit="10" stroke-linecap="round" stroke-linejoin="round"/>
<path d="M240.311 244.334H233.949C234.177 245.518 235.164 246.278 236.576 246.278C237.488 246.278 238.2 245.99 238.778 245.397L239.796 246.567C239.066 247.43 237.928 247.887 236.532 247.887C233.813 247.887 232.053 246.14 232.053 243.726C232.053 241.312 233.829 239.581 236.243 239.581C238.611 239.581 240.343 241.236 240.343 243.772C240.34 243.923 240.326 244.152 240.311 244.334ZM233.934 243.074H238.535C238.383 241.904 237.488 241.1 236.242 241.1C235.012 241.1 234.116 241.889 233.934 243.074Z" fill="#263238"/>
<path d="M242.158 236.514H244.056V247.78H242.158V236.514Z" fill="#263238"/>
<path d="M245.617 246.975L246.346 245.533C247.06 246.003 248.153 246.337 249.171 246.337C250.37 246.337 250.871 246.004 250.871 245.442C250.871 243.892 245.861 245.351 245.861 242.116C245.861 240.583 247.242 239.581 249.428 239.581C250.506 239.581 251.736 239.84 252.465 240.279L251.736 241.721C250.962 241.266 250.188 241.114 249.414 241.114C248.26 241.114 247.714 241.493 247.714 242.025C247.714 243.665 252.724 242.207 252.724 245.38C252.724 246.899 251.327 247.885 249.05 247.885C247.697 247.887 246.346 247.492 245.617 246.975Z" fill="#263238"/>
<path d="M261.95 244.334H255.589C255.817 245.518 256.804 246.278 258.216 246.278C259.127 246.278 259.84 245.99 260.418 245.397L261.435 246.567C260.706 247.43 259.568 247.887 258.171 247.887C255.453 247.887 253.692 246.14 253.692 243.726C253.692 241.312 255.468 239.581 257.883 239.581C260.251 239.581 261.982 241.236 261.982 243.772C261.98 243.923 261.965 244.152 261.95 244.334ZM255.574 243.074H260.174C260.023 241.904 259.127 241.1 257.882 241.1C256.651 241.1 255.754 241.889 255.574 243.074Z" fill="#263238"/>
<path d="M333.579 229.539H308.649C305.412 229.539 302.788 232.163 302.788 235.4V247.53C302.788 250.766 305.412 253.39 308.649 253.39H315.165L320.102 264.582L327.063 253.39H333.579C336.816 253.39 339.44 250.766 339.44 247.53V235.4C339.44 232.163 336.816 229.539 333.579 229.539Z" fill="white" stroke="#263238" stroke-miterlimit="10" stroke-linecap="round" stroke-linejoin="round"/>
<path d="M314.366 238.528V239.014H316.598V240.532H314.427V247.061H312.528V240.532H311.193V239.014H312.528V238.499C312.528 236.798 313.546 235.689 315.428 235.689C316.082 235.689 316.72 235.827 317.144 236.13L316.613 237.557C316.325 237.359 315.96 237.223 315.565 237.223C314.777 237.222 314.366 237.663 314.366 238.528Z" fill="#263238"/>
<path d="M317.082 243.007C317.082 240.579 318.904 238.863 321.393 238.863C323.914 238.863 325.72 240.579 325.72 243.007C325.72 245.437 323.914 247.167 321.393 247.167C318.904 247.167 317.082 245.437 317.082 243.007ZM323.807 243.007C323.807 241.459 322.775 240.471 321.393 240.471C320.027 240.471 318.995 241.459 318.995 243.007C318.995 244.556 320.027 245.542 321.393 245.542C322.775 245.542 323.807 244.556 323.807 243.007Z" fill="#263238"/>
<path d="M332.228 238.863V240.67C332.06 240.64 331.924 240.625 331.788 240.625C330.345 240.625 329.434 241.474 329.434 243.13V247.062H327.537V238.954H329.343V240.139C329.89 239.288 330.877 238.863 332.228 238.863Z" fill="#263238"/>
<path d="M406.094 228.561H381.163C377.926 228.561 375.302 231.184 375.302 234.421V246.551C375.302 249.788 377.926 252.412 381.163 252.412H387.679L392.617 263.603L399.577 252.412H406.094C409.331 252.412 411.954 249.788 411.954 246.551V234.421C411.954 231.184 409.331 228.561 406.094 228.561Z" fill="white" stroke="#263238" stroke-miterlimit="10" stroke-linecap="round" stroke-linejoin="round"/>
<path d="M390.389 237.574H397.389V239.093H390.389V237.574ZM390.389 241.248H397.389V242.767H390.389V241.248Z" fill="#263238"/>
<path d="M222.114 214.522H197.183C193.946 214.522 191.323 217.146 191.323 220.383V232.512C191.323 235.749 193.946 238.373 197.183 238.373H203.699L208.637 249.564L215.598 238.373H222.114C225.351 238.373 227.974 235.749 227.974 232.512V220.383C227.974 217.146 225.351 214.522 222.114 214.522Z" fill="white" stroke="#263238" stroke-miterlimit="10" stroke-linecap="round" stroke-linejoin="round"/>
<path d="M203.783 219.564H207.413V221.083H205.681V232.258H207.413V233.776H203.783V219.564Z" fill="#263238"/>
<path d="M212.114 233.776V232.258H213.83V221.083H212.114V219.564H215.728V233.776H212.114Z" fill="#263238"/>
<path d="M296.236 213.283H271.306C268.069 213.283 265.445 215.906 265.445 219.143V231.273C265.445 234.51 268.069 237.133 271.306 237.133H277.822L282.759 248.325L289.72 237.133H296.236C299.473 237.133 302.097 234.51 302.097 231.273V219.143C302.097 215.906 299.473 213.283 296.236 213.283Z" fill="white" stroke="#263238" stroke-miterlimit="10" stroke-linecap="round" stroke-linejoin="round"/>
<path d="M278.698 225.38C279.305 225.577 279.594 225.987 279.594 226.929V229.814C279.594 230.543 279.959 230.967 280.717 230.967H281.036V232.486H280.277C278.562 232.486 277.696 231.621 277.696 230.011V226.883C277.696 226.382 277.437 226.154 277.012 226.154H276.511V224.604H277.012C277.437 224.604 277.696 224.377 277.696 223.875V220.748C277.696 219.138 278.561 218.273 280.277 218.273H281.036V219.792H280.717C279.958 219.792 279.594 220.217 279.594 220.947V223.831C279.592 224.772 279.304 225.182 278.698 225.38Z" fill="#263238"/>
<path d="M290.275 224.605V226.155H289.759C289.349 226.155 289.091 226.383 289.091 226.884V230.012C289.091 231.622 288.211 232.487 286.495 232.487H285.736V230.968H286.055C286.829 230.968 287.195 230.544 287.195 229.815V226.93C287.195 225.989 287.466 225.579 288.075 225.381C287.466 225.183 287.195 224.773 287.195 223.831V220.947C287.195 220.217 286.829 219.792 286.055 219.792H285.736V218.273H286.495C288.211 218.273 289.091 219.138 289.091 220.748V223.875C289.091 224.376 289.35 224.604 289.759 224.604H290.275V224.605Z" fill="#263238"/>
<path d="M369.573 210.825H344.642C341.405 210.825 338.782 213.448 338.782 216.685V228.815C338.782 232.052 341.405 234.675 344.642 234.675H351.159L356.096 245.867L363.057 234.675H369.573C372.81 234.675 375.434 232.052 375.434 228.815V216.685C375.434 213.448 372.81 210.825 369.573 210.825Z" fill="white" stroke="#263238" stroke-miterlimit="10" stroke-linecap="round" stroke-linejoin="round"/>
<path d="M356.116 219.803C356.116 219.044 356.679 218.543 357.362 218.543C358.045 218.543 358.607 219.044 358.607 219.803C358.607 220.532 358.045 221.063 357.362 221.063C356.679 221.063 356.116 220.532 356.116 219.803ZM358.607 225.588C358.607 225.922 358.531 226.195 358.258 226.893L357.484 229.034H356.254L356.862 226.71C356.438 226.528 356.148 226.134 356.148 225.586C356.148 224.828 356.679 224.327 357.377 224.327C358.091 224.327 358.607 224.843 358.607 225.588Z" fill="#263238"/>
<path d="M272.101 422.884H297.032C300.268 422.884 302.892 420.261 302.892 417.024V404.894C302.892 401.657 300.268 399.033 297.032 399.033H290.515L288.613 387.842L278.617 399.033H272.101C268.864 399.033 266.24 401.657 266.24 404.894V417.024C266.24 420.261 268.865 422.884 272.101 422.884Z" fill="white" stroke="#263238" stroke-miterlimit="10" stroke-linecap="round" stroke-linejoin="round"/>
<path d="M280.865 408.466L275.627 410.424L280.865 412.383V413.963L273.865 411.245V409.604L280.865 406.886V408.466Z" fill="#263238"/>
<path d="M286.387 402.954H288.088L283.078 417.259H281.378L286.387 402.954Z" fill="#263238"/>
<path d="M295.448 409.606V411.246L288.449 413.964V412.384L293.687 410.426L288.449 408.468V406.889L295.448 409.606Z" fill="#263238"/>
<path d="M113.601 334.552H138.532C141.769 334.552 144.393 331.928 144.393 328.691V316.561C144.393 313.324 141.769 310.701 138.532 310.701H132.016L133.435 299.509L120.116 310.701H113.6C110.363 310.701 107.74 313.324 107.74 316.561V328.691C107.741 331.928 110.364 334.552 113.601 334.552Z" fill="white" stroke="#263238" stroke-miterlimit="10" stroke-linecap="round" stroke-linejoin="round"/>
<path d="M120.992 326.859C120.992 326.206 121.509 325.69 122.222 325.69C122.921 325.69 123.422 326.207 123.422 326.859C123.422 327.513 122.921 328.043 122.222 328.043C121.509 328.043 120.992 327.513 120.992 326.859ZM121.099 317.309H123.345L122.966 324.415H121.463L121.099 317.309Z" fill="#263238"/>
<path d="M125.302 320.027H132.302V321.545H125.302V320.027ZM125.302 323.7H132.302V325.219H125.302V323.7Z" fill="#263238"/>
<path d="M494.336 308.353C494.336 313.222 493.932 317.939 493.185 322.377C489.758 342.826 479.01 357.747 466.288 357.747C465.15 357.747 464.012 357.621 462.911 357.393C449.027 354.446 438.252 333.619 438.252 308.352C438.252 281.075 450.809 271.427 466.288 271.427C481.779 271.428 494.336 281.077 494.336 308.353Z" fill="white"/>
<mask id="mask4_2018_2" style="mask-type:luminance" maskUnits="userSpaceOnUse" x="438" y="271" width="57" height="87">
<path d="M494.336 308.353C494.336 313.222 493.932 317.939 493.185 322.377C489.758 342.826 479.01 357.747 466.288 357.747C465.15 357.747 464.012 357.621 462.911 357.393C449.027 354.446 438.252 333.619 438.252 308.352C438.252 281.075 450.809 271.427 466.288 271.427C481.779 271.428 494.336 281.077 494.336 308.353Z" fill="white"/>
</mask>
<g mask="url(#mask4_2018_2)">
<path opacity="0.5" d="M484.172 308.665C485.216 323.292 482.7 337.997 478.485 352.042C489.049 343.374 493.91 329.736 498.3 316.796C501.489 307.398 504.72 297.71 504.145 287.803C503.57 277.896 498.261 267.591 488.965 264.118C484.423 262.421 479.135 262.546 474.639 264.349C466.848 267.474 471.113 270.012 474.383 275.606C480.237 285.623 483.35 297.136 484.172 308.665Z" fill="white"/>
</g>
<path d="M494.336 308.353C494.336 313.222 493.932 317.939 493.185 322.377C489.758 342.826 479.01 357.747 466.288 357.747C465.15 357.747 464.012 357.621 462.911 357.393C449.027 354.446 438.252 333.619 438.252 308.352C438.252 281.075 450.809 271.427 466.288 271.427C481.779 271.428 494.336 281.077 494.336 308.353Z" stroke="#263238" stroke-miterlimit="10"/>
<path d="M481.353 333.449C479.48 339.744 476.373 345.666 472.157 350.704L481.353 333.449Z" fill="white"/>
<path d="M481.353 333.449C479.48 339.744 476.373 345.666 472.157 350.704" stroke="#263238" stroke-miterlimit="10"/>
<path d="M482.246 330.013C482.097 330.681 481.935 331.345 481.76 332.005" stroke="#263238" stroke-miterlimit="10"/>
<path d="M482.174 308.289C483.669 314.581 483.815 321.159 482.731 327.531L482.174 308.289Z" fill="white"/>
<path d="M482.174 308.289C483.669 314.581 483.815 321.159 482.731 327.531" stroke="#263238" stroke-miterlimit="10"/>
<path d="M438.25 308.355C438.25 308.355 470.122 295.754 494.329 308.355" stroke="#263238" stroke-miterlimit="10"/>
<path d="M466.29 271.428C466.29 271.428 469.482 283.249 469.851 302.467L466.29 271.428Z" fill="white"/>
<path d="M466.29 271.428C466.29 271.428 469.482 283.249 469.851 302.467" stroke="#263238" stroke-miterlimit="10"/>
<path d="M470.739 285.805C471.147 289.478 470.512 292.609 469.318 292.798C468.124 292.987 466.825 290.162 466.414 286.488C466.006 282.815 466.641 279.683 467.835 279.495C469.03 279.308 470.328 282.132 470.739 285.805Z" fill="#BFBFBF" stroke="#263238" stroke-miterlimit="10" stroke-linecap="round" stroke-linejoin="round"/>
</svg>
