<svg width="290" height="290" viewBox="0 0 290 290" fill="none" xmlns="http://www.w3.org/2000/svg">
<path d="M183.784 103L146.57 164H144.738L181.952 103H183.784ZM168.803 138.82C170.981 136.384 173.956 135.165 177.728 135.165C181.5 135.165 184.475 136.384 186.653 138.82C188.884 141.203 190 144.479 190 148.649C190 152.926 188.911 156.311 186.733 158.802C184.555 161.238 181.606 162.457 177.888 162.457C174.009 162.457 170.981 161.266 168.803 158.883C166.678 156.446 165.616 153.089 165.616 148.811C165.616 144.587 166.678 141.257 168.803 138.82ZM151.192 104.381C154.964 104.381 157.939 105.626 160.117 108.117C162.348 110.554 163.464 113.884 163.464 118.108C163.464 122.223 162.322 125.554 160.038 128.099C157.806 130.59 154.831 131.835 151.113 131.835C147.341 131.835 144.366 130.617 142.188 128.18C140.063 125.743 139 122.359 139 118.027C139 113.857 140.089 110.554 142.267 108.117C144.498 105.626 147.473 104.381 151.192 104.381ZM185.697 139.876C183.784 137.71 181.128 136.627 177.728 136.627C174.328 136.627 171.698 137.683 169.839 139.795C168.033 141.907 167.13 144.966 167.13 148.973C167.13 152.818 168.059 155.796 169.919 157.908C171.778 160.02 174.408 161.076 177.808 161.076C181.155 161.076 183.784 159.966 185.697 157.746C187.609 155.471 188.566 152.412 188.566 148.567C188.566 144.885 187.609 141.988 185.697 139.876ZM151.192 106.005C147.845 106.005 145.216 107.088 143.303 109.254C141.391 111.42 140.434 114.399 140.434 118.189C140.434 122.034 141.364 125.012 143.223 127.124C145.083 129.236 147.713 130.292 151.113 130.292C154.406 130.292 157.036 129.182 159.002 126.962C160.967 124.741 161.95 121.763 161.95 118.027C161.95 114.236 160.994 111.285 159.081 109.173C157.222 107.061 154.592 106.005 151.192 106.005Z" fill="#8941FB"/>
<circle opacity="0.16" cx="164.967" cy="128.849" r="68.0459" stroke="#8941FB"/>
<path opacity="0.24" fill-rule="evenodd" clip-rule="evenodd" d="M103.512 176.501C92.9395 162.866 87.2015 146.102 87.2015 128.848L164.968 128.848L155.791 114.342L164.971 128.848L106.646 128.848C106.646 141.789 110.95 154.362 118.879 164.589C126.809 174.815 137.915 182.114 150.448 185.336C162.982 188.559 176.23 187.521 188.109 182.387C199.988 177.253 209.822 168.315 216.064 156.979C222.305 145.642 224.599 132.553 222.585 119.769C220.571 106.986 214.362 95.2362 204.937 86.3687C195.512 77.5013 183.406 72.0201 170.524 70.7881C157.643 69.5562 144.719 72.6424 133.785 79.5608L123.389 63.13C137.97 53.9049 155.205 49.7908 172.38 51.4353C189.556 53.0798 205.697 60.3894 218.262 72.2136C230.827 84.0378 239.104 99.705 241.788 116.749C244.473 133.793 241.413 151.245 233.09 166.359C224.767 181.474 211.655 193.391 195.816 200.235C179.978 207.079 162.313 208.462 145.603 204.165C128.892 199.868 114.085 190.136 103.512 176.501Z" fill="#8941FB"/>
<path fill-rule="evenodd" clip-rule="evenodd" d="M97.4233 33.7473C111.08 24.0482 126.665 17.404 143.119 14.2666L147.489 37.1839C134.411 39.6777 122.017 44.9411 111.139 52.6225C100.149 60.3829 90.9673 70.4278 84.2227 82.0686C77.4781 93.7094 73.3302 106.671 72.0633 120.065C70.7964 133.458 72.4404 146.968 76.8828 159.667C81.3251 172.366 88.4607 183.954 97.8004 193.637C107.14 203.321 118.463 210.87 130.993 215.768C143.524 220.666 156.965 222.797 170.395 222.015C183.542 221.249 196.374 217.71 208.049 211.634L218.819 232.328C203.961 240.061 187.611 244.503 170.883 245.352C154.154 246.202 137.438 243.438 121.873 237.25C106.308 231.062 92.2579 221.594 80.6788 209.491C69.0996 197.387 60.2628 182.932 54.7696 167.108C49.2763 151.284 47.2553 134.463 48.844 117.788C50.4327 101.113 55.594 84.9763 63.9767 70.4745C72.3593 55.9727 83.7669 43.4463 97.4233 33.7473Z" fill="#8941FB"/>
</svg>
