<svg width="263" height="75" viewBox="0 0 263 75" fill="none" xmlns="http://www.w3.org/2000/svg">
<path d="M68.3699 0H80.4343V74.4847H68.3699V0Z" fill="white"/>
<path d="M122.397 50.8804C122.397 62.4203 112.956 63.4694 109.809 63.4694C102.465 63.4694 101.416 56.6504 101.416 52.9786V24.1289H89.3515V52.4541C89.3515 59.2731 91.4496 65.5675 95.6459 69.2393C99.3177 72.9111 104.039 74.4847 109.809 74.4847C114.005 74.4847 119.25 73.4356 122.397 70.2884V74.4847H134.462V24.1289H122.397V50.8804Z" fill="white"/>
<path d="M158.066 5.77002H146.002V24.1289H137.085V35.6688H146.002V74.4847H158.066V35.6688H166.983V24.1289H158.066V5.77002Z" fill="white"/>
<path d="M204.75 59.2733C202.128 61.3715 198.456 62.9451 194.784 62.9451C186.391 62.9451 180.621 56.6506 180.621 48.258C180.621 39.8653 186.391 34.0954 194.784 34.0954C198.456 34.0954 202.128 35.1445 204.75 37.7672L206.324 39.3408L214.717 31.4727L212.618 29.8991C207.897 25.7028 201.603 23.0801 194.784 23.0801C180.097 23.0801 169.082 34.0954 169.082 48.7825C169.082 63.4696 180.097 74.485 194.784 74.485C201.603 74.485 207.897 71.8623 212.618 67.666L214.717 66.0923L206.324 57.6997L204.75 59.2733Z" fill="white"/>
<path d="M257.204 28.3252C253.532 24.6534 249.861 23.0798 244.091 23.0798C239.894 23.0798 235.698 24.1288 232.551 27.2761V0H220.486V74.4847H232.551V46.6841C232.551 35.1442 240.419 34.0951 243.566 34.0951C250.91 34.0951 250.385 40.9141 250.385 44.5859V73.9601H262.45V45.1104C262.45 38.2914 260.876 31.9969 257.204 28.3252Z" fill="white"/>
<path d="M194.259 57.1749C198.895 57.1749 202.652 53.4174 202.652 48.7823C202.652 44.1472 198.895 40.3896 194.259 40.3896C189.624 40.3896 185.867 44.1472 185.867 48.7823C185.867 53.4174 189.624 57.1749 194.259 57.1749Z" fill="#EF4335"/>
<path d="M51.5846 56.1257C47.3883 60.322 41.0938 62.9447 34.2748 62.9447C21.1613 62.9447 11.7196 52.4539 11.7196 38.2913C11.7196 24.1287 21.1613 13.6379 34.7993 13.6379C41.0938 13.6379 47.3883 16.2606 52.1091 20.9815L53.6828 22.5551L61.5509 14.687L59.9772 13.1134C53.1582 6.29438 44.241 2.6226 34.7993 2.6226C14.8668 2.09806 0.179688 17.8343 0.179688 38.2913C0.179688 58.7484 14.8668 74.4846 34.2748 74.4846C43.7165 74.4846 53.1582 70.8128 59.4527 63.9938L61.0263 62.4202L53.1582 54.5521L51.5846 56.1257Z" fill="white"/>
</svg>
