<svg width="356" height="53" viewBox="0 0 356 53" fill="none" xmlns="http://www.w3.org/2000/svg">
<path d="M21.7865 18.5896C21.7865 18.5896 18.8264 18.2936 18.8264 20.8985V32.5613H38.2448V36.0543C38.2448 36.0543 38.304 37.7712 36.4687 37.7712H18.8264V52.927H40.0209C40.0209 52.927 52.8678 50.9733 52.9862 37.7712V18.5896H21.7865ZM52.3942 0H14.1494C0.296013 3.25613 0 14.623 0 14.623V52.9862H14.6822V18.0567C14.6822 15.0966 17.6423 14.5638 17.6423 14.5638H52.335L52.3942 0ZM102.894 41.9745C101.887 42.6258 101.118 43.1586 100.585 43.4546C98.6905 44.6387 96.9144 45.5267 95.2567 46.2371C92.8294 47.2436 90.6982 47.7172 88.7445 47.7172C82.1138 47.7172 76.608 45.7043 72.227 41.6193C67.7868 37.5344 65.5963 32.3837 65.5963 26.2267C65.5963 20.2472 67.55 15.0966 71.5758 10.6564C75.5423 6.27546 80.3969 4.08497 86.0804 4.08497C88.4485 4.08497 90.9942 4.49939 93.5991 5.32822C97.0328 6.39387 99.7561 8.05153 102.006 10.1236L98.2169 14.327C96.6184 12.7285 94.4871 11.6037 92.0598 10.8932C90.2245 10.3604 88.2116 10.0644 85.962 10.0644C81.9954 10.0644 78.6208 11.6629 75.8975 14.8598C73.2334 18.1159 71.8718 21.9049 71.8718 26.4043C71.8718 30.8445 73.411 34.515 76.4896 37.416C79.5681 40.3169 83.4755 41.7969 88.2117 41.7969C90.1653 41.7969 92.1782 41.1457 94.2503 39.9617C95.9672 38.6592 96.8552 38.008 96.8552 38.008V28.7724H84.0083L85.8436 23.0298H102.894V41.9745ZM141.553 30.7261C141.553 35.1663 139.955 39.0144 136.817 42.2706C133.679 45.5267 129.772 47.1844 125.095 47.1844C120.773 47.1844 117.043 45.5859 113.787 42.389C110.531 39.192 108.933 35.3439 108.933 30.7853C108.933 26.2859 110.472 22.4377 113.55 19.1224C116.629 15.8071 120.418 14.2086 124.799 14.2086C129.713 14.2086 133.679 15.807 136.817 18.9448C139.955 22.0233 141.553 25.9899 141.553 30.7261ZM135.574 30.8445C135.574 27.8251 134.567 25.2794 132.554 23.2074C130.541 21.0761 128.055 20.0696 125.036 20.0696C122.253 20.0696 119.885 21.1353 117.872 23.3258C115.918 25.4571 114.912 27.9436 114.912 30.7261C114.912 33.627 115.918 36.1135 117.872 38.1856C119.826 40.2577 122.312 41.3233 125.272 41.3233C128.055 41.3233 130.423 40.3169 132.436 38.2448C134.567 36.1135 135.574 33.627 135.574 30.8445ZM179.739 30.7261C179.739 35.1663 178.14 39.0144 175.002 42.2706C171.865 45.5267 167.957 47.1844 163.28 47.1844C158.959 47.1844 155.229 45.5859 151.973 42.389C148.717 39.192 147.118 35.3439 147.118 30.7853C147.118 26.2859 148.657 22.4377 151.736 19.1224C154.814 15.8071 158.603 14.2086 162.984 14.2086C167.898 14.2086 171.865 15.807 175.002 18.9448C178.14 22.0233 179.739 25.9899 179.739 30.7261ZM173.7 30.8445C173.7 27.8251 172.694 25.2794 170.681 23.2074C168.668 21.0761 166.181 20.0696 163.162 20.0696C160.379 20.0696 158.011 21.1353 155.998 23.3258C154.045 25.4571 153.038 27.9436 153.038 30.7261C153.038 33.627 154.045 36.1135 155.998 38.1856C157.952 40.2577 160.439 41.3233 163.399 41.3233C166.181 41.3233 168.549 40.3169 170.562 38.2448C172.694 36.1135 173.7 33.627 173.7 30.8445ZM215.023 46.2963L209.517 47.1251V41.7969L208.333 43.1586C207.268 44.165 206.084 44.9347 204.84 45.5859C202.946 46.4739 200.933 46.8883 198.861 46.8883C194.539 46.8883 190.869 45.2899 187.909 42.1521C184.948 39.0144 183.409 35.1662 183.409 30.7853C183.409 26.2267 184.889 22.3193 187.849 19.1224C190.809 15.8663 194.362 14.2678 198.683 14.2678C201.17 14.2678 203.301 14.6822 205.077 15.4518C206.38 16.0439 207.445 16.8135 208.393 17.7607C208.689 18.1751 208.985 18.5896 209.34 19.004V4.973L215.201 4.14417L215.023 46.2963ZM209.873 31.1405C209.873 28.0028 208.807 25.3386 206.676 23.2074C204.544 21.0169 202.117 19.9512 199.335 19.9512C196.256 19.9512 193.829 20.9577 191.934 23.0298C190.158 24.9834 189.27 27.4107 189.27 30.2524C189.27 33.4494 190.217 36.1135 192.053 38.1856C193.888 40.2577 196.197 41.2641 199.098 41.2641C201.88 41.2641 204.367 40.3169 206.557 38.3632C208.748 36.4095 209.873 33.9822 209.873 31.1405ZM246.045 10.7748H229.587V21.9641H242.375V27.7068H229.587V46.2371L223.193 47.1844V4.973H244.802L246.045 10.7748ZM259.248 7.51871L255.281 12.4917L251.492 7.51871L255.459 2.6049L259.248 7.51871ZM258.063 46.2963L252.202 47.1251V15.8663L258.063 14.9782V46.2963ZM284.586 14.623L281.804 21.0169C281.448 20.9577 281.093 20.9577 280.679 20.9577C280.087 20.9577 279.554 21.0169 278.962 21.0761C278.37 21.1353 277.778 21.3721 277.127 21.7273C275.883 22.2601 274.818 23.4442 273.93 25.161C272.923 27.1739 272.39 29.3644 272.39 31.6141V46.2371L266.529 47.1844V15.8663L271.976 14.8598V21.3721C272.686 20.2472 273.397 19.1224 274.107 17.9383C275.114 16.7543 276.298 15.9255 277.6 15.3926C278.311 15.0966 279.554 14.919 281.508 14.7414C283.402 14.623 284.468 14.5638 284.586 14.623ZM328.396 46.2963L322.535 47.1251V25.6939C322.535 23.7402 322.121 22.2601 321.232 21.3721C320.344 20.484 319.042 20.0104 317.325 20.0104C315.253 20.0104 313.714 20.8393 312.648 22.5561C311.938 23.7402 311.523 24.9834 311.523 26.2267V46.1779L305.662 47.2436V25.7531C305.662 23.8586 305.248 22.4377 304.36 21.4313C303.472 20.4248 302.347 19.9512 300.867 19.9512H300.275C298.203 19.9512 296.723 20.7801 295.775 22.5561C295.065 23.8586 294.71 25.5162 294.71 27.5291V46.1187L288.612 47.1844V15.7478L294.118 14.8006V18.8264C294.71 17.8791 295.361 17.1095 295.894 16.5767C297.492 15.0966 299.328 14.3862 301.4 14.3862C303.709 14.3862 305.425 14.7414 306.609 15.511C307.616 16.1623 308.563 17.4055 309.57 19.1816C311.582 15.9847 314.424 14.3862 318.213 14.3862C321.825 14.3862 324.489 15.511 326.265 17.8199C327.686 19.7144 328.396 22.4969 328.396 26.1083V46.2963ZM355.215 36.8239C355.215 39.7248 354.208 42.0929 352.195 43.9282C350.182 45.8227 347.637 46.7107 344.558 46.7107C342.249 46.7107 340.177 46.1779 338.283 45.1123C336.388 44.0466 334.967 42.8034 334.079 41.3825L338.224 37.712C338.52 38.1856 338.816 38.5408 339.052 38.7776C340.592 40.3761 342.427 41.1457 344.558 41.1457C346.038 41.1457 347.222 40.7313 348.051 39.9617C348.939 39.192 349.354 38.1264 349.354 36.7055C349.354 35.107 348.347 34.0414 346.334 33.4494C342.368 32.2653 340.177 31.5549 339.881 31.4365C338.046 30.4893 336.744 29.4828 335.915 28.358C334.967 27.0555 334.494 25.3386 334.494 23.1482C334.494 20.4248 335.5 18.2344 337.454 16.3991C339.408 14.623 341.776 13.735 344.499 13.735C346.571 13.735 348.466 14.2086 350.242 15.1558C352.018 16.1031 353.261 17.1095 354.031 18.2344L350.538 22.0233C350.005 21.4905 349.413 21.0169 348.821 20.6025C347.4 19.596 346.038 19.1224 344.795 19.1224C343.552 19.1224 342.545 19.4184 341.776 19.9512C340.828 20.6025 340.355 21.6089 340.355 22.9113C340.355 24.1546 340.769 25.1018 341.717 25.6939C342.486 26.1675 344.144 26.7003 346.808 27.2923C349.413 27.9436 351.485 29.0092 352.906 30.5485C354.563 32.2061 355.215 34.219 355.215 36.8239Z" fill="#3A7AF3"/>
</svg>
