<svg width="215" height="96" viewBox="0 0 215 96" fill="none" xmlns="http://www.w3.org/2000/svg">
<g clip-path="url(#clip0_15_608)">
<path d="M50.5288 67.6306V83.3351H45.4759V44.8338H58.6134C61.8978 44.8338 64.6769 45.847 67.2033 48.1267C69.4771 50.4064 70.7403 52.9393 70.7403 56.2322C70.7403 59.5251 69.4771 62.3114 67.2033 64.3378C64.9295 66.6174 62.1504 67.6306 58.6134 67.6306H50.5288ZM50.5288 49.3932V62.818H58.866C60.8872 62.818 62.4031 62.0581 63.6663 60.7916C64.9295 59.5251 65.6874 58.0053 65.6874 55.9789C65.6874 54.2058 64.9295 52.686 63.6663 51.4195C62.4031 50.1531 60.6345 49.3932 58.866 49.3932H50.5288Z" fill="white"/>
<path d="M83.8778 55.9789C87.4148 55.9789 90.4465 56.9921 92.4677 59.0185C94.4888 61.0449 95.7521 63.5779 95.7521 67.1241V83.3351H90.9518V79.789H90.6992C88.678 82.8285 85.8989 84.3483 82.6146 84.3483C79.8355 84.3483 77.309 83.5884 75.2879 81.8154C73.2667 80.0423 72.2562 78.0159 72.2562 75.4829C72.2562 72.6966 73.2667 70.6702 75.2879 68.8972C77.309 67.3774 80.0881 66.3642 83.6251 66.3642C86.6569 66.3642 88.9307 66.8708 90.9518 67.884V66.8708C90.9518 65.0977 90.1939 63.5779 88.9307 62.5647C87.6675 61.2982 85.8989 60.7916 84.1304 60.7916C81.3514 60.7916 79.0776 62.0581 77.5617 64.3378L73.2667 61.2982C75.7932 57.752 79.3302 55.9789 83.8778 55.9789ZM77.5617 75.2296C77.5617 76.4961 78.067 77.5093 79.0776 78.5225C80.0881 79.2824 81.3514 79.789 82.8672 79.789C84.8884 79.789 86.9095 79.0291 88.4254 77.5093C89.9412 75.9895 90.9518 74.2164 90.9518 72.19C89.436 70.9235 87.1622 70.4169 84.6357 70.4169C82.6146 70.4169 80.8461 70.9235 79.5828 71.9367C78.3196 72.4433 77.5617 73.7098 77.5617 75.2296Z" fill="white"/>
<path d="M101.31 56.9921H106.11V61.2982H106.363C107.879 58.0053 110.911 56.2322 115.458 56.2322H116.469V61.2982L114.195 61.0449C111.921 61.0449 109.9 61.8048 108.637 63.0713C107.121 64.5911 106.363 66.3642 106.363 68.3906V82.8285H101.31V56.9921ZM132.133 83.5884C130.112 83.5884 128.09 82.8285 126.827 81.5621C125.311 80.2956 124.806 78.2692 124.553 75.9895V61.2982H120.006V56.7388H124.553V48.6333H129.606V56.7388H135.922V61.2982H129.606V74.4697C129.606 76.2428 129.859 77.5093 130.617 78.0159C131.375 78.5225 132.133 79.0291 132.891 79.0291C133.396 79.0291 133.649 79.0291 134.154 78.7758C134.407 78.7758 134.912 78.5225 135.165 78.5225L136.68 82.8285C135.417 83.3351 133.901 83.5884 132.133 83.5884Z" fill="white"/>
<path d="M140.975 56.9921H145.776V60.5383H146.028C146.786 59.2718 148.049 58.2586 149.565 57.2454C151.081 56.4855 152.85 55.9789 154.365 55.9789C157.65 55.9789 160.176 56.9921 161.692 58.7652C163.461 60.5383 164.219 63.3246 164.219 66.6175V83.0818H159.166V66.8708C159.166 62.5647 156.892 60.5383 152.597 60.5383C150.576 60.5383 149.06 61.2982 147.544 62.818C146.281 64.3378 145.523 66.3642 145.523 68.6439V83.3351H140.47V56.9921H140.975Z" fill="white"/>
<path d="M181.904 84.095C178.114 84.095 174.83 82.8285 172.303 80.0423C169.777 77.5093 168.514 73.9631 168.514 69.9103C168.514 65.8576 169.777 62.5647 172.051 59.7784C174.577 56.9921 177.609 55.7256 181.398 55.7256C185.188 55.7256 188.472 56.9921 190.746 59.5251C193.02 62.0581 194.283 65.6043 194.283 70.1636V70.6702H173.566C173.566 73.2032 174.577 75.2296 176.093 77.0027C177.861 78.5225 179.63 79.2824 181.904 79.2824C184.935 79.2824 187.462 77.7626 189.23 74.4697L193.525 76.4961C192.262 78.7758 190.746 80.5489 188.725 81.8154C186.957 83.5884 184.43 84.095 181.904 84.095ZM173.819 66.8708H188.978C188.725 65.0977 187.967 63.5779 186.704 62.3114C185.441 61.0449 183.672 60.5383 181.398 60.5383C179.63 60.5383 177.861 61.0449 176.598 62.3114C175.335 63.3246 174.324 64.8444 173.819 66.8708Z" fill="white"/>
<path d="M203.631 83.3351H198.578V56.9921H203.378V61.2982H203.631C204.136 59.7784 205.147 58.7652 206.663 57.752C208.179 56.7388 209.694 56.2322 211.21 56.2322C212.726 56.2322 213.737 56.4855 214.747 56.9921L213.232 61.8048C212.726 61.5515 211.716 61.5515 210.452 61.5515C208.684 61.5515 206.915 62.3114 205.652 63.8312C204.389 65.351 203.631 67.1241 203.631 69.1504V83.3351Z" fill="white"/>
<path d="M56.8449 22.2903V25.5831H64.9295C64.6769 27.6095 63.6663 29.3826 62.4031 30.6491C60.8872 31.9156 59.1187 32.4222 57.0975 32.4222C54.5711 32.4222 52.5499 31.6623 50.7814 29.8892C49.0129 28.1161 48.255 26.0897 48.255 23.5567C48.255 21.0238 49.0129 18.9974 50.7814 17.2243C52.5499 15.4512 54.5711 14.6913 57.0975 14.6913C59.3713 14.6913 61.3925 15.4512 63.161 16.971L65.4348 14.6913C63.161 12.4116 60.3819 11.3984 57.0975 11.3984C54.8237 11.3984 52.8026 11.905 50.7814 13.1715C48.7603 14.1847 47.2444 15.7045 46.2338 17.7309C45.2233 19.504 44.4653 21.5304 44.4653 23.81C44.4653 26.0897 44.9706 28.1161 46.2338 29.8892C47.2444 31.6623 48.7603 33.1821 50.7814 34.4486C52.8026 35.4618 54.8237 36.2217 57.0975 36.2217C60.3819 36.2217 63.161 35.2085 65.4348 33.1821C67.2033 30.3958 68.2139 27.8628 68.2139 24.3166C68.2139 23.5567 68.2139 22.7969 68.2139 22.2903H56.8449Z" fill="white"/>
<path d="M77.3091 19.7573C75.0353 19.7573 73.2667 20.5172 71.7509 22.0369C70.235 23.5567 69.4771 25.3298 69.4771 27.6095C69.4771 29.8892 70.235 31.6623 71.7509 33.1821C73.2667 34.7019 75.0353 35.4617 77.3091 35.4617C79.5828 35.4617 81.3514 34.7019 82.8672 33.1821C84.3831 31.6623 85.141 29.8892 85.141 27.6095C85.141 25.3298 84.3831 23.5567 82.8672 22.0369C81.604 20.5172 79.5828 19.7573 77.3091 19.7573ZM80.5934 31.1557C79.8355 32.1689 78.5723 32.4222 77.5617 32.4222C76.2985 32.4222 75.2879 31.9156 74.2773 31.1557C73.5194 30.1425 73.0141 29.1293 73.0141 27.8628C73.0141 26.343 73.5194 25.3298 74.2773 24.5699C75.0353 23.5567 76.2985 23.3034 77.5617 23.3034C78.8249 23.3034 79.8355 23.81 80.8461 24.5699C81.604 25.3298 82.1093 26.5963 82.1093 27.8628C81.8566 29.1293 81.3514 30.1425 80.5934 31.1557Z" fill="white"/>
<path d="M125.059 11.905H121.522V35.2085H125.059V11.905Z" fill="white"/>
<path d="M94.7415 19.7573C92.4677 19.7573 90.6992 20.5172 89.1833 22.0369C87.6674 23.5567 86.9095 25.3298 86.9095 27.6095C86.9095 29.8892 87.6674 31.6623 89.1833 33.1821C90.6992 34.7019 92.4677 35.4617 94.7415 35.4617C97.0153 35.4617 98.7838 34.7019 100.3 33.1821C101.816 31.6623 102.573 29.8892 102.573 27.6095C102.573 25.3298 101.816 23.5567 100.3 22.0369C98.7838 20.5172 97.0153 19.7573 94.7415 19.7573ZM97.7732 31.1557C97.0153 32.1689 95.7521 32.4222 94.7415 32.4222C93.4783 32.4222 92.4677 31.9156 91.4571 31.1557C90.6992 30.1425 90.1939 29.1293 90.1939 27.8628C90.1939 26.343 90.6992 25.3298 91.4571 24.5699C92.215 23.5567 93.4783 23.3034 94.7415 23.3034C96.0047 23.3034 97.0153 23.81 98.0259 24.5699C98.7838 25.3298 99.2891 26.5963 99.2891 27.8628C99.0364 29.1293 98.7838 30.1425 97.7732 31.1557Z" fill="white"/>
<path d="M134.659 32.4222C132.891 32.4222 131.627 31.6623 130.87 30.1425L141.481 25.8364L141.228 24.8232C140.975 24.0633 140.47 23.3034 140.217 22.7968C139.712 22.2902 139.207 21.5303 138.702 21.277C137.691 20.7705 137.186 20.5172 136.428 20.2639C135.67 20.0106 134.912 20.0106 134.154 20.0106C132.133 20.0106 130.364 20.7705 128.848 22.2902C127.333 23.81 126.827 25.5831 126.827 27.8628C126.827 30.1425 127.585 31.9156 129.101 33.4354C130.617 34.9551 132.385 35.715 134.659 35.715C137.438 35.715 139.712 34.4486 141.228 32.1689L138.449 30.3958C137.438 31.9156 136.175 32.4222 134.659 32.4222ZM131.375 24.3166C132.133 23.3034 133.143 22.7968 134.407 22.7968C135.165 22.7968 135.67 23.0501 136.175 23.3034C136.68 23.5567 137.186 24.0633 137.186 24.5699L130.112 27.6095C130.112 26.0897 130.617 25.0765 131.375 24.3166Z" fill="white"/>
<path d="M115.964 21.5303C114.953 20.2639 113.437 19.7573 111.669 19.7573C109.647 19.7573 107.879 20.5172 106.363 22.0369C104.847 23.5567 104.089 25.5831 104.089 27.6095C104.089 29.8892 104.847 31.6623 106.363 33.1821C107.879 34.7019 109.647 35.4618 111.669 35.4618C113.437 35.4618 114.953 34.9552 115.711 33.6887V34.4486C115.711 37.7414 114.195 39.5145 111.416 39.5145C110.405 39.5145 109.647 39.2612 109.142 38.7546C108.384 38.248 107.879 37.4881 107.626 36.7282L104.595 37.9947C104.847 38.7546 105.353 39.2612 105.858 40.0211C106.363 40.5277 106.868 41.0343 107.374 41.5409C107.879 42.0475 108.637 42.3008 109.395 42.5541C110.153 42.8074 110.911 42.8074 111.669 42.8074C113.942 42.8074 115.964 42.0475 117.227 40.781C118.49 39.2612 119.248 37.2348 119.248 34.7019V20.2639H115.964V21.5303ZM114.953 31.1557C114.195 32.1689 113.184 32.4222 111.921 32.4222C110.658 32.4222 109.647 31.9156 108.89 31.1557C108.132 30.1425 107.626 29.1293 107.626 27.8628C107.626 26.5963 108.132 25.3298 108.89 24.5699C109.647 23.5567 110.911 23.0501 111.921 23.0501C113.184 23.0501 114.195 23.5567 114.953 24.3166C115.711 25.3298 116.216 26.343 116.216 27.8628C116.216 29.1293 115.711 30.1425 114.953 31.1557Z" fill="white"/>
<path d="M25.2644 0H0V96H25.2644V0Z" fill="#487CBF"/>
</g>
<defs>
<clipPath id="clip0_15_608">
<rect width="215" height="96" fill="white"/>
</clipPath>
</defs>
</svg>
