<svg width="295" height="55" viewBox="0 0 295 55" fill="none" xmlns="http://www.w3.org/2000/svg">
<path d="M250.364 39.1673H253.801V22.9517H250.364V39.1673ZM266.115 28.4578C265.653 28.0032 265.089 27.6748 264.447 27.4728C263.652 27.2202 262.831 27.1193 262.009 27.1193C261.138 27.0939 260.241 27.1951 259.393 27.3971C258.674 27.5739 257.983 27.8012 257.315 28.0791L258.163 30.6553C258.674 30.4533 259.213 30.3017 259.751 30.1753C260.317 30.0491 260.906 29.9985 261.498 29.9985C262.343 29.9985 263.011 30.1753 263.446 30.5543C263.909 30.9585 264.139 31.5646 264.115 32.1709V32.3729C263.677 32.2212 263.216 32.095 262.78 32.0192C262.241 31.9183 261.703 31.8677 261.164 31.893C260.497 31.893 259.829 31.9689 259.188 32.1203C258.624 32.2466 258.111 32.4992 257.649 32.8276C257.213 33.1305 256.879 33.5348 256.648 34.0148C256.392 34.5451 256.262 35.1261 256.29 35.7069V35.7575C256.29 36.2879 256.392 36.8436 256.622 37.3234C256.828 37.7528 257.135 38.1569 257.519 38.4601C257.905 38.7885 258.367 39.0158 258.854 39.1673C259.367 39.3188 259.931 39.3947 260.47 39.3947C261.216 39.4199 261.934 39.2684 262.626 38.9905C263.191 38.7379 263.703 38.3589 264.139 37.8792V39.1673H267.448V32.2466C267.448 31.5141 267.346 30.7817 267.141 30.0744C266.91 29.4682 266.576 28.9126 266.115 28.4578ZM264.164 34.9744C264.191 35.5555 263.909 36.1362 263.42 36.49C262.857 36.894 262.163 37.0962 261.471 37.0708C260.984 37.0962 260.522 36.9699 260.111 36.692C259.779 36.4394 259.573 36.0353 259.599 35.631V35.5807C259.573 35.1007 259.805 34.6209 260.241 34.3683C260.752 34.0651 261.368 33.9136 261.983 33.9389C262.395 33.9389 262.78 33.9894 263.164 34.0651C263.498 34.1409 263.857 34.242 264.164 34.3935V34.9744ZM281.455 28.6094C280.97 28.1043 280.354 27.7 279.685 27.4224C279.045 27.1698 278.326 27.0181 277.632 27.0181C276.839 26.9928 276.068 27.1698 275.375 27.5739C274.786 27.9274 274.272 28.4074 273.862 28.963V22.9517H270.425V39.1673H273.862V37.6014C274.298 38.1066 274.786 38.5106 275.35 38.8389C276.044 39.2179 276.838 39.3947 277.608 39.3693C278.326 39.3693 279.019 39.2431 279.685 38.9653C280.354 38.6873 280.943 38.2833 281.431 37.7781C281.942 37.2223 282.354 36.5656 282.636 35.8584C282.97 35.0249 283.124 34.1157 283.097 33.2316V33.1811C283.124 32.2718 282.97 31.3878 282.636 30.5543C282.406 29.8471 281.995 29.1904 281.455 28.6094ZM279.713 33.2316C279.713 33.6863 279.635 34.1662 279.481 34.5955C279.325 34.9744 279.121 35.3281 278.839 35.631C278.582 35.909 278.248 36.1362 277.89 36.2879C277.171 36.591 276.326 36.591 275.607 36.2879C275.247 36.1362 274.939 35.909 274.684 35.631C274.401 35.3281 274.196 34.9744 274.041 34.5955C273.888 34.1662 273.812 33.7116 273.812 33.257V33.2064C273.812 32.7518 273.888 32.297 274.041 31.8677C274.196 31.4889 274.401 31.1352 274.684 30.8322C274.939 30.5543 275.247 30.327 275.607 30.1753C276.326 29.8724 277.171 29.8724 277.89 30.1753C278.248 30.327 278.558 30.5543 278.839 30.8322C279.121 31.1352 279.325 31.4889 279.481 31.8677C279.635 32.297 279.713 32.7518 279.713 33.2064V33.2316ZM294.129 34.1157C293.898 33.7368 293.615 33.4084 293.283 33.1305C292.923 32.8528 292.538 32.6255 292.103 32.4486C291.666 32.2718 291.23 32.095 290.82 31.9689C290.487 31.8677 290.179 31.7666 289.871 31.6657C289.614 31.5646 289.358 31.4637 289.1 31.3372C288.896 31.2363 288.716 31.1352 288.562 30.9837C288.435 30.8826 288.357 30.7059 288.357 30.5543V30.5037C288.357 30.2765 288.485 30.0491 288.664 29.923C288.946 29.7459 289.28 29.6704 289.614 29.6956C290.128 29.7207 290.64 29.8218 291.128 29.9985C291.744 30.2259 292.333 30.4785 292.898 30.8069L294.207 28.4832C293.54 28.0539 292.794 27.7 292.026 27.4728C291.28 27.2454 290.487 27.1193 289.692 27.1193C289.1 27.1193 288.537 27.1951 287.973 27.3719C287.459 27.5233 286.998 27.7759 286.561 28.1043C285.713 28.7863 285.227 29.8218 285.253 30.9079V30.9585C285.227 31.4637 285.355 31.9689 285.587 32.4235C285.791 32.8022 286.073 33.1558 286.432 33.4337C286.792 33.7116 287.178 33.9389 287.587 34.0903C287.999 34.2671 288.435 34.3935 288.871 34.5197C289.203 34.6209 289.512 34.7218 289.819 34.7977C290.101 34.8735 290.357 34.9744 290.615 35.0755C290.82 35.1513 290.998 35.2775 291.178 35.429C291.308 35.5555 291.385 35.7322 291.385 35.909V35.9595C291.385 36.2121 291.256 36.4647 291.026 36.591C290.691 36.793 290.307 36.8688 289.921 36.8436C289.28 36.8436 288.664 36.7173 288.075 36.49C287.382 36.2374 286.716 35.8584 286.099 35.429L284.636 37.6518C286.125 38.8136 287.945 39.4451 289.819 39.4451C290.435 39.4451 291.026 39.3441 291.615 39.1925C292.153 39.0411 292.643 38.8138 293.103 38.4853C293.513 38.1821 293.872 37.7781 294.078 37.2982C294.333 36.7677 294.438 36.1616 294.438 35.5807V35.5301C294.487 35.0249 294.361 34.5451 294.129 34.1157Z" fill="white"/>
<path fill-rule="evenodd" clip-rule="evenodd" d="M193.024 30.8572C193.667 32.4991 194.924 33.8377 196.564 34.545C197.438 34.9239 198.361 35.1007 199.31 35.0755C200.233 35.0755 201.159 34.8987 202.004 34.545C202.825 34.2167 203.544 33.7115 204.134 33.0802C204.723 32.4485 205.184 31.7162 205.493 30.9078C205.827 30.0743 205.98 29.1651 205.98 28.2558V28.2052C205.98 27.296 205.827 26.4119 205.493 25.5532C204.853 23.9114 203.568 22.5727 201.926 21.8655C201.054 21.4868 200.131 21.3097 199.208 21.3097C198.285 21.2846 197.36 21.4868 196.489 21.8403C195.694 22.1687 194.975 22.6736 194.385 23.3053C193.796 23.9366 193.332 24.6692 193.024 25.4773C192.692 26.3108 192.539 27.2202 192.539 28.1294V28.18C192.512 29.0893 192.692 29.9985 193.024 30.8572ZM210.24 32.6002C209.06 35.3533 206.828 37.5507 204.004 38.662C200.927 39.8492 197.54 39.8492 194.461 38.6114C193.078 38.0307 191.793 37.2223 190.716 36.1868C189.665 35.1513 188.818 33.9389 188.254 32.6002C187.663 31.211 187.381 29.7207 187.381 28.2052V28.1547C187.381 26.6645 187.689 25.1492 188.278 23.7599C189.459 21.0068 191.691 18.8092 194.513 17.6979C197.566 16.5109 200.979 16.5109 204.032 17.6979C205.416 18.2789 206.699 19.0871 207.776 20.1228C208.828 21.1583 209.674 22.3707 210.24 23.7094C210.829 25.1238 211.111 26.614 211.111 28.1294V28.18C211.137 29.6956 210.829 31.211 210.24 32.6002ZM78.6581 21.5623V27.877H83.6349C84.8407 27.8517 85.7899 27.5738 86.4312 27.018C87.0727 26.4625 87.4318 25.6289 87.4062 24.7701V24.6944C87.4062 23.6588 87.0727 22.8759 86.38 22.3455C85.6872 21.8149 84.7381 21.5623 83.5324 21.5623H78.6581ZM78.6581 39.1672H73.7837V17.2181H83.9941C86.8161 17.2181 88.9711 17.9505 90.4847 19.4409C91.7674 20.7036 92.4087 22.3707 92.4087 24.4672V24.5175C92.4087 26.2857 91.947 27.7506 91.0748 28.8619C90.1769 29.9985 88.9711 30.8572 87.6114 31.3372L93.0502 39.1672H87.3037L82.5061 32.1456H78.6581V39.1672ZM113.163 37.0708C112.291 37.9044 111.239 38.5359 110.084 38.9146C108.776 39.344 107.416 39.546 106.031 39.546C103.03 39.546 100.669 38.7379 98.9505 37.0961C97.2317 35.4542 96.3595 33.0043 96.3595 29.7713V17.2181H101.26V29.6197C101.26 31.413 101.695 32.777 102.542 33.6863C103.389 34.5955 104.569 35.0502 106.082 35.0502C107.596 35.0502 108.776 34.6209 109.623 33.7368C110.469 32.878 110.905 31.5646 110.905 29.7965V17.2181H115.805V29.6197C115.831 31.1098 115.6 32.575 115.113 33.9894C114.702 35.1513 114.035 36.1868 113.163 37.0708ZM125.862 34.949V30.0997H131.532C132.814 30.0997 133.738 30.3017 134.302 30.7311C134.867 31.1352 135.174 31.7918 135.149 32.4738V32.5244C135.2 33.2569 134.841 33.9389 134.225 34.3177C133.61 34.6967 132.763 34.8987 131.685 34.8987L125.862 34.949ZM125.862 26.1088V21.4614H130.711C131.763 21.4614 132.558 21.6635 133.097 22.0423C133.635 22.4213 133.969 23.0527 133.917 23.7094V23.7599C133.917 24.5681 133.61 25.1743 132.968 25.5279C132.327 25.8815 131.48 26.0835 130.377 26.0835L125.862 26.1088ZM121.065 39.1672H131.66C132.814 39.1672 133.969 39.0408 135.072 38.7882C136.021 38.5862 136.918 38.1821 137.715 37.6516C138.432 37.172 138.996 36.5151 139.407 35.7827C139.817 34.9744 140.023 34.0651 139.997 33.1557V33.1053C139.997 31.6404 139.639 30.5037 138.894 29.6703C138.047 28.7861 137.022 28.1043 135.841 27.7C136.252 27.498 136.612 27.2454 136.97 26.9425C137.329 26.6393 137.637 26.3108 137.893 25.9321C138.176 25.5279 138.382 25.0986 138.536 24.6186C138.714 24.0882 138.792 23.5073 138.766 22.9516V22.901C138.792 21.512 138.253 20.1481 137.227 19.1629C135.919 17.8748 133.969 17.2181 131.403 17.2181H121.065V39.1672ZM154.082 39.1672H149.182L149.156 30.5291L140.588 17.2181H146.335L151.67 26.0331L157.083 17.2181H162.65L154.082 30.4279V39.1672ZM170.577 27.877V21.5623H175.452C176.657 21.5623 177.607 21.8149 178.299 22.3455C178.991 22.8759 179.325 23.6588 179.325 24.6944V24.7701C179.351 25.6289 178.991 26.4625 178.351 27.018C177.71 27.5738 176.785 27.8517 175.554 27.877H170.577ZM165.703 39.1672H170.577V32.1456H174.425L179.223 39.1672H184.969L179.531 31.3372C180.891 30.8572 182.096 29.9985 182.993 28.8619C183.866 27.7506 184.328 26.2857 184.328 24.5175V24.4672C184.328 22.3707 183.687 20.7036 182.404 19.4409C180.891 17.9505 178.735 17.2181 175.914 17.2181H165.703V39.1672ZM215.599 39.1672H220.501V17.1928H215.599V39.1672ZM230.993 21.5877V34.8229H234.79C235.739 34.8229 236.662 34.6713 237.535 34.3429C238.331 34.0651 239.074 33.6105 239.664 33.0043C240.255 32.3982 240.716 31.7162 241.026 30.9331C241.357 30.0743 241.537 29.1651 241.511 28.2558V28.2052C241.537 27.2706 241.357 26.3867 241.026 25.5279C240.716 24.7449 240.255 24.0376 239.664 23.4314C239.05 22.8253 238.331 22.3707 237.535 22.0675C236.662 21.7394 235.739 21.5877 234.79 21.5877H230.993ZM234.79 39.1672H226.093V17.2181H234.79C236.431 17.1928 238.048 17.4959 239.589 18.0516C240.998 18.5568 242.283 19.3397 243.36 20.3501C244.41 21.3097 245.231 22.4969 245.796 23.8103C246.361 25.1743 246.668 26.6393 246.642 28.1294V28.18C246.668 29.645 246.385 31.1352 245.796 32.4991C245.231 33.8125 244.41 34.9996 243.36 35.9848C242.255 36.9949 240.972 37.7781 239.589 38.3085C238.048 38.8894 236.431 39.1925 234.79 39.1672Z" fill="white"/>
<path d="M40.0225 52.9077L37.8161 54.4484H36.3025L6.51788 44.6988L5.3891 43.8904L4.77338 41.971L5.08122 12.1665L5.69693 10.3479L6.44091 9.8175L6.6205 10.0701H6.74877V10.2469L37.0979 52.074L37.4826 0.674105L37.38 0.522555L37.4826 0.446784V0.168945H38.3036L40.1507 1.50762L57.4418 25.1995L58.1601 27.4474L57.339 29.8724L40.0225 52.9077ZM6.7231 13.0505L6.44091 41.1626L17.0362 27.2454L6.7231 13.0505ZM18.0367 28.66L7.82625 42.0971L24.1167 37.0203L18.0367 28.66ZM25.1429 38.4095L8.49326 43.5875L35.2506 52.3266L25.1429 38.4095ZM38.7654 51.7711L56.0306 28.7863L38.8937 34.1157L38.7654 51.7711ZM38.9193 32.3729L55.1073 27.3213L38.9962 22.1688L38.9193 32.3729ZM39.15 2.92207L39.0219 20.4258L55.8768 25.8312L39.15 2.92207Z" fill="white"/>
<path d="M21.011 2.10903L37.6606 2.21004L51.0265 11.9091L56.0291 27.468L50.7442 42.9512L37.1731 52.4733L20.5235 52.3724L7.15756 42.6732L2.15495 27.1144L7.43975 11.6313L21.011 2.10903ZM20.3695 0.0883789L5.72092 10.3684L0 27.1144L5.41306 43.9362L19.8564 54.393L37.8401 54.494L52.4888 44.2142L58.2097 27.468L52.7966 10.6462L38.3532 0.189413L20.3695 0.0883789Z" fill="white"/>
</svg>
