<svg width="252" height="118" viewBox="0 0 252 118" fill="none" xmlns="http://www.w3.org/2000/svg">
<rect y="54.9109" width="56.0792" height="43.2277" fill="white" fill-opacity="0.08"/>
<rect x="28.0396" y="58.4158" width="1.16832" height="38.5545" fill="white" fill-opacity="0.08"/>
<path d="M22.4648 102.584C24.0914 102.584 24.9048 103.794 24.9048 106.214C24.9048 107.38 24.7014 108.267 24.2948 108.874C23.8881 109.48 23.2914 109.784 22.5048 109.784C20.8781 109.784 20.0648 108.587 20.0648 106.194C20.0648 105.014 20.2681 104.117 20.6748 103.504C21.0814 102.89 21.6781 102.584 22.4648 102.584ZM22.4748 103.544C22.2748 103.544 22.1014 103.584 21.9548 103.664C21.8081 103.737 21.6881 103.854 21.5948 104.014C21.5081 104.167 21.4381 104.324 21.3848 104.484C21.3314 104.637 21.2914 104.834 21.2648 105.074C21.2448 105.314 21.2314 105.514 21.2248 105.674C21.2181 105.827 21.2148 106.024 21.2148 106.264C21.2148 107.164 21.3148 107.817 21.5148 108.224C21.7214 108.63 22.0481 108.834 22.4948 108.834C22.6681 108.834 22.8214 108.8 22.9548 108.734C23.0948 108.66 23.2081 108.574 23.2948 108.474C23.3814 108.374 23.4548 108.24 23.5148 108.074C23.5748 107.907 23.6181 107.757 23.6448 107.624C23.6781 107.484 23.7014 107.314 23.7148 107.114C23.7348 106.907 23.7448 106.75 23.7448 106.644C23.7514 106.53 23.7548 106.387 23.7548 106.214C23.7548 105.987 23.7514 105.814 23.7448 105.694C23.7448 105.567 23.7348 105.38 23.7148 105.134C23.6948 104.88 23.6548 104.677 23.5948 104.524C23.5414 104.37 23.4681 104.21 23.3748 104.044C23.2881 103.877 23.1681 103.754 23.0148 103.674C22.8614 103.587 22.6814 103.544 22.4748 103.544ZM28.0214 102.584C29.6481 102.584 30.4614 103.794 30.4614 106.214C30.4614 107.38 30.2581 108.267 29.8514 108.874C29.4447 109.48 28.8481 109.784 28.0614 109.784C26.4347 109.784 25.6214 108.587 25.6214 106.194C25.6214 105.014 25.8247 104.117 26.2314 103.504C26.6381 102.89 27.2347 102.584 28.0214 102.584ZM28.0314 103.544C27.8314 103.544 27.6581 103.584 27.5114 103.664C27.3647 103.737 27.2447 103.854 27.1514 104.014C27.0647 104.167 26.9947 104.324 26.9414 104.484C26.8881 104.637 26.8481 104.834 26.8214 105.074C26.8014 105.314 26.7881 105.514 26.7814 105.674C26.7747 105.827 26.7714 106.024 26.7714 106.264C26.7714 107.164 26.8714 107.817 27.0714 108.224C27.2781 108.63 27.6047 108.834 28.0514 108.834C28.2247 108.834 28.3781 108.8 28.5114 108.734C28.6514 108.66 28.7647 108.574 28.8514 108.474C28.9381 108.374 29.0114 108.24 29.0714 108.074C29.1314 107.907 29.1747 107.757 29.2014 107.624C29.2347 107.484 29.2581 107.314 29.2714 107.114C29.2914 106.907 29.3014 106.75 29.3014 106.644C29.3081 106.53 29.3114 106.387 29.3114 106.214C29.3114 105.987 29.3081 105.814 29.3014 105.694C29.3014 105.567 29.2914 105.38 29.2714 105.134C29.2514 104.88 29.2114 104.677 29.1514 104.524C29.0981 104.37 29.0247 104.21 28.9314 104.044C28.8447 103.877 28.7247 103.754 28.5714 103.674C28.4181 103.587 28.2381 103.544 28.0314 103.544ZM34.588 102.604V109.644H33.368V104.804H31.628V103.964C32.8414 103.964 33.5214 103.51 33.668 102.604H34.588Z" fill="white"/>
<path d="M22.4648 33.6529C24.0914 33.6529 24.9048 34.8629 24.9048 37.2829C24.9048 38.4495 24.7014 39.3362 24.2948 39.9429C23.8881 40.5495 23.2914 40.8529 22.5048 40.8529C20.8781 40.8529 20.0648 39.6562 20.0648 37.2629C20.0648 36.0829 20.2681 35.1862 20.6748 34.5729C21.0814 33.9595 21.6781 33.6529 22.4648 33.6529ZM22.4748 34.6129C22.2748 34.6129 22.1014 34.6529 21.9548 34.7329C21.8081 34.8062 21.6881 34.9229 21.5948 35.0829C21.5081 35.2362 21.4381 35.3929 21.3848 35.5529C21.3314 35.7062 21.2914 35.9029 21.2648 36.1429C21.2448 36.3829 21.2314 36.5829 21.2248 36.7429C21.2181 36.8962 21.2148 37.0929 21.2148 37.3329C21.2148 38.2329 21.3148 38.8862 21.5148 39.2929C21.7214 39.6995 22.0481 39.9029 22.4948 39.9029C22.6681 39.9029 22.8214 39.8695 22.9548 39.8029C23.0948 39.7295 23.2081 39.6429 23.2948 39.5429C23.3814 39.4429 23.4548 39.3095 23.5148 39.1429C23.5748 38.9762 23.6181 38.8262 23.6448 38.6929C23.6781 38.5529 23.7014 38.3829 23.7148 38.1829C23.7348 37.9762 23.7448 37.8195 23.7448 37.7129C23.7514 37.5995 23.7548 37.4562 23.7548 37.2829C23.7548 37.0562 23.7514 36.8829 23.7448 36.7629C23.7448 36.6362 23.7348 36.4495 23.7148 36.2029C23.6948 35.9495 23.6548 35.7462 23.5948 35.5929C23.5414 35.4395 23.4681 35.2795 23.3748 35.1129C23.2881 34.9462 23.1681 34.8229 23.0148 34.7429C22.8614 34.6562 22.6814 34.6129 22.4748 34.6129ZM28.0214 33.6529C29.6481 33.6529 30.4614 34.8629 30.4614 37.2829C30.4614 38.4495 30.2581 39.3362 29.8514 39.9429C29.4447 40.5495 28.8481 40.8529 28.0614 40.8529C26.4347 40.8529 25.6214 39.6562 25.6214 37.2629C25.6214 36.0829 25.8247 35.1862 26.2314 34.5729C26.6381 33.9595 27.2347 33.6529 28.0214 33.6529ZM28.0314 34.6129C27.8314 34.6129 27.6581 34.6529 27.5114 34.7329C27.3647 34.8062 27.2447 34.9229 27.1514 35.0829C27.0647 35.2362 26.9947 35.3929 26.9414 35.5529C26.8881 35.7062 26.8481 35.9029 26.8214 36.1429C26.8014 36.3829 26.7881 36.5829 26.7814 36.7429C26.7747 36.8962 26.7714 37.0929 26.7714 37.3329C26.7714 38.2329 26.8714 38.8862 27.0714 39.2929C27.2781 39.6995 27.6047 39.9029 28.0514 39.9029C28.2247 39.9029 28.3781 39.8695 28.5114 39.8029C28.6514 39.7295 28.7647 39.6429 28.8514 39.5429C28.9381 39.4429 29.0114 39.3095 29.0714 39.1429C29.1314 38.9762 29.1747 38.8262 29.2014 38.6929C29.2347 38.5529 29.2581 38.3829 29.2714 38.1829C29.2914 37.9762 29.3014 37.8195 29.3014 37.7129C29.3081 37.5995 29.3114 37.4562 29.3114 37.2829C29.3114 37.0562 29.3081 36.8829 29.3014 36.7629C29.3014 36.6362 29.2914 36.4495 29.2714 36.2029C29.2514 35.9495 29.2114 35.7462 29.1514 35.5929C29.0981 35.4395 29.0247 35.2795 28.9314 35.1129C28.8447 34.9462 28.7247 34.8229 28.5714 34.7429C28.4181 34.6562 28.2381 34.6129 28.0314 34.6129ZM34.588 33.6729V40.7129H33.368V35.8729H31.628V35.0329C32.8414 35.0329 33.5214 34.5795 33.668 33.6729H34.588Z" fill="white"/>
<rect x="65.0792" y="49.0693" width="56.0792" height="49.0693" fill="white" fill-opacity="0.08"/>
<rect x="93.1188" y="52.5743" width="1.16832" height="44.396" fill="white" fill-opacity="0.08"/>
<path d="M87.544 102.584C89.1707 102.584 89.984 103.794 89.984 106.214C89.984 107.38 89.7807 108.267 89.374 108.874C88.9674 109.48 88.3707 109.784 87.584 109.784C85.9573 109.784 85.144 108.587 85.144 106.194C85.144 105.014 85.3473 104.117 85.754 103.504C86.1607 102.89 86.7574 102.584 87.544 102.584ZM87.554 103.544C87.354 103.544 87.1807 103.584 87.034 103.664C86.8874 103.737 86.7674 103.854 86.674 104.014C86.5874 104.167 86.5174 104.324 86.464 104.484C86.4107 104.637 86.3707 104.834 86.344 105.074C86.324 105.314 86.3107 105.514 86.304 105.674C86.2974 105.827 86.294 106.024 86.294 106.264C86.294 107.164 86.394 107.817 86.594 108.224C86.8007 108.63 87.1274 108.834 87.574 108.834C87.7474 108.834 87.9007 108.8 88.034 108.734C88.174 108.66 88.2874 108.574 88.374 108.474C88.4607 108.374 88.534 108.24 88.594 108.074C88.654 107.907 88.6974 107.757 88.724 107.624C88.7574 107.484 88.7807 107.314 88.794 107.114C88.814 106.907 88.824 106.75 88.824 106.644C88.8307 106.53 88.834 106.387 88.834 106.214C88.834 105.987 88.8307 105.814 88.824 105.694C88.824 105.567 88.814 105.38 88.794 105.134C88.774 104.88 88.734 104.677 88.674 104.524C88.6207 104.37 88.5474 104.21 88.454 104.044C88.3674 103.877 88.2474 103.754 88.094 103.674C87.9407 103.587 87.7607 103.544 87.554 103.544ZM93.1007 102.584C94.7273 102.584 95.5407 103.794 95.5407 106.214C95.5407 107.38 95.3373 108.267 94.9307 108.874C94.524 109.48 93.9273 109.784 93.1407 109.784C91.514 109.784 90.7007 108.587 90.7007 106.194C90.7007 105.014 90.904 104.117 91.3107 103.504C91.7173 102.89 92.314 102.584 93.1007 102.584ZM93.1107 103.544C92.9107 103.544 92.7373 103.584 92.5907 103.664C92.444 103.737 92.324 103.854 92.2307 104.014C92.144 104.167 92.074 104.324 92.0207 104.484C91.9673 104.637 91.9273 104.834 91.9007 105.074C91.8807 105.314 91.8673 105.514 91.8607 105.674C91.854 105.827 91.8507 106.024 91.8507 106.264C91.8507 107.164 91.9507 107.817 92.1507 108.224C92.3573 108.63 92.684 108.834 93.1307 108.834C93.304 108.834 93.4573 108.8 93.5907 108.734C93.7307 108.66 93.844 108.574 93.9307 108.474C94.0173 108.374 94.0907 108.24 94.1507 108.074C94.2107 107.907 94.254 107.757 94.2807 107.624C94.314 107.484 94.3373 107.314 94.3507 107.114C94.3707 106.907 94.3807 106.75 94.3807 106.644C94.3873 106.53 94.3907 106.387 94.3907 106.214C94.3907 105.987 94.3873 105.814 94.3807 105.694C94.3807 105.567 94.3707 105.38 94.3507 105.134C94.3307 104.88 94.2907 104.677 94.2307 104.524C94.1773 104.37 94.104 104.21 94.0107 104.044C93.924 103.877 93.804 103.754 93.6507 103.674C93.4973 103.587 93.3173 103.544 93.1107 103.544ZM100.907 108.634V109.644H96.1273C96.134 109.33 96.1773 109.044 96.2573 108.784C96.3373 108.524 96.4273 108.304 96.5273 108.124C96.634 107.937 96.7873 107.75 96.9873 107.564C97.194 107.37 97.3773 107.214 97.5373 107.094C97.704 106.967 97.9306 106.807 98.2173 106.614C98.2373 106.6 98.334 106.537 98.5073 106.424C98.6873 106.304 98.7973 106.23 98.8373 106.204C98.8773 106.17 98.9673 106.1 99.1073 105.994C99.2473 105.88 99.3373 105.79 99.3773 105.724C99.424 105.657 99.484 105.567 99.5573 105.454C99.6373 105.34 99.6906 105.227 99.7173 105.114C99.744 104.994 99.7573 104.867 99.7573 104.734C99.7573 104.367 99.654 104.08 99.4473 103.874C99.2473 103.66 98.974 103.554 98.6273 103.554C98.4273 103.554 98.254 103.587 98.1073 103.654C97.9606 103.714 97.844 103.794 97.7573 103.894C97.6773 103.994 97.6106 104.124 97.5573 104.284C97.504 104.437 97.4673 104.584 97.4473 104.724C97.434 104.864 97.424 105.027 97.4173 105.214H96.3073V105.034C96.3073 104.28 96.5173 103.684 96.9373 103.244C97.364 102.797 97.9373 102.574 98.6573 102.574C99.3373 102.574 99.884 102.767 100.297 103.154C100.711 103.534 100.917 104.04 100.917 104.674C100.917 104.927 100.877 105.167 100.797 105.394C100.717 105.62 100.631 105.804 100.537 105.944C100.451 106.084 100.297 106.247 100.077 106.434C99.8573 106.62 99.694 106.75 99.5873 106.824C99.4806 106.897 99.284 107.03 98.9973 107.224C98.164 107.764 97.664 108.234 97.4973 108.634H100.907Z" fill="white"/>
<path d="M87.5292 27.8113C89.1558 27.8113 89.9692 29.0213 89.9692 31.4413C89.9692 32.608 89.7658 33.4946 89.3592 34.1013C88.9525 34.708 88.3558 35.0113 87.5692 35.0113C85.9425 35.0113 85.1292 33.8146 85.1292 31.4213C85.1292 30.2413 85.3325 29.3446 85.7392 28.7313C86.1458 28.118 86.7425 27.8113 87.5292 27.8113ZM87.5392 28.7713C87.3392 28.7713 87.1658 28.8113 87.0192 28.8913C86.8725 28.9646 86.7525 29.0813 86.6592 29.2413C86.5725 29.3946 86.5025 29.5513 86.4492 29.7113C86.3958 29.8646 86.3558 30.0613 86.3292 30.3013C86.3092 30.5413 86.2958 30.7413 86.2892 30.9013C86.2825 31.0546 86.2792 31.2513 86.2792 31.4913C86.2792 32.3913 86.3792 33.0446 86.5792 33.4513C86.7858 33.858 87.1125 34.0613 87.5592 34.0613C87.7325 34.0613 87.8858 34.028 88.0192 33.9613C88.1592 33.888 88.2725 33.8013 88.3592 33.7013C88.4458 33.6013 88.5192 33.468 88.5792 33.3013C88.6392 33.1346 88.6825 32.9846 88.7092 32.8513C88.7425 32.7113 88.7658 32.5413 88.7792 32.3413C88.7992 32.1346 88.8092 31.978 88.8092 31.8713C88.8158 31.758 88.8192 31.6146 88.8192 31.4413C88.8192 31.2146 88.8158 31.0413 88.8092 30.9213C88.8092 30.7946 88.7992 30.608 88.7792 30.3613C88.7592 30.108 88.7192 29.9046 88.6592 29.7513C88.6058 29.598 88.5325 29.438 88.4392 29.2713C88.3525 29.1046 88.2325 28.9813 88.0792 28.9013C87.9258 28.8146 87.7458 28.7713 87.5392 28.7713ZM93.0858 27.8113C94.7125 27.8113 95.5258 29.0213 95.5258 31.4413C95.5258 32.608 95.3225 33.4946 94.9158 34.1013C94.5091 34.708 93.9125 35.0113 93.1258 35.0113C91.4991 35.0113 90.6858 33.8146 90.6858 31.4213C90.6858 30.2413 90.8891 29.3446 91.2958 28.7313C91.7025 28.118 92.2991 27.8113 93.0858 27.8113ZM93.0958 28.7713C92.8958 28.7713 92.7225 28.8113 92.5758 28.8913C92.4291 28.9646 92.3091 29.0813 92.2158 29.2413C92.1291 29.3946 92.0591 29.5513 92.0058 29.7113C91.9525 29.8646 91.9125 30.0613 91.8858 30.3013C91.8658 30.5413 91.8525 30.7413 91.8458 30.9013C91.8391 31.0546 91.8358 31.2513 91.8358 31.4913C91.8358 32.3913 91.9358 33.0446 92.1358 33.4513C92.3425 33.858 92.6691 34.0613 93.1158 34.0613C93.2891 34.0613 93.4425 34.028 93.5758 33.9613C93.7158 33.888 93.8291 33.8013 93.9158 33.7013C94.0025 33.6013 94.0758 33.468 94.1358 33.3013C94.1958 33.1346 94.2391 32.9846 94.2658 32.8513C94.2991 32.7113 94.3225 32.5413 94.3358 32.3413C94.3558 32.1346 94.3658 31.978 94.3658 31.8713C94.3725 31.758 94.3758 31.6146 94.3758 31.4413C94.3758 31.2146 94.3725 31.0413 94.3658 30.9213C94.3658 30.7946 94.3558 30.608 94.3358 30.3613C94.3158 30.108 94.2758 29.9046 94.2158 29.7513C94.1625 29.598 94.0891 29.438 93.9958 29.2713C93.9091 29.1046 93.7891 28.9813 93.6358 28.9013C93.4825 28.8146 93.3025 28.7713 93.0958 28.7713ZM100.892 33.8613V34.8713H96.1124C96.1191 34.558 96.1624 34.2713 96.2424 34.0113C96.3224 33.7513 96.4124 33.5313 96.5124 33.3513C96.6191 33.1646 96.7724 32.978 96.9724 32.7913C97.1791 32.598 97.3624 32.4413 97.5224 32.3213C97.6891 32.1946 97.9158 32.0346 98.2024 31.8413C98.2224 31.828 98.3191 31.7646 98.4924 31.6513C98.6724 31.5313 98.7824 31.458 98.8224 31.4313C98.8624 31.398 98.9524 31.328 99.0924 31.2213C99.2324 31.108 99.3224 31.018 99.3624 30.9513C99.4091 30.8846 99.4691 30.7946 99.5424 30.6813C99.6224 30.568 99.6758 30.4546 99.7024 30.3413C99.7291 30.2213 99.7424 30.0946 99.7424 29.9613C99.7424 29.5946 99.6391 29.308 99.4324 29.1013C99.2324 28.888 98.9591 28.7813 98.6124 28.7813C98.4124 28.7813 98.2391 28.8146 98.0924 28.8813C97.9458 28.9413 97.8291 29.0213 97.7424 29.1213C97.6624 29.2213 97.5958 29.3513 97.5424 29.5113C97.4891 29.6646 97.4524 29.8113 97.4324 29.9513C97.4191 30.0913 97.4091 30.2546 97.4024 30.4413H96.2924V30.2613C96.2924 29.508 96.5024 28.9113 96.9224 28.4713C97.3491 28.0246 97.9224 27.8013 98.6424 27.8013C99.3224 27.8013 99.8691 27.9946 100.282 28.3813C100.696 28.7613 100.902 29.268 100.902 29.9013C100.902 30.1546 100.862 30.3946 100.782 30.6213C100.702 30.848 100.616 31.0313 100.522 31.1713C100.436 31.3113 100.282 31.4746 100.062 31.6613C99.8424 31.848 99.6791 31.978 99.5724 32.0513C99.4658 32.1246 99.2691 32.258 98.9824 32.4513C98.1491 32.9913 97.6491 33.4613 97.4824 33.8613H100.892Z" fill="white"/>
<rect x="130.158" y="42.0594" width="56.0792" height="56.0792" fill="white" fill-opacity="0.08"/>
<rect x="158.198" y="45.5643" width="1.16832" height="51.4059" fill="white" fill-opacity="0.08"/>
<path d="M152.623 102.584C154.25 102.584 155.063 103.794 155.063 106.214C155.063 107.38 154.86 108.267 154.453 108.874C154.047 109.48 153.45 109.784 152.663 109.784C151.037 109.784 150.223 108.587 150.223 106.194C150.223 105.014 150.427 104.117 150.833 103.504C151.24 102.89 151.837 102.584 152.623 102.584ZM152.633 103.544C152.433 103.544 152.26 103.584 152.113 103.664C151.967 103.737 151.847 103.854 151.753 104.014C151.667 104.167 151.597 104.324 151.543 104.484C151.49 104.637 151.45 104.834 151.423 105.074C151.403 105.314 151.39 105.514 151.383 105.674C151.377 105.827 151.373 106.024 151.373 106.264C151.373 107.164 151.473 107.817 151.673 108.224C151.88 108.63 152.207 108.834 152.653 108.834C152.827 108.834 152.98 108.8 153.113 108.734C153.253 108.66 153.367 108.574 153.453 108.474C153.54 108.374 153.613 108.24 153.673 108.074C153.733 107.907 153.777 107.757 153.803 107.624C153.837 107.484 153.86 107.314 153.873 107.114C153.893 106.907 153.903 106.75 153.903 106.644C153.91 106.53 153.913 106.387 153.913 106.214C153.913 105.987 153.91 105.814 153.903 105.694C153.903 105.567 153.893 105.38 153.873 105.134C153.853 104.88 153.813 104.677 153.753 104.524C153.7 104.37 153.627 104.21 153.533 104.044C153.447 103.877 153.327 103.754 153.173 103.674C153.02 103.587 152.84 103.544 152.633 103.544ZM158.18 102.584C159.807 102.584 160.62 103.794 160.62 106.214C160.62 107.38 160.417 108.267 160.01 108.874C159.603 109.48 159.007 109.784 158.22 109.784C156.593 109.784 155.78 108.587 155.78 106.194C155.78 105.014 155.983 104.117 156.39 103.504C156.797 102.89 157.393 102.584 158.18 102.584ZM158.19 103.544C157.99 103.544 157.817 103.584 157.67 103.664C157.523 103.737 157.403 103.854 157.31 104.014C157.223 104.167 157.153 104.324 157.1 104.484C157.047 104.637 157.007 104.834 156.98 105.074C156.96 105.314 156.947 105.514 156.94 105.674C156.933 105.827 156.93 106.024 156.93 106.264C156.93 107.164 157.03 107.817 157.23 108.224C157.437 108.63 157.763 108.834 158.21 108.834C158.383 108.834 158.537 108.8 158.67 108.734C158.81 108.66 158.923 108.574 159.01 108.474C159.097 108.374 159.17 108.24 159.23 108.074C159.29 107.907 159.333 107.757 159.36 107.624C159.393 107.484 159.417 107.314 159.43 107.114C159.45 106.907 159.46 106.75 159.46 106.644C159.467 106.53 159.47 106.387 159.47 106.214C159.47 105.987 159.467 105.814 159.46 105.694C159.46 105.567 159.45 105.38 159.43 105.134C159.41 104.88 159.37 104.677 159.31 104.524C159.257 104.37 159.183 104.21 159.09 104.044C159.003 103.877 158.883 103.754 158.73 103.674C158.577 103.587 158.397 103.544 158.19 103.544ZM161.417 104.894C161.437 104.174 161.65 103.607 162.057 103.194C162.463 102.78 163.01 102.574 163.697 102.574C164.343 102.574 164.867 102.747 165.267 103.094C165.667 103.44 165.867 103.894 165.867 104.454C165.867 104.794 165.777 105.094 165.597 105.354C165.423 105.607 165.187 105.784 164.887 105.884C165.28 105.984 165.59 106.18 165.817 106.474C166.043 106.76 166.157 107.114 166.157 107.534C166.157 108.2 165.927 108.744 165.467 109.164C165.007 109.584 164.41 109.794 163.677 109.794C162.95 109.794 162.363 109.584 161.917 109.164C161.47 108.744 161.247 108.187 161.247 107.494V107.344H162.347C162.38 108.324 162.833 108.814 163.707 108.814C164.093 108.814 164.4 108.704 164.627 108.484C164.853 108.257 164.967 107.95 164.967 107.564C164.967 107.157 164.837 106.86 164.577 106.674C164.317 106.487 163.98 106.394 163.567 106.394C163.44 106.394 163.32 106.397 163.207 106.404V105.544H163.307C163.513 105.544 163.69 105.534 163.837 105.514C163.983 105.487 164.13 105.444 164.277 105.384C164.43 105.317 164.547 105.214 164.627 105.074C164.707 104.927 164.747 104.747 164.747 104.534C164.747 104.227 164.65 103.98 164.457 103.794C164.263 103.607 164.003 103.514 163.677 103.514C162.93 103.514 162.54 103.974 162.507 104.894H161.417Z" fill="white"/>
<path d="M152.767 22.94C154.393 22.94 155.207 24.15 155.207 26.57C155.207 27.7367 155.003 28.6233 154.597 29.23C154.19 29.8367 153.593 30.14 152.807 30.14C151.18 30.14 150.367 28.9433 150.367 26.55C150.367 25.37 150.57 24.4733 150.977 23.86C151.383 23.2467 151.98 22.94 152.767 22.94ZM152.777 23.9C152.577 23.9 152.403 23.94 152.257 24.02C152.11 24.0933 151.99 24.21 151.897 24.37C151.81 24.5233 151.74 24.68 151.687 24.84C151.633 24.9933 151.593 25.19 151.567 25.43C151.547 25.67 151.533 25.87 151.527 26.03C151.52 26.1833 151.517 26.38 151.517 26.62C151.517 27.52 151.617 28.1733 151.817 28.58C152.023 28.9867 152.35 29.19 152.797 29.19C152.97 29.19 153.123 29.1567 153.257 29.09C153.397 29.0167 153.51 28.93 153.597 28.83C153.683 28.73 153.757 28.5967 153.817 28.43C153.877 28.2633 153.92 28.1133 153.947 27.98C153.98 27.84 154.003 27.67 154.017 27.47C154.037 27.2633 154.047 27.1067 154.047 27C154.053 26.8867 154.057 26.7433 154.057 26.57C154.057 26.3433 154.053 26.17 154.047 26.05C154.047 25.9233 154.037 25.7367 154.017 25.49C153.997 25.2367 153.957 25.0333 153.897 24.88C153.843 24.7267 153.77 24.5667 153.677 24.4C153.59 24.2333 153.47 24.11 153.317 24.03C153.163 23.9433 152.983 23.9 152.777 23.9ZM158.323 22.94C159.95 22.94 160.763 24.15 160.763 26.57C160.763 27.7367 160.56 28.6233 160.153 29.23C159.747 29.8367 159.15 30.14 158.363 30.14C156.737 30.14 155.923 28.9433 155.923 26.55C155.923 25.37 156.127 24.4733 156.533 23.86C156.94 23.2467 157.537 22.94 158.323 22.94ZM158.333 23.9C158.133 23.9 157.96 23.94 157.813 24.02C157.667 24.0933 157.547 24.21 157.453 24.37C157.367 24.5233 157.297 24.68 157.243 24.84C157.19 24.9933 157.15 25.19 157.123 25.43C157.103 25.67 157.09 25.87 157.083 26.03C157.077 26.1833 157.073 26.38 157.073 26.62C157.073 27.52 157.173 28.1733 157.373 28.58C157.58 28.9867 157.907 29.19 158.353 29.19C158.527 29.19 158.68 29.1567 158.813 29.09C158.953 29.0167 159.067 28.93 159.153 28.83C159.24 28.73 159.313 28.5967 159.373 28.43C159.433 28.2633 159.477 28.1133 159.503 27.98C159.537 27.84 159.56 27.67 159.573 27.47C159.593 27.2633 159.603 27.1067 159.603 27C159.61 26.8867 159.613 26.7433 159.613 26.57C159.613 26.3433 159.61 26.17 159.603 26.05C159.603 25.9233 159.593 25.7367 159.573 25.49C159.553 25.2367 159.513 25.0333 159.453 24.88C159.4 24.7267 159.327 24.5667 159.233 24.4C159.147 24.2333 159.027 24.11 158.873 24.03C158.72 23.9433 158.54 23.9 158.333 23.9ZM161.56 25.25C161.58 24.53 161.793 23.9633 162.2 23.55C162.607 23.1367 163.153 22.93 163.84 22.93C164.487 22.93 165.01 23.1033 165.41 23.45C165.81 23.7967 166.01 24.25 166.01 24.81C166.01 25.15 165.92 25.45 165.74 25.71C165.567 25.9633 165.33 26.14 165.03 26.24C165.423 26.34 165.733 26.5367 165.96 26.83C166.187 27.1167 166.3 27.47 166.3 27.89C166.3 28.5567 166.07 29.1 165.61 29.52C165.15 29.94 164.553 30.15 163.82 30.15C163.093 30.15 162.507 29.94 162.06 29.52C161.613 29.1 161.39 28.5433 161.39 27.85V27.7H162.49C162.523 28.68 162.977 29.17 163.85 29.17C164.237 29.17 164.543 29.06 164.77 28.84C164.997 28.6133 165.11 28.3067 165.11 27.92C165.11 27.5133 164.98 27.2167 164.72 27.03C164.46 26.8433 164.123 26.75 163.71 26.75C163.583 26.75 163.463 26.7533 163.35 26.76V25.9H163.45C163.657 25.9 163.833 25.89 163.98 25.87C164.127 25.8433 164.273 25.8 164.42 25.74C164.573 25.6733 164.69 25.57 164.77 25.43C164.85 25.2833 164.89 25.1033 164.89 24.89C164.89 24.5833 164.793 24.3367 164.6 24.15C164.407 23.9633 164.147 23.87 163.82 23.87C163.073 23.87 162.683 24.33 162.65 25.25H161.56Z" fill="white"/>
<rect x="195.238" y="21.0297" width="56.0792" height="77.1089" fill="#8941FB"/>
<rect x="223.277" y="24.5347" width="1.16832" height="72.4356" fill="white" fill-opacity="0.08"/>
<path d="M217.703 102.584C219.329 102.584 220.143 103.794 220.143 106.214C220.143 107.38 219.939 108.267 219.533 108.874C219.126 109.48 218.529 109.784 217.743 109.784C216.116 109.784 215.303 108.587 215.303 106.194C215.303 105.014 215.506 104.117 215.913 103.504C216.319 102.89 216.916 102.584 217.703 102.584ZM217.713 103.544C217.513 103.544 217.339 103.584 217.193 103.664C217.046 103.737 216.926 103.854 216.833 104.014C216.746 104.167 216.676 104.324 216.623 104.484C216.569 104.637 216.529 104.834 216.503 105.074C216.483 105.314 216.469 105.514 216.463 105.674C216.456 105.827 216.453 106.024 216.453 106.264C216.453 107.164 216.553 107.817 216.753 108.224C216.959 108.63 217.286 108.834 217.733 108.834C217.906 108.834 218.059 108.8 218.193 108.734C218.333 108.66 218.446 108.574 218.533 108.474C218.619 108.374 218.693 108.24 218.753 108.074C218.813 107.907 218.856 107.757 218.883 107.624C218.916 107.484 218.939 107.314 218.953 107.114C218.973 106.907 218.983 106.75 218.983 106.644C218.989 106.53 218.993 106.387 218.993 106.214C218.993 105.987 218.989 105.814 218.983 105.694C218.983 105.567 218.973 105.38 218.953 105.134C218.933 104.88 218.893 104.677 218.833 104.524C218.779 104.37 218.706 104.21 218.613 104.044C218.526 103.877 218.406 103.754 218.253 103.674C218.099 103.587 217.919 103.544 217.713 103.544ZM223.259 102.584C224.886 102.584 225.699 103.794 225.699 106.214C225.699 107.38 225.496 108.267 225.089 108.874C224.683 109.48 224.086 109.784 223.299 109.784C221.673 109.784 220.859 108.587 220.859 106.194C220.859 105.014 221.063 104.117 221.469 103.504C221.876 102.89 222.473 102.584 223.259 102.584ZM223.269 103.544C223.069 103.544 222.896 103.584 222.749 103.664C222.603 103.737 222.483 103.854 222.389 104.014C222.303 104.167 222.233 104.324 222.179 104.484C222.126 104.637 222.086 104.834 222.059 105.074C222.039 105.314 222.026 105.514 222.019 105.674C222.013 105.827 222.009 106.024 222.009 106.264C222.009 107.164 222.109 107.817 222.309 108.224C222.516 108.63 222.843 108.834 223.289 108.834C223.463 108.834 223.616 108.8 223.749 108.734C223.889 108.66 224.003 108.574 224.089 108.474C224.176 108.374 224.249 108.24 224.309 108.074C224.369 107.907 224.413 107.757 224.439 107.624C224.473 107.484 224.496 107.314 224.509 107.114C224.529 106.907 224.539 106.75 224.539 106.644C224.546 106.53 224.549 106.387 224.549 106.214C224.549 105.987 224.546 105.814 224.539 105.694C224.539 105.567 224.529 105.38 224.509 105.134C224.489 104.88 224.449 104.677 224.389 104.524C224.336 104.37 224.263 104.21 224.169 104.044C224.083 103.877 223.963 103.754 223.809 103.674C223.656 103.587 223.476 103.544 223.269 103.544ZM231.276 107.024V107.984H230.386V109.644H229.286L229.276 107.984H226.306V106.854L229.306 102.584H230.386V107.024H231.276ZM229.296 107.024V103.994L227.246 107.024H229.296Z" fill="white"/>
<path d="M217.703 0.94C219.329 0.94 220.143 2.15 220.143 4.57C220.143 5.73667 219.939 6.62333 219.533 7.23C219.126 7.83667 218.529 8.14 217.743 8.14C216.116 8.14 215.303 6.94333 215.303 4.55C215.303 3.37 215.506 2.47333 215.913 1.86C216.319 1.24667 216.916 0.94 217.703 0.94ZM217.713 1.9C217.513 1.9 217.339 1.94 217.193 2.02C217.046 2.09333 216.926 2.21 216.833 2.37C216.746 2.52333 216.676 2.68 216.623 2.84C216.569 2.99333 216.529 3.19 216.503 3.43C216.483 3.67 216.469 3.87 216.463 4.03C216.456 4.18333 216.453 4.38 216.453 4.62C216.453 5.52 216.553 6.17333 216.753 6.58C216.959 6.98667 217.286 7.19 217.733 7.19C217.906 7.19 218.059 7.15667 218.193 7.09C218.333 7.01667 218.446 6.93 218.533 6.83C218.619 6.73 218.693 6.59667 218.753 6.43C218.813 6.26333 218.856 6.11333 218.883 5.98C218.916 5.84 218.939 5.67 218.953 5.47C218.973 5.26333 218.983 5.10667 218.983 5C218.989 4.88667 218.993 4.74333 218.993 4.57C218.993 4.34333 218.989 4.17 218.983 4.05C218.983 3.92333 218.973 3.73667 218.953 3.49C218.933 3.23667 218.893 3.03333 218.833 2.88C218.779 2.72667 218.706 2.56667 218.613 2.4C218.526 2.23333 218.406 2.11 218.253 2.03C218.099 1.94333 217.919 1.9 217.713 1.9ZM223.259 0.94C224.886 0.94 225.699 2.15 225.699 4.57C225.699 5.73667 225.496 6.62333 225.089 7.23C224.683 7.83667 224.086 8.14 223.299 8.14C221.673 8.14 220.859 6.94333 220.859 4.55C220.859 3.37 221.063 2.47333 221.469 1.86C221.876 1.24667 222.473 0.94 223.259 0.94ZM223.269 1.9C223.069 1.9 222.896 1.94 222.749 2.02C222.603 2.09333 222.483 2.21 222.389 2.37C222.303 2.52333 222.233 2.68 222.179 2.84C222.126 2.99333 222.086 3.19 222.059 3.43C222.039 3.67 222.026 3.87 222.019 4.03C222.013 4.18333 222.009 4.38 222.009 4.62C222.009 5.52 222.109 6.17333 222.309 6.58C222.516 6.98667 222.843 7.19 223.289 7.19C223.463 7.19 223.616 7.15667 223.749 7.09C223.889 7.01667 224.003 6.93 224.089 6.83C224.176 6.73 224.249 6.59667 224.309 6.43C224.369 6.26333 224.413 6.11333 224.439 5.98C224.473 5.84 224.496 5.67 224.509 5.47C224.529 5.26333 224.539 5.10667 224.539 5C224.546 4.88667 224.549 4.74333 224.549 4.57C224.549 4.34333 224.546 4.17 224.539 4.05C224.539 3.92333 224.529 3.73667 224.509 3.49C224.489 3.23667 224.449 3.03333 224.389 2.88C224.336 2.72667 224.263 2.56667 224.169 2.4C224.083 2.23333 223.963 2.11 223.809 2.03C223.656 1.94333 223.476 1.9 223.269 1.9ZM231.276 5.38V6.34H230.386V8H229.286L229.276 6.34H226.306V5.21L229.306 0.94H230.386V5.38H231.276ZM229.296 5.38V2.35L227.246 5.38H229.296Z" fill="white"/>
<path d="M30.1782 83.9604L93.8416 66.5L161.03 61.7624L226.455 55.3366" stroke="white" stroke-opacity="0.6"/>
<rect x="26.8415" y="82" width="4" height="4" rx="2" fill="white"/>
<rect x="91.8415" y="65" width="4" height="4" rx="2" fill="white"/>
<rect x="156.842" y="60" width="4" height="4" rx="2" fill="white"/>
<rect x="222.842" y="53" width="4" height="4" rx="2" fill="white"/>
</svg>
