<svg width="606" height="804" viewBox="0 0 606 804" fill="none" xmlns="http://www.w3.org/2000/svg">
  <path d="M393.062 169.777V169.775C393.062 153.238 395.806 131.715 398.411 111.281C399.517 102.608 400.597 94.1314 401.432 86.3158C465.829 297.029 593.831 451.474 773.171 556.037C746.286 620.541 703.381 676.465 649.249 719.007C493.15 587.184 391.986 403.575 393.062 169.777ZM803.5 378.493V423.884C801.354 463.074 793.357 501.2 781.089 536.667C598.292 415.19 468.199 236.134 445.963 0.561824C640.089 21.3491 792.732 180.521 803.5 378.493ZM0.5 378.493C9.09924 221.232 107.158 88.1416 244.454 29.5807C224.958 79.6001 208.536 126.825 193.12 171.92C190.767 178.804 188.437 185.639 186.124 192.426C173.169 230.428 160.721 266.946 147.484 302.406C116.386 385.714 80.9461 463.156 24.4181 540.174C11.136 503.173 2.63828 464.052 0.5 423.342V378.493ZM424.904 803.5H379.636C259.653 796.481 153.647 737.184 84.1702 647.684C110.715 595.151 135.801 537.195 164.876 470.023C178.865 437.706 193.777 403.254 210.219 366.248C243.444 291.559 275.598 228.632 315.682 166.844C350.906 417.443 459.072 604.621 627.357 735.304C568.78 775.033 499.519 799.189 424.904 803.5Z" stroke="#F15A22" />
</svg>
