<svg width="150" height="150" viewBox="0 0 150 150" fill="none" xmlns="http://www.w3.org/2000/svg">
<path fill-rule="evenodd" clip-rule="evenodd" d="M150 70.6118V79.0855C149.597 86.4491 148.088 93.6113 145.774 100.269C111.569 77.572 87.223 44.0821 83.0985 0C119.416 3.83322 147.988 33.5912 150 70.6118ZM45.7746 5.34634C31.0865 42.9725 25.7545 72.1248 4.52715 100.975C2.01207 94.0147 0.402414 86.6506 0 78.9842V70.6118C1.60966 41.1568 20.0201 16.2407 45.7746 5.34634ZM74.8492 15.6355C74.3461 20.5783 73.2392 27.1351 73.2392 31.6744C73.0383 75.3528 91.9517 109.65 121.126 134.263C131.287 126.294 139.336 115.803 144.366 103.699C110.764 84.1287 86.8206 55.1779 74.8492 15.6355ZM15.5935 120.847C28.5714 137.592 48.3902 148.688 70.825 150H79.2758C93.2596 149.193 106.237 144.654 117.203 137.189C85.7142 112.777 65.4929 77.7739 58.9537 30.8675C51.4084 42.4678 45.3722 54.2703 39.1347 68.2919C29.678 89.5764 22.9376 106.321 15.5935 120.847Z" fill="#F15A22"/>
</svg>
