<svg width="76" height="76" viewBox="0 0 76 76" fill="none" xmlns="http://www.w3.org/2000/svg">
<path fill-rule="evenodd" clip-rule="evenodd" d="M75.0555 35.332V39.572C74.8539 43.2565 74.0989 46.8403 72.9411 50.1715C55.8259 38.8147 43.6437 22.0573 41.58 0C59.7523 1.91803 74.0485 16.808 75.0555 35.332ZM22.9042 2.67515C15.5547 21.5021 12.8868 36.0891 2.26525 50.5248C1.00678 47.0421 0.201356 43.3573 0 39.5213V35.332C0.805424 20.5936 10.0174 8.12637 22.9042 2.67515ZM37.4523 7.82352C37.2005 10.2968 36.6467 13.5776 36.6467 15.8489C36.5461 37.7043 46.0099 54.8656 60.608 67.1813C65.6923 63.1939 69.7195 57.9445 72.2363 51.8877C55.4232 42.0955 43.4424 27.6093 37.4523 7.82352ZM7.80253 60.4683C14.2963 68.8469 24.213 74.3992 35.4387 75.0555H39.6672C46.6643 74.6515 53.1579 72.3803 58.6448 68.6451C42.8888 56.4304 32.7707 38.9157 29.4987 15.4451C25.7232 21.2496 22.7029 27.1552 19.5818 34.1712C14.85 44.8213 11.4773 53.2 7.80253 60.4683Z" fill="#F15A22"/>
</svg>
