<svg width="156" height="134" viewBox="0 0 156 134" fill="none" xmlns="http://www.w3.org/2000/svg">
  <path d="M63.2656 50.7257L56.0933 86.9465H63.2656L70.438 50.7257H63.2656Z" fill="#3F5BAA" />
  <path d="M60.1278 50.7257H52.0001L38.3787 64.5732L41.1211 50.7257H33.9485L26.7764 86.9465H33.9485L37.1594 70.7322L46.4968 86.9465H54.9883L43.5124 68.2983L60.1278 50.7257Z" fill="#3F5BAA" />
  <path d="M126.085 50.7257H104.478L103.133 56.6128H111.052L105.045 86.9465H112.217L118.224 56.6128H125.009L126.085 50.7257Z" fill="#3F5BAA" />
  <path d="M80.6296 72.8405L88.2501 59.1233L90.9395 72.8405H80.6296ZM93.0916 50.7257H85.5604L65.2983 86.9465H73.5467L77.3123 79.2953H92.1956L93.7192 86.9465H101.519L93.0916 50.7257Z" fill="#3F5BAA" />
  <path d="M17.9603 74.9026L33.9483 31.9577C33.9483 31.9577 4.82727 56.3839 0 60.8862C11.6846 59.6611 16.3354 68.4632 17.9603 74.9026Z" fill="#3B85CA" />
  <path d="M119.39 96.8682L117.388 104.758C117.388 104.758 67.8169 151.781 22.1741 126.275C-8.30866 109.241 8.36723 63.6957 11.4155 62.4403C14.4638 61.1852 14.2844 65.6681 14.2844 65.6681C14.2844 65.6681 1.7188 105.294 41.1209 117.489C84.5743 130.937 119.39 96.8682 119.39 96.8682Z" fill="#3B85CA" />
  <path d="M156 69.7324L116.381 105.672C116.381 105.672 127.084 75.2557 128.625 68.8362C137.711 76.1878 149.596 71.4905 156 69.7324Z" fill="#7CCA62" />
  <path d="M31.0542 39.7325L33.2321 32.5594C33.2321 32.5594 89.5355 -20.401 135.439 8.76714C164.912 27.4953 144.255 75.0329 141.206 76.288C138.158 77.5432 138.337 73.0605 138.337 73.0605C138.337 73.0605 156.836 28.4913 113.563 15.4612C67.0986 1.47012 31.0542 39.7325 31.0542 39.7325Z" fill="#7CCA62" />
  <path d="M130.589 119.368V112.243H128.044V110.792H134.86V112.243H132.321V119.368H130.589Z" fill="#3F5BAA" />
  <path d="M136.853 119.368V110.792H139.444L141 116.642L142.539 110.792H145.136V119.368H143.527V112.618L141.825 119.368H140.158L138.461 112.618V119.368H136.853Z" fill="#3F5BAA" />
</svg>