<svg width="27" height="27" viewBox="0 0 27 27" fill="none" xmlns="http://www.w3.org/2000/svg">
<path d="M5.56065 14.4847C5.17269 11.6867 6.40121 8.93186 8.50263 7.12397C9.23543 4.76726 9.97901 2.41054 10.7118 0.0538254C6.62752 1.0331 3.0605 3.70189 1.25005 7.58671C-1.17466 12.7844 -0.0539091 19.3595 4.36446 23.438C8.16856 26.9462 13.7616 27.9901 18.7511 25.9992C16.8113 24.4926 14.8608 22.9968 12.921 21.4903C8.99835 20.9522 6.03481 17.9928 5.56065 14.4847ZM18.6433 19.2734C18.1691 19.79 17.6195 20.2097 17.0053 20.5325C18.8373 21.3073 20.6693 22.0929 22.5013 22.8677H22.6198C22.9 22.5879 23.1587 22.3081 23.4173 22.0176C23.9238 21.4257 24.3764 20.8015 24.7751 20.1343C23.0401 19.4133 21.3051 18.6923 19.5701 17.9713C19.3007 18.4448 18.9989 18.886 18.6433 19.2734ZM26.5102 12.2033C24.6458 12.2463 22.7707 12.2786 20.9064 12.3217C21.0034 12.8059 21.0357 13.3117 21.0249 13.8067C21.0034 14.4524 20.8848 15.0765 20.6801 15.6899C22.566 15.6684 24.4518 15.6469 26.3485 15.6361C26.5209 15.0227 26.6179 14.3878 26.6287 13.7529C26.6395 13.2256 26.6071 12.7091 26.5102 12.2033ZM19.2037 8.03868C19.624 8.5337 19.958 9.09328 20.2275 9.69591C21.7901 8.78121 23.3634 7.8665 24.926 6.96255C24.6566 6.42449 24.3549 5.91871 24.0208 5.42369C23.7083 4.96096 23.3634 4.53051 22.997 4.11082C21.359 5.05781 19.721 6.0048 18.0722 6.96255C18.4924 7.27463 18.8696 7.64051 19.2037 8.03868ZM14.7314 5.30532C15.3242 5.42369 15.8953 5.63892 16.4341 5.92947C17.1669 4.29376 17.9105 2.65805 18.6433 1.02234C18.0937 0.742546 17.5333 0.516559 16.9406 0.333618C16.4234 0.172199 15.8953 0.0645866 15.3565 -0.0107422C14.6021 1.72182 13.8478 3.44362 13.0934 5.17618C13.643 5.15466 14.1926 5.18694 14.7314 5.30532Z" fill="url(#paint0_linear_2110_5)"/>
<defs>
<linearGradient id="paint0_linear_2110_5" x1="3.45717" y1="14.2338" x2="24.9113" y2="12.5404" gradientUnits="userSpaceOnUse">
<stop stop-color="#921499"/>
<stop offset="1" stop-color="#661499"/>
</linearGradient>
</defs>
</svg>
