<svg width="841" height="221" viewBox="0 0 841 221" fill="none" xmlns="http://www.w3.org/2000/svg">
<rect y="144.416" width="105.03" height="39.3861" fill="white" fill-opacity="0.08"/>
<rect x="52.5137" y="150.98" width="2.18812" height="30.6337" fill="white" fill-opacity="0.08"/>
<path d="M46.9414 191.306C48.568 191.306 49.3814 192.516 49.3814 194.936C49.3814 196.103 49.178 196.989 48.7714 197.596C48.3647 198.203 47.768 198.506 46.9814 198.506C45.3547 198.506 44.5414 197.309 44.5414 194.916C44.5414 193.736 44.7447 192.839 45.1514 192.226C45.558 191.613 46.1547 191.306 46.9414 191.306ZM46.9514 192.266C46.7514 192.266 46.578 192.306 46.4314 192.386C46.2847 192.459 46.1647 192.576 46.0714 192.736C45.9847 192.889 45.9147 193.046 45.8614 193.206C45.808 193.359 45.768 193.556 45.7414 193.796C45.7214 194.036 45.708 194.236 45.7014 194.396C45.6947 194.549 45.6914 194.746 45.6914 194.986C45.6914 195.886 45.7914 196.539 45.9914 196.946C46.198 197.353 46.5247 197.556 46.9714 197.556C47.1447 197.556 47.298 197.523 47.4314 197.456C47.5714 197.383 47.6847 197.296 47.7714 197.196C47.858 197.096 47.9314 196.963 47.9914 196.796C48.0514 196.629 48.0947 196.479 48.1214 196.346C48.1547 196.206 48.178 196.036 48.1914 195.836C48.2114 195.629 48.2214 195.473 48.2214 195.366C48.228 195.253 48.2314 195.109 48.2314 194.936C48.2314 194.709 48.228 194.536 48.2214 194.416C48.2214 194.289 48.2114 194.103 48.1914 193.856C48.1714 193.603 48.1314 193.399 48.0714 193.246C48.018 193.093 47.9447 192.933 47.8514 192.766C47.7647 192.599 47.6447 192.476 47.4914 192.396C47.338 192.309 47.158 192.266 46.9514 192.266ZM52.498 191.306C54.1247 191.306 54.938 192.516 54.938 194.936C54.938 196.103 54.7347 196.989 54.328 197.596C53.9213 198.203 53.3247 198.506 52.538 198.506C50.9113 198.506 50.098 197.309 50.098 194.916C50.098 193.736 50.3013 192.839 50.708 192.226C51.1147 191.613 51.7113 191.306 52.498 191.306ZM52.508 192.266C52.308 192.266 52.1347 192.306 51.988 192.386C51.8413 192.459 51.7213 192.576 51.628 192.736C51.5413 192.889 51.4713 193.046 51.418 193.206C51.3647 193.359 51.3247 193.556 51.298 193.796C51.278 194.036 51.2647 194.236 51.258 194.396C51.2513 194.549 51.248 194.746 51.248 194.986C51.248 195.886 51.348 196.539 51.548 196.946C51.7547 197.353 52.0813 197.556 52.528 197.556C52.7013 197.556 52.8547 197.523 52.988 197.456C53.128 197.383 53.2413 197.296 53.328 197.196C53.4147 197.096 53.488 196.963 53.548 196.796C53.608 196.629 53.6513 196.479 53.678 196.346C53.7113 196.206 53.7347 196.036 53.748 195.836C53.768 195.629 53.778 195.473 53.778 195.366C53.7847 195.253 53.788 195.109 53.788 194.936C53.788 194.709 53.7847 194.536 53.778 194.416C53.778 194.289 53.768 194.103 53.748 193.856C53.728 193.603 53.688 193.399 53.628 193.246C53.5747 193.093 53.5013 192.933 53.408 192.766C53.3213 192.599 53.2013 192.476 53.048 192.396C52.8947 192.309 52.7147 192.266 52.508 192.266ZM59.0646 191.326V198.366H57.8446V193.526H56.1046V192.686C57.318 192.686 57.998 192.233 58.1446 191.326H59.0646Z" fill="white"/>
<path d="M46.9414 105.97C48.568 105.97 49.3814 107.18 49.3814 109.6C49.3814 110.766 49.178 111.653 48.7714 112.26C48.3647 112.866 47.768 113.17 46.9814 113.17C45.3547 113.17 44.5414 111.973 44.5414 109.58C44.5414 108.4 44.7447 107.503 45.1514 106.89C45.558 106.276 46.1547 105.97 46.9414 105.97ZM46.9514 106.93C46.7514 106.93 46.578 106.97 46.4314 107.05C46.2847 107.123 46.1647 107.24 46.0714 107.4C45.9847 107.553 45.9147 107.71 45.8614 107.87C45.808 108.023 45.768 108.22 45.7414 108.46C45.7214 108.7 45.708 108.9 45.7014 109.06C45.6947 109.213 45.6914 109.41 45.6914 109.65C45.6914 110.55 45.7914 111.203 45.9914 111.61C46.198 112.016 46.5247 112.22 46.9714 112.22C47.1447 112.22 47.298 112.186 47.4314 112.12C47.5714 112.046 47.6847 111.96 47.7714 111.86C47.858 111.76 47.9314 111.626 47.9914 111.46C48.0514 111.293 48.0947 111.143 48.1214 111.01C48.1547 110.87 48.178 110.7 48.1914 110.5C48.2114 110.293 48.2214 110.136 48.2214 110.03C48.228 109.916 48.2314 109.773 48.2314 109.6C48.2314 109.373 48.228 109.2 48.2214 109.08C48.2214 108.953 48.2114 108.766 48.1914 108.52C48.1714 108.266 48.1314 108.063 48.0714 107.91C48.018 107.756 47.9447 107.596 47.8514 107.43C47.7647 107.263 47.6447 107.14 47.4914 107.06C47.338 106.973 47.158 106.93 46.9514 106.93ZM52.498 105.97C54.1247 105.97 54.938 107.18 54.938 109.6C54.938 110.766 54.7347 111.653 54.328 112.26C53.9213 112.866 53.3247 113.17 52.538 113.17C50.9113 113.17 50.098 111.973 50.098 109.58C50.098 108.4 50.3013 107.503 50.708 106.89C51.1147 106.276 51.7113 105.97 52.498 105.97ZM52.508 106.93C52.308 106.93 52.1347 106.97 51.988 107.05C51.8413 107.123 51.7213 107.24 51.628 107.4C51.5413 107.553 51.4713 107.71 51.418 107.87C51.3647 108.023 51.3247 108.22 51.298 108.46C51.278 108.7 51.2647 108.9 51.258 109.06C51.2513 109.213 51.248 109.41 51.248 109.65C51.248 110.55 51.348 111.203 51.548 111.61C51.7547 112.016 52.0813 112.22 52.528 112.22C52.7013 112.22 52.8547 112.186 52.988 112.12C53.128 112.046 53.2413 111.96 53.328 111.86C53.4147 111.76 53.488 111.626 53.548 111.46C53.608 111.293 53.6513 111.143 53.678 111.01C53.7113 110.87 53.7347 110.7 53.748 110.5C53.768 110.293 53.778 110.136 53.778 110.03C53.7847 109.916 53.788 109.773 53.788 109.6C53.788 109.373 53.7847 109.2 53.778 109.08C53.778 108.953 53.768 108.766 53.748 108.52C53.728 108.266 53.688 108.063 53.628 107.91C53.5747 107.756 53.5013 107.596 53.408 107.43C53.3213 107.263 53.2013 107.14 53.048 107.06C52.8947 106.973 52.7147 106.93 52.508 106.93ZM59.0646 105.99V113.03H57.8446V108.19H56.1046V107.35C57.318 107.35 57.998 106.896 58.1446 105.99H59.0646Z" fill="white"/>
<rect opacity="0.16" x="122.534" y="96.2772" width="105.03" height="87.5247" fill="#EF4335"/>
<rect x="175.048" y="107.218" width="2.18812" height="74.396" fill="white" fill-opacity="0.08"/>
<path d="M169.476 191.306C171.102 191.306 171.916 192.516 171.916 194.936C171.916 196.103 171.712 196.99 171.306 197.596C170.899 198.203 170.302 198.506 169.516 198.506C167.889 198.506 167.076 197.31 167.076 194.916C167.076 193.736 167.279 192.84 167.686 192.226C168.092 191.613 168.689 191.306 169.476 191.306ZM169.486 192.266C169.286 192.266 169.112 192.306 168.966 192.386C168.819 192.46 168.699 192.576 168.606 192.736C168.519 192.89 168.449 193.046 168.396 193.206C168.342 193.36 168.302 193.556 168.276 193.796C168.256 194.036 168.242 194.236 168.236 194.396C168.229 194.55 168.226 194.746 168.226 194.986C168.226 195.886 168.326 196.54 168.526 196.946C168.732 197.353 169.059 197.556 169.506 197.556C169.679 197.556 169.832 197.523 169.966 197.456C170.106 197.383 170.219 197.296 170.306 197.196C170.392 197.096 170.466 196.963 170.526 196.796C170.586 196.63 170.629 196.48 170.656 196.346C170.689 196.206 170.712 196.036 170.726 195.836C170.746 195.63 170.756 195.473 170.756 195.366C170.762 195.253 170.766 195.11 170.766 194.936C170.766 194.71 170.762 194.536 170.756 194.416C170.756 194.29 170.746 194.103 170.726 193.856C170.706 193.603 170.666 193.4 170.606 193.246C170.552 193.093 170.479 192.933 170.386 192.766C170.299 192.6 170.179 192.476 170.026 192.396C169.872 192.31 169.692 192.266 169.486 192.266ZM175.032 191.306C176.659 191.306 177.472 192.516 177.472 194.936C177.472 196.103 177.269 196.99 176.862 197.596C176.456 198.203 175.859 198.506 175.072 198.506C173.446 198.506 172.632 197.31 172.632 194.916C172.632 193.736 172.836 192.84 173.242 192.226C173.649 191.613 174.246 191.306 175.032 191.306ZM175.042 192.266C174.842 192.266 174.669 192.306 174.522 192.386C174.376 192.46 174.256 192.576 174.162 192.736C174.076 192.89 174.006 193.046 173.952 193.206C173.899 193.36 173.859 193.556 173.832 193.796C173.812 194.036 173.799 194.236 173.792 194.396C173.786 194.55 173.782 194.746 173.782 194.986C173.782 195.886 173.882 196.54 174.082 196.946C174.289 197.353 174.616 197.556 175.062 197.556C175.236 197.556 175.389 197.523 175.522 197.456C175.662 197.383 175.776 197.296 175.862 197.196C175.949 197.096 176.022 196.963 176.082 196.796C176.142 196.63 176.186 196.48 176.212 196.346C176.246 196.206 176.269 196.036 176.282 195.836C176.302 195.63 176.312 195.473 176.312 195.366C176.319 195.253 176.322 195.11 176.322 194.936C176.322 194.71 176.319 194.536 176.312 194.416C176.312 194.29 176.302 194.103 176.282 193.856C176.262 193.603 176.222 193.4 176.162 193.246C176.109 193.093 176.036 192.933 175.942 192.766C175.856 192.6 175.736 192.476 175.582 192.396C175.429 192.31 175.249 192.266 175.042 192.266ZM182.839 197.356V198.366H178.059C178.065 198.053 178.109 197.766 178.189 197.506C178.269 197.246 178.359 197.026 178.459 196.846C178.565 196.66 178.719 196.473 178.919 196.286C179.125 196.093 179.309 195.936 179.469 195.816C179.635 195.69 179.862 195.53 180.149 195.336C180.169 195.323 180.265 195.26 180.439 195.146C180.619 195.026 180.729 194.953 180.769 194.926C180.809 194.893 180.899 194.823 181.039 194.716C181.179 194.603 181.269 194.513 181.309 194.446C181.355 194.38 181.415 194.29 181.489 194.176C181.569 194.063 181.622 193.95 181.649 193.836C181.675 193.716 181.689 193.59 181.689 193.456C181.689 193.09 181.585 192.803 181.379 192.596C181.179 192.383 180.905 192.276 180.559 192.276C180.359 192.276 180.185 192.31 180.039 192.376C179.892 192.436 179.775 192.516 179.689 192.616C179.609 192.716 179.542 192.846 179.489 193.006C179.435 193.16 179.399 193.306 179.379 193.446C179.365 193.586 179.355 193.75 179.349 193.936H178.239V193.756C178.239 193.003 178.449 192.406 178.869 191.966C179.295 191.52 179.869 191.296 180.589 191.296C181.269 191.296 181.815 191.49 182.229 191.876C182.642 192.256 182.849 192.763 182.849 193.396C182.849 193.65 182.809 193.89 182.729 194.116C182.649 194.343 182.562 194.526 182.469 194.666C182.382 194.806 182.229 194.97 182.009 195.156C181.789 195.343 181.625 195.473 181.519 195.546C181.412 195.62 181.215 195.753 180.929 195.946C180.095 196.486 179.595 196.956 179.429 197.356H182.839Z" fill="#EF4335"/>
<path d="M169.476 53.4549C171.102 53.4549 171.916 54.6649 171.916 57.0849C171.916 58.2515 171.712 59.1382 171.306 59.7449C170.899 60.3515 170.302 60.6549 169.516 60.6549C167.889 60.6549 167.076 59.4582 167.076 57.0649C167.076 55.8849 167.279 54.9882 167.686 54.3749C168.092 53.7615 168.689 53.4549 169.476 53.4549ZM169.486 54.4149C169.286 54.4149 169.112 54.4549 168.966 54.5349C168.819 54.6082 168.699 54.7249 168.606 54.8849C168.519 55.0382 168.449 55.1949 168.396 55.3549C168.342 55.5082 168.302 55.7049 168.276 55.9449C168.256 56.1849 168.242 56.3849 168.236 56.5449C168.229 56.6982 168.226 56.8949 168.226 57.1349C168.226 58.0349 168.326 58.6882 168.526 59.0949C168.732 59.5015 169.059 59.7049 169.506 59.7049C169.679 59.7049 169.832 59.6715 169.966 59.6049C170.106 59.5315 170.219 59.4449 170.306 59.3449C170.392 59.2449 170.466 59.1115 170.526 58.9449C170.586 58.7782 170.629 58.6282 170.656 58.4949C170.689 58.3549 170.712 58.1849 170.726 57.9849C170.746 57.7782 170.756 57.6215 170.756 57.5149C170.762 57.4015 170.766 57.2582 170.766 57.0849C170.766 56.8582 170.762 56.6849 170.756 56.5649C170.756 56.4382 170.746 56.2515 170.726 56.0049C170.706 55.7515 170.666 55.5482 170.606 55.3949C170.552 55.2415 170.479 55.0815 170.386 54.9149C170.299 54.7482 170.179 54.6249 170.026 54.5449C169.872 54.4582 169.692 54.4149 169.486 54.4149ZM175.032 53.4549C176.659 53.4549 177.472 54.6649 177.472 57.0849C177.472 58.2515 177.269 59.1382 176.862 59.7449C176.456 60.3515 175.859 60.6549 175.072 60.6549C173.446 60.6549 172.632 59.4582 172.632 57.0649C172.632 55.8849 172.836 54.9882 173.242 54.3749C173.649 53.7615 174.246 53.4549 175.032 53.4549ZM175.042 54.4149C174.842 54.4149 174.669 54.4549 174.522 54.5349C174.376 54.6082 174.256 54.7249 174.162 54.8849C174.076 55.0382 174.006 55.1949 173.952 55.3549C173.899 55.5082 173.859 55.7049 173.832 55.9449C173.812 56.1849 173.799 56.3849 173.792 56.5449C173.786 56.6982 173.782 56.8949 173.782 57.1349C173.782 58.0349 173.882 58.6882 174.082 59.0949C174.289 59.5015 174.616 59.7049 175.062 59.7049C175.236 59.7049 175.389 59.6715 175.522 59.6049C175.662 59.5315 175.776 59.4449 175.862 59.3449C175.949 59.2449 176.022 59.1115 176.082 58.9449C176.142 58.7782 176.186 58.6282 176.212 58.4949C176.246 58.3549 176.269 58.1849 176.282 57.9849C176.302 57.7782 176.312 57.6215 176.312 57.5149C176.319 57.4015 176.322 57.2582 176.322 57.0849C176.322 56.8582 176.319 56.6849 176.312 56.5649C176.312 56.4382 176.302 56.2515 176.282 56.0049C176.262 55.7515 176.222 55.5482 176.162 55.3949C176.109 55.2415 176.036 55.0815 175.942 54.9149C175.856 54.7482 175.736 54.6249 175.582 54.5449C175.429 54.4582 175.249 54.4149 175.042 54.4149ZM182.839 59.5049V60.5149H178.059C178.065 60.2015 178.109 59.9149 178.189 59.6549C178.269 59.3949 178.359 59.1749 178.459 58.9949C178.565 58.8082 178.719 58.6215 178.919 58.4349C179.125 58.2415 179.309 58.0849 179.469 57.9649C179.635 57.8382 179.862 57.6782 180.149 57.4849C180.169 57.4715 180.265 57.4082 180.439 57.2949C180.619 57.1749 180.729 57.1015 180.769 57.0749C180.809 57.0415 180.899 56.9715 181.039 56.8649C181.179 56.7515 181.269 56.6615 181.309 56.5949C181.355 56.5282 181.415 56.4382 181.489 56.3249C181.569 56.2115 181.622 56.0982 181.649 55.9849C181.675 55.8649 181.689 55.7382 181.689 55.6049C181.689 55.2382 181.585 54.9515 181.379 54.7449C181.179 54.5315 180.905 54.4249 180.559 54.4249C180.359 54.4249 180.185 54.4582 180.039 54.5249C179.892 54.5849 179.775 54.6649 179.689 54.7649C179.609 54.8649 179.542 54.9949 179.489 55.1549C179.435 55.3082 179.399 55.4549 179.379 55.5949C179.365 55.7349 179.355 55.8982 179.349 56.0849H178.239V55.9049C178.239 55.1515 178.449 54.5549 178.869 54.1149C179.295 53.6682 179.869 53.4449 180.589 53.4449C181.269 53.4449 181.815 53.6382 182.229 54.0249C182.642 54.4049 182.849 54.9115 182.849 55.5449C182.849 55.7982 182.809 56.0382 182.729 56.2649C182.649 56.4915 182.562 56.6749 182.469 56.8149C182.382 56.9549 182.229 57.1182 182.009 57.3049C181.789 57.4915 181.625 57.6215 181.519 57.6949C181.412 57.7682 181.215 57.9015 180.929 58.0949C180.095 58.6349 179.595 59.1049 179.429 59.5049H182.839Z" fill="#EF4335"/>
<rect x="245.067" y="133.475" width="105.03" height="50.3267" fill="white" fill-opacity="0.08"/>
<rect x="297.581" y="140.04" width="2.18812" height="41.5743" fill="white" fill-opacity="0.08"/>
<path d="M292.01 191.306C293.636 191.306 294.45 192.516 294.45 194.936C294.45 196.103 294.246 196.99 293.84 197.596C293.433 198.203 292.836 198.506 292.05 198.506C290.423 198.506 289.61 197.31 289.61 194.916C289.61 193.736 289.813 192.84 290.22 192.226C290.626 191.613 291.223 191.306 292.01 191.306ZM292.02 192.266C291.82 192.266 291.646 192.306 291.5 192.386C291.353 192.46 291.233 192.576 291.14 192.736C291.053 192.89 290.983 193.046 290.93 193.206C290.876 193.36 290.836 193.556 290.81 193.796C290.79 194.036 290.776 194.236 290.77 194.396C290.763 194.55 290.76 194.746 290.76 194.986C290.76 195.886 290.86 196.54 291.06 196.946C291.266 197.353 291.593 197.556 292.04 197.556C292.213 197.556 292.366 197.523 292.5 197.456C292.64 197.383 292.753 197.296 292.84 197.196C292.926 197.096 293 196.963 293.06 196.796C293.12 196.63 293.163 196.48 293.19 196.346C293.223 196.206 293.246 196.036 293.26 195.836C293.28 195.63 293.29 195.473 293.29 195.366C293.296 195.253 293.3 195.11 293.3 194.936C293.3 194.71 293.296 194.536 293.29 194.416C293.29 194.29 293.28 194.103 293.26 193.856C293.24 193.603 293.2 193.4 293.14 193.246C293.086 193.093 293.013 192.933 292.92 192.766C292.833 192.6 292.713 192.476 292.56 192.396C292.406 192.31 292.226 192.266 292.02 192.266ZM297.566 191.306C299.193 191.306 300.006 192.516 300.006 194.936C300.006 196.103 299.803 196.99 299.396 197.596C298.99 198.203 298.393 198.506 297.606 198.506C295.98 198.506 295.166 197.31 295.166 194.916C295.166 193.736 295.37 192.84 295.776 192.226C296.183 191.613 296.78 191.306 297.566 191.306ZM297.576 192.266C297.376 192.266 297.203 192.306 297.056 192.386C296.91 192.46 296.79 192.576 296.696 192.736C296.61 192.89 296.54 193.046 296.486 193.206C296.433 193.36 296.393 193.556 296.366 193.796C296.346 194.036 296.333 194.236 296.326 194.396C296.32 194.55 296.316 194.746 296.316 194.986C296.316 195.886 296.416 196.54 296.616 196.946C296.823 197.353 297.15 197.556 297.596 197.556C297.77 197.556 297.923 197.523 298.056 197.456C298.196 197.383 298.31 197.296 298.396 197.196C298.483 197.096 298.556 196.963 298.616 196.796C298.676 196.63 298.72 196.48 298.746 196.346C298.78 196.206 298.803 196.036 298.816 195.836C298.836 195.63 298.846 195.473 298.846 195.366C298.853 195.253 298.856 195.11 298.856 194.936C298.856 194.71 298.853 194.536 298.846 194.416C298.846 194.29 298.836 194.103 298.816 193.856C298.796 193.603 298.756 193.4 298.696 193.246C298.643 193.093 298.57 192.933 298.476 192.766C298.39 192.6 298.27 192.476 298.116 192.396C297.963 192.31 297.783 192.266 297.576 192.266ZM300.803 193.616C300.823 192.896 301.036 192.33 301.443 191.916C301.85 191.503 302.396 191.296 303.083 191.296C303.73 191.296 304.253 191.47 304.653 191.816C305.053 192.163 305.253 192.616 305.253 193.176C305.253 193.516 305.163 193.816 304.983 194.076C304.81 194.33 304.573 194.506 304.273 194.606C304.666 194.706 304.976 194.903 305.203 195.196C305.43 195.483 305.543 195.836 305.543 196.256C305.543 196.923 305.313 197.466 304.853 197.886C304.393 198.306 303.796 198.516 303.063 198.516C302.336 198.516 301.75 198.306 301.303 197.886C300.856 197.466 300.633 196.91 300.633 196.216V196.066H301.733C301.766 197.046 302.22 197.536 303.093 197.536C303.48 197.536 303.786 197.426 304.013 197.206C304.24 196.98 304.353 196.673 304.353 196.286C304.353 195.88 304.223 195.583 303.963 195.396C303.703 195.21 303.366 195.116 302.953 195.116C302.826 195.116 302.706 195.12 302.593 195.126V194.266H302.693C302.9 194.266 303.076 194.256 303.223 194.236C303.37 194.21 303.516 194.166 303.663 194.106C303.816 194.04 303.933 193.936 304.013 193.796C304.093 193.65 304.133 193.47 304.133 193.256C304.133 192.95 304.036 192.703 303.843 192.516C303.65 192.33 303.39 192.236 303.063 192.236C302.316 192.236 301.926 192.696 301.893 193.616H300.803Z" fill="white"/>
<path d="M292.01 95.0291C293.636 95.0291 294.45 96.2391 294.45 98.6591C294.45 99.8258 294.246 100.712 293.84 101.319C293.433 101.926 292.836 102.229 292.05 102.229C290.423 102.229 289.61 101.032 289.61 98.6391C289.61 97.4591 289.813 96.5624 290.22 95.9491C290.626 95.3358 291.223 95.0291 292.01 95.0291ZM292.02 95.9891C291.82 95.9891 291.646 96.0291 291.5 96.1091C291.353 96.1824 291.233 96.2991 291.14 96.4591C291.053 96.6124 290.983 96.7691 290.93 96.9291C290.876 97.0824 290.836 97.2791 290.81 97.5191C290.79 97.7591 290.776 97.9591 290.77 98.1191C290.763 98.2724 290.76 98.4691 290.76 98.7091C290.76 99.6091 290.86 100.262 291.06 100.669C291.266 101.076 291.593 101.279 292.04 101.279C292.213 101.279 292.366 101.246 292.5 101.179C292.64 101.106 292.753 101.019 292.84 100.919C292.926 100.819 293 100.686 293.06 100.519C293.12 100.352 293.163 100.202 293.19 100.069C293.223 99.9291 293.246 99.7591 293.26 99.5591C293.28 99.3524 293.29 99.1958 293.29 99.0891C293.296 98.9758 293.3 98.8324 293.3 98.6591C293.3 98.4324 293.296 98.2591 293.29 98.1391C293.29 98.0124 293.28 97.8258 293.26 97.5791C293.24 97.3258 293.2 97.1224 293.14 96.9691C293.086 96.8158 293.013 96.6558 292.92 96.4891C292.833 96.3224 292.713 96.1991 292.56 96.1191C292.406 96.0324 292.226 95.9891 292.02 95.9891ZM297.566 95.0291C299.193 95.0291 300.006 96.2391 300.006 98.6591C300.006 99.8258 299.803 100.712 299.396 101.319C298.99 101.926 298.393 102.229 297.606 102.229C295.98 102.229 295.166 101.032 295.166 98.6391C295.166 97.4591 295.37 96.5624 295.776 95.9491C296.183 95.3358 296.78 95.0291 297.566 95.0291ZM297.576 95.9891C297.376 95.9891 297.203 96.0291 297.056 96.1091C296.91 96.1824 296.79 96.2991 296.696 96.4591C296.61 96.6124 296.54 96.7691 296.486 96.9291C296.433 97.0824 296.393 97.2791 296.366 97.5191C296.346 97.7591 296.333 97.9591 296.326 98.1191C296.32 98.2724 296.316 98.4691 296.316 98.7091C296.316 99.6091 296.416 100.262 296.616 100.669C296.823 101.076 297.15 101.279 297.596 101.279C297.77 101.279 297.923 101.246 298.056 101.179C298.196 101.106 298.31 101.019 298.396 100.919C298.483 100.819 298.556 100.686 298.616 100.519C298.676 100.352 298.72 100.202 298.746 100.069C298.78 99.9291 298.803 99.7591 298.816 99.5591C298.836 99.3524 298.846 99.1958 298.846 99.0891C298.853 98.9758 298.856 98.8324 298.856 98.6591C298.856 98.4324 298.853 98.2591 298.846 98.1391C298.846 98.0124 298.836 97.8258 298.816 97.5791C298.796 97.3258 298.756 97.1224 298.696 96.9691C298.643 96.8158 298.57 96.6558 298.476 96.4891C298.39 96.3224 298.27 96.1991 298.116 96.1191C297.963 96.0324 297.783 95.9891 297.576 95.9891ZM300.803 97.3391C300.823 96.6191 301.036 96.0524 301.443 95.6391C301.85 95.2258 302.396 95.0191 303.083 95.0191C303.73 95.0191 304.253 95.1924 304.653 95.5391C305.053 95.8858 305.253 96.3391 305.253 96.8991C305.253 97.2391 305.163 97.5391 304.983 97.7991C304.81 98.0524 304.573 98.2291 304.273 98.3291C304.666 98.4291 304.976 98.6258 305.203 98.9191C305.43 99.2058 305.543 99.5591 305.543 99.9791C305.543 100.646 305.313 101.189 304.853 101.609C304.393 102.029 303.796 102.239 303.063 102.239C302.336 102.239 301.75 102.029 301.303 101.609C300.856 101.189 300.633 100.632 300.633 99.9391V99.7891H301.733C301.766 100.769 302.22 101.259 303.093 101.259C303.48 101.259 303.786 101.149 304.013 100.929C304.24 100.702 304.353 100.396 304.353 100.009C304.353 99.6024 304.223 99.3058 303.963 99.1191C303.703 98.9324 303.366 98.8391 302.953 98.8391C302.826 98.8391 302.706 98.8424 302.593 98.8491V97.9891H302.693C302.9 97.9891 303.076 97.9791 303.223 97.9591C303.37 97.9324 303.516 97.8891 303.663 97.8291C303.816 97.7624 303.933 97.6591 304.013 97.5191C304.093 97.3724 304.133 97.1924 304.133 96.9791C304.133 96.6724 304.036 96.4258 303.843 96.2391C303.65 96.0524 303.39 95.9591 303.063 95.9591C302.316 95.9591 301.926 96.4191 301.893 97.3391H300.803Z" fill="white"/>
<rect x="367.605" y="102.842" width="105.03" height="80.9604" fill="white" fill-opacity="0.08"/>
<rect x="420.119" y="109.406" width="2.18812" height="72.2079" fill="white" fill-opacity="0.08"/>
<path d="M414.546 191.306C416.173 191.306 416.986 192.516 416.986 194.936C416.986 196.103 416.783 196.99 416.376 197.596C415.969 198.203 415.373 198.506 414.586 198.506C412.959 198.506 412.146 197.31 412.146 194.916C412.146 193.736 412.349 192.84 412.756 192.226C413.163 191.613 413.759 191.306 414.546 191.306ZM414.556 192.266C414.356 192.266 414.183 192.306 414.036 192.386C413.889 192.46 413.769 192.576 413.676 192.736C413.589 192.89 413.519 193.046 413.466 193.206C413.413 193.36 413.373 193.556 413.346 193.796C413.326 194.036 413.313 194.236 413.306 194.396C413.299 194.55 413.296 194.746 413.296 194.986C413.296 195.886 413.396 196.54 413.596 196.946C413.803 197.353 414.129 197.556 414.576 197.556C414.749 197.556 414.903 197.523 415.036 197.456C415.176 197.383 415.289 197.296 415.376 197.196C415.463 197.096 415.536 196.963 415.596 196.796C415.656 196.63 415.699 196.48 415.726 196.346C415.759 196.206 415.783 196.036 415.796 195.836C415.816 195.63 415.826 195.473 415.826 195.366C415.833 195.253 415.836 195.11 415.836 194.936C415.836 194.71 415.833 194.536 415.826 194.416C415.826 194.29 415.816 194.103 415.796 193.856C415.776 193.603 415.736 193.4 415.676 193.246C415.623 193.093 415.549 192.933 415.456 192.766C415.369 192.6 415.249 192.476 415.096 192.396C414.943 192.31 414.763 192.266 414.556 192.266ZM420.102 191.306C421.729 191.306 422.542 192.516 422.542 194.936C422.542 196.103 422.339 196.99 421.932 197.596C421.526 198.203 420.929 198.506 420.142 198.506C418.516 198.506 417.702 197.31 417.702 194.916C417.702 193.736 417.906 192.84 418.312 192.226C418.719 191.613 419.316 191.306 420.102 191.306ZM420.112 192.266C419.912 192.266 419.739 192.306 419.592 192.386C419.446 192.46 419.326 192.576 419.232 192.736C419.146 192.89 419.076 193.046 419.022 193.206C418.969 193.36 418.929 193.556 418.902 193.796C418.882 194.036 418.869 194.236 418.862 194.396C418.856 194.55 418.852 194.746 418.852 194.986C418.852 195.886 418.952 196.54 419.152 196.946C419.359 197.353 419.686 197.556 420.132 197.556C420.306 197.556 420.459 197.523 420.592 197.456C420.732 197.383 420.846 197.296 420.932 197.196C421.019 197.096 421.092 196.963 421.152 196.796C421.212 196.63 421.256 196.48 421.282 196.346C421.316 196.206 421.339 196.036 421.352 195.836C421.372 195.63 421.382 195.473 421.382 195.366C421.389 195.253 421.392 195.11 421.392 194.936C421.392 194.71 421.389 194.536 421.382 194.416C421.382 194.29 421.372 194.103 421.352 193.856C421.332 193.603 421.292 193.4 421.232 193.246C421.179 193.093 421.106 192.933 421.012 192.766C420.926 192.6 420.806 192.476 420.652 192.396C420.499 192.31 420.319 192.266 420.112 192.266ZM428.119 195.746V196.706H427.229V198.366H426.129L426.119 196.706H423.149V195.576L426.149 191.306H427.229V195.746H428.119ZM426.139 195.746V192.716L424.089 195.746H426.139Z" fill="white"/>
<path d="M414.546 62.2073C416.173 62.2073 416.986 63.4173 416.986 65.8373C416.986 67.004 416.783 67.8906 416.376 68.4973C415.969 69.104 415.373 69.4073 414.586 69.4073C412.959 69.4073 412.146 68.2106 412.146 65.8173C412.146 64.6373 412.349 63.7406 412.756 63.1273C413.163 62.514 413.759 62.2073 414.546 62.2073ZM414.556 63.1673C414.356 63.1673 414.183 63.2073 414.036 63.2873C413.889 63.3606 413.769 63.4773 413.676 63.6373C413.589 63.7906 413.519 63.9473 413.466 64.1073C413.413 64.2606 413.373 64.4573 413.346 64.6973C413.326 64.9373 413.313 65.1373 413.306 65.2973C413.299 65.4506 413.296 65.6473 413.296 65.8873C413.296 66.7873 413.396 67.4406 413.596 67.8473C413.803 68.254 414.129 68.4573 414.576 68.4573C414.749 68.4573 414.903 68.424 415.036 68.3573C415.176 68.284 415.289 68.1973 415.376 68.0973C415.463 67.9973 415.536 67.864 415.596 67.6973C415.656 67.5306 415.699 67.3806 415.726 67.2473C415.759 67.1073 415.783 66.9373 415.796 66.7373C415.816 66.5306 415.826 66.374 415.826 66.2673C415.833 66.154 415.836 66.0106 415.836 65.8373C415.836 65.6106 415.833 65.4373 415.826 65.3173C415.826 65.1906 415.816 65.004 415.796 64.7573C415.776 64.504 415.736 64.3006 415.676 64.1473C415.623 63.994 415.549 63.834 415.456 63.6673C415.369 63.5006 415.249 63.3773 415.096 63.2973C414.943 63.2106 414.763 63.1673 414.556 63.1673ZM420.102 62.2073C421.729 62.2073 422.542 63.4173 422.542 65.8373C422.542 67.004 422.339 67.8906 421.932 68.4973C421.526 69.104 420.929 69.4073 420.142 69.4073C418.516 69.4073 417.702 68.2106 417.702 65.8173C417.702 64.6373 417.906 63.7406 418.312 63.1273C418.719 62.514 419.316 62.2073 420.102 62.2073ZM420.112 63.1673C419.912 63.1673 419.739 63.2073 419.592 63.2873C419.446 63.3606 419.326 63.4773 419.232 63.6373C419.146 63.7906 419.076 63.9473 419.022 64.1073C418.969 64.2606 418.929 64.4573 418.902 64.6973C418.882 64.9373 418.869 65.1373 418.862 65.2973C418.856 65.4506 418.852 65.6473 418.852 65.8873C418.852 66.7873 418.952 67.4406 419.152 67.8473C419.359 68.254 419.686 68.4573 420.132 68.4573C420.306 68.4573 420.459 68.424 420.592 68.3573C420.732 68.284 420.846 68.1973 420.932 68.0973C421.019 67.9973 421.092 67.864 421.152 67.6973C421.212 67.5306 421.256 67.3806 421.282 67.2473C421.316 67.1073 421.339 66.9373 421.352 66.7373C421.372 66.5306 421.382 66.374 421.382 66.2673C421.389 66.154 421.392 66.0106 421.392 65.8373C421.392 65.6106 421.389 65.4373 421.382 65.3173C421.382 65.1906 421.372 65.004 421.352 64.7573C421.332 64.504 421.292 64.3006 421.232 64.1473C421.179 63.994 421.106 63.834 421.012 63.6673C420.926 63.5006 420.806 63.3773 420.652 63.2973C420.499 63.2106 420.319 63.1673 420.112 63.1673ZM428.119 66.6473V67.6073H427.229V69.2673H426.129L426.119 67.6073H423.149V66.4773L426.149 62.2073H427.229V66.6473H428.119ZM426.139 66.6473V63.6173L424.089 66.6473H426.139Z" fill="white"/>
<rect x="490.14" y="91.9011" width="105.03" height="91.901" fill="white" fill-opacity="0.08"/>
<rect x="542.653" y="98.4655" width="2.18812" height="83.1485" fill="white" fill-opacity="0.08"/>
<path d="M537.08 191.306C538.707 191.306 539.52 192.516 539.52 194.936C539.52 196.103 539.317 196.99 538.91 197.596C538.503 198.203 537.907 198.506 537.12 198.506C535.493 198.506 534.68 197.31 534.68 194.916C534.68 193.736 534.883 192.84 535.29 192.226C535.697 191.613 536.293 191.306 537.08 191.306ZM537.09 192.266C536.89 192.266 536.717 192.306 536.57 192.386C536.423 192.46 536.303 192.576 536.21 192.736C536.123 192.89 536.053 193.046 536 193.206C535.947 193.36 535.907 193.556 535.88 193.796C535.86 194.036 535.847 194.236 535.84 194.396C535.833 194.55 535.83 194.746 535.83 194.986C535.83 195.886 535.93 196.54 536.13 196.946C536.337 197.353 536.663 197.556 537.11 197.556C537.283 197.556 537.437 197.523 537.57 197.456C537.71 197.383 537.823 197.296 537.91 197.196C537.997 197.096 538.07 196.963 538.13 196.796C538.19 196.63 538.233 196.48 538.26 196.346C538.293 196.206 538.317 196.036 538.33 195.836C538.35 195.63 538.36 195.473 538.36 195.366C538.367 195.253 538.37 195.11 538.37 194.936C538.37 194.71 538.367 194.536 538.36 194.416C538.36 194.29 538.35 194.103 538.33 193.856C538.31 193.603 538.27 193.4 538.21 193.246C538.157 193.093 538.083 192.933 537.99 192.766C537.903 192.6 537.783 192.476 537.63 192.396C537.477 192.31 537.297 192.266 537.09 192.266ZM542.637 191.306C544.263 191.306 545.077 192.516 545.077 194.936C545.077 196.103 544.873 196.99 544.467 197.596C544.06 198.203 543.463 198.506 542.677 198.506C541.05 198.506 540.237 197.31 540.237 194.916C540.237 193.736 540.44 192.84 540.847 192.226C541.253 191.613 541.85 191.306 542.637 191.306ZM542.647 192.266C542.447 192.266 542.273 192.306 542.127 192.386C541.98 192.46 541.86 192.576 541.767 192.736C541.68 192.89 541.61 193.046 541.557 193.206C541.503 193.36 541.463 193.556 541.437 193.796C541.417 194.036 541.403 194.236 541.397 194.396C541.39 194.55 541.387 194.746 541.387 194.986C541.387 195.886 541.487 196.54 541.687 196.946C541.893 197.353 542.22 197.556 542.667 197.556C542.84 197.556 542.993 197.523 543.127 197.456C543.267 197.383 543.38 197.296 543.467 197.196C543.553 197.096 543.627 196.963 543.687 196.796C543.747 196.63 543.79 196.48 543.817 196.346C543.85 196.206 543.873 196.036 543.887 195.836C543.907 195.63 543.917 195.473 543.917 195.366C543.923 195.253 543.927 195.11 543.927 194.936C543.927 194.71 543.923 194.536 543.917 194.416C543.917 194.29 543.907 194.103 543.887 193.856C543.867 193.603 543.827 193.4 543.767 193.246C543.713 193.093 543.64 192.933 543.547 192.766C543.46 192.6 543.34 192.476 543.187 192.396C543.033 192.31 542.853 192.266 542.647 192.266ZM550.203 191.406V192.396H547.413L547.093 194.196C547.407 193.863 547.847 193.696 548.413 193.696C549.06 193.696 549.583 193.906 549.983 194.326C550.383 194.746 550.583 195.3 550.583 195.986C550.583 196.726 550.35 197.33 549.883 197.796C549.417 198.263 548.817 198.496 548.083 198.496C547.39 198.496 546.827 198.306 546.393 197.926C545.967 197.54 545.74 197.023 545.713 196.376H546.843C546.87 196.736 547 197.023 547.233 197.236C547.467 197.45 547.76 197.556 548.113 197.556C548.527 197.556 548.847 197.426 549.073 197.166C549.3 196.9 549.413 196.526 549.413 196.046C549.413 195.58 549.297 195.22 549.063 194.966C548.83 194.706 548.507 194.576 548.093 194.576C547.593 194.576 547.203 194.786 546.923 195.206L545.923 195.176L546.593 191.406H550.203Z" fill="white"/>
<path d="M537.08 51.2667C538.707 51.2667 539.52 52.4767 539.52 54.8967C539.52 56.0634 539.317 56.9501 538.91 57.5567C538.503 58.1634 537.907 58.4667 537.12 58.4667C535.493 58.4667 534.68 57.2701 534.68 54.8767C534.68 53.6967 534.883 52.8001 535.29 52.1867C535.697 51.5734 536.293 51.2667 537.08 51.2667ZM537.09 52.2267C536.89 52.2267 536.717 52.2667 536.57 52.3467C536.423 52.4201 536.303 52.5367 536.21 52.6967C536.123 52.8501 536.053 53.0067 536 53.1667C535.947 53.3201 535.907 53.5167 535.88 53.7567C535.86 53.9967 535.847 54.1967 535.84 54.3567C535.833 54.5101 535.83 54.7067 535.83 54.9467C535.83 55.8467 535.93 56.5001 536.13 56.9067C536.337 57.3134 536.663 57.5167 537.11 57.5167C537.283 57.5167 537.437 57.4834 537.57 57.4167C537.71 57.3434 537.823 57.2567 537.91 57.1567C537.997 57.0567 538.07 56.9234 538.13 56.7567C538.19 56.5901 538.233 56.4401 538.26 56.3067C538.293 56.1667 538.317 55.9967 538.33 55.7967C538.35 55.5901 538.36 55.4334 538.36 55.3267C538.367 55.2134 538.37 55.0701 538.37 54.8967C538.37 54.6701 538.367 54.4967 538.36 54.3767C538.36 54.2501 538.35 54.0634 538.33 53.8167C538.31 53.5634 538.27 53.3601 538.21 53.2067C538.157 53.0534 538.083 52.8934 537.99 52.7267C537.903 52.5601 537.783 52.4367 537.63 52.3567C537.477 52.2701 537.297 52.2267 537.09 52.2267ZM542.637 51.2667C544.263 51.2667 545.077 52.4767 545.077 54.8967C545.077 56.0634 544.873 56.9501 544.467 57.5567C544.06 58.1634 543.463 58.4667 542.677 58.4667C541.05 58.4667 540.237 57.2701 540.237 54.8767C540.237 53.6967 540.44 52.8001 540.847 52.1867C541.253 51.5734 541.85 51.2667 542.637 51.2667ZM542.647 52.2267C542.447 52.2267 542.273 52.2667 542.127 52.3467C541.98 52.4201 541.86 52.5367 541.767 52.6967C541.68 52.8501 541.61 53.0067 541.557 53.1667C541.503 53.3201 541.463 53.5167 541.437 53.7567C541.417 53.9967 541.403 54.1967 541.397 54.3567C541.39 54.5101 541.387 54.7067 541.387 54.9467C541.387 55.8467 541.487 56.5001 541.687 56.9067C541.893 57.3134 542.22 57.5167 542.667 57.5167C542.84 57.5167 542.993 57.4834 543.127 57.4167C543.267 57.3434 543.38 57.2567 543.467 57.1567C543.553 57.0567 543.627 56.9234 543.687 56.7567C543.747 56.5901 543.79 56.4401 543.817 56.3067C543.85 56.1667 543.873 55.9967 543.887 55.7967C543.907 55.5901 543.917 55.4334 543.917 55.3267C543.923 55.2134 543.927 55.0701 543.927 54.8967C543.927 54.6701 543.923 54.4967 543.917 54.3767C543.917 54.2501 543.907 54.0634 543.887 53.8167C543.867 53.5634 543.827 53.3601 543.767 53.2067C543.713 53.0534 543.64 52.8934 543.547 52.7267C543.46 52.5601 543.34 52.4367 543.187 52.3567C543.033 52.2701 542.853 52.2267 542.647 52.2267ZM550.203 51.3667V52.3567H547.413L547.093 54.1567C547.407 53.8234 547.847 53.6567 548.413 53.6567C549.06 53.6567 549.583 53.8667 549.983 54.2867C550.383 54.7067 550.583 55.2601 550.583 55.9467C550.583 56.6867 550.35 57.2901 549.883 57.7567C549.417 58.2234 548.817 58.4567 548.083 58.4567C547.39 58.4567 546.827 58.2667 546.393 57.8867C545.967 57.5001 545.74 56.9834 545.713 56.3367H546.843C546.87 56.6967 547 56.9834 547.233 57.1967C547.467 57.4101 547.76 57.5167 548.113 57.5167C548.527 57.5167 548.847 57.3867 549.073 57.1267C549.3 56.8601 549.413 56.4867 549.413 56.0067C549.413 55.5401 549.297 55.1801 549.063 54.9267C548.83 54.6667 548.507 54.5367 548.093 54.5367C547.593 54.5367 547.203 54.7467 546.923 55.1667L545.923 55.1367L546.593 51.3667H550.203Z" fill="white"/>
<rect x="612.673" y="78.7723" width="105.03" height="105.03" fill="white" fill-opacity="0.08"/>
<rect x="665.187" y="85.3366" width="2.18812" height="96.2772" fill="white" fill-opacity="0.08"/>
<path d="M659.614 191.306C661.241 191.306 662.054 192.516 662.054 194.936C662.054 196.103 661.851 196.99 661.444 197.596C661.038 198.203 660.441 198.506 659.654 198.506C658.028 198.506 657.214 197.31 657.214 194.916C657.214 193.736 657.418 192.84 657.824 192.226C658.231 191.613 658.828 191.306 659.614 191.306ZM659.624 192.266C659.424 192.266 659.251 192.306 659.104 192.386C658.958 192.46 658.838 192.576 658.744 192.736C658.658 192.89 658.588 193.046 658.534 193.206C658.481 193.36 658.441 193.556 658.414 193.796C658.394 194.036 658.381 194.236 658.374 194.396C658.368 194.55 658.364 194.746 658.364 194.986C658.364 195.886 658.464 196.54 658.664 196.946C658.871 197.353 659.198 197.556 659.644 197.556C659.818 197.556 659.971 197.523 660.104 197.456C660.244 197.383 660.358 197.296 660.444 197.196C660.531 197.096 660.604 196.963 660.664 196.796C660.724 196.63 660.768 196.48 660.794 196.346C660.828 196.206 660.851 196.036 660.864 195.836C660.884 195.63 660.894 195.473 660.894 195.366C660.901 195.253 660.904 195.11 660.904 194.936C660.904 194.71 660.901 194.536 660.894 194.416C660.894 194.29 660.884 194.103 660.864 193.856C660.844 193.603 660.804 193.4 660.744 193.246C660.691 193.093 660.618 192.933 660.524 192.766C660.438 192.6 660.318 192.476 660.164 192.396C660.011 192.31 659.831 192.266 659.624 192.266ZM665.171 191.306C666.798 191.306 667.611 192.516 667.611 194.936C667.611 196.103 667.408 196.99 667.001 197.596C666.594 198.203 665.998 198.506 665.211 198.506C663.584 198.506 662.771 197.31 662.771 194.916C662.771 193.736 662.974 192.84 663.381 192.226C663.788 191.613 664.384 191.306 665.171 191.306ZM665.181 192.266C664.981 192.266 664.808 192.306 664.661 192.386C664.514 192.46 664.394 192.576 664.301 192.736C664.214 192.89 664.144 193.046 664.091 193.206C664.038 193.36 663.998 193.556 663.971 193.796C663.951 194.036 663.938 194.236 663.931 194.396C663.924 194.55 663.921 194.746 663.921 194.986C663.921 195.886 664.021 196.54 664.221 196.946C664.428 197.353 664.754 197.556 665.201 197.556C665.374 197.556 665.528 197.523 665.661 197.456C665.801 197.383 665.914 197.296 666.001 197.196C666.088 197.096 666.161 196.963 666.221 196.796C666.281 196.63 666.324 196.48 666.351 196.346C666.384 196.206 666.408 196.036 666.421 195.836C666.441 195.63 666.451 195.473 666.451 195.366C666.458 195.253 666.461 195.11 666.461 194.936C666.461 194.71 666.458 194.536 666.451 194.416C666.451 194.29 666.441 194.103 666.421 193.856C666.401 193.603 666.361 193.4 666.301 193.246C666.248 193.093 666.174 192.933 666.081 192.766C665.994 192.6 665.874 192.476 665.721 192.396C665.568 192.31 665.388 192.266 665.181 192.266ZM673.037 193.146H671.937C671.817 192.506 671.464 192.186 670.877 192.186C670.711 192.186 670.557 192.22 670.417 192.286C670.277 192.353 670.161 192.43 670.067 192.516C669.974 192.603 669.891 192.73 669.817 192.896C669.744 193.056 669.687 193.193 669.647 193.306C669.614 193.413 669.577 193.57 669.537 193.776C669.504 193.983 669.484 194.126 669.477 194.206C669.471 194.286 669.457 194.42 669.437 194.606C669.824 194.033 670.357 193.746 671.037 193.746C671.684 193.746 672.204 193.96 672.597 194.386C672.997 194.813 673.197 195.37 673.197 196.056C673.197 196.77 672.974 197.356 672.527 197.816C672.087 198.276 671.524 198.506 670.837 198.506C670.031 198.506 669.411 198.203 668.977 197.596C668.544 196.99 668.327 196.123 668.327 194.996C668.327 193.83 668.557 192.92 669.017 192.266C669.477 191.613 670.114 191.286 670.927 191.286C671.521 191.286 672.004 191.45 672.377 191.776C672.751 192.103 672.971 192.56 673.037 193.146ZM670.807 194.656C670.434 194.656 670.137 194.786 669.917 195.046C669.697 195.3 669.587 195.64 669.587 196.066C669.587 196.513 669.701 196.873 669.927 197.146C670.161 197.42 670.464 197.556 670.837 197.556C671.204 197.556 671.497 197.423 671.717 197.156C671.944 196.89 672.057 196.536 672.057 196.096C672.057 195.663 671.944 195.316 671.717 195.056C671.491 194.79 671.187 194.656 670.807 194.656Z" fill="white"/>
<path d="M659.614 42.5142C661.241 42.5142 662.054 43.7242 662.054 46.1442C662.054 47.3109 661.851 48.1976 661.444 48.8042C661.038 49.4109 660.441 49.7142 659.654 49.7142C658.028 49.7142 657.214 48.5176 657.214 46.1242C657.214 44.9442 657.418 44.0476 657.824 43.4342C658.231 42.8209 658.828 42.5142 659.614 42.5142ZM659.624 43.4742C659.424 43.4742 659.251 43.5142 659.104 43.5942C658.958 43.6676 658.838 43.7842 658.744 43.9442C658.658 44.0976 658.588 44.2542 658.534 44.4142C658.481 44.5676 658.441 44.7642 658.414 45.0042C658.394 45.2442 658.381 45.4442 658.374 45.6042C658.368 45.7576 658.364 45.9542 658.364 46.1942C658.364 47.0942 658.464 47.7476 658.664 48.1542C658.871 48.5609 659.198 48.7642 659.644 48.7642C659.818 48.7642 659.971 48.7309 660.104 48.6642C660.244 48.5909 660.358 48.5042 660.444 48.4042C660.531 48.3042 660.604 48.1709 660.664 48.0042C660.724 47.8376 660.768 47.6876 660.794 47.5542C660.828 47.4142 660.851 47.2442 660.864 47.0442C660.884 46.8376 660.894 46.6809 660.894 46.5742C660.901 46.4609 660.904 46.3176 660.904 46.1442C660.904 45.9176 660.901 45.7442 660.894 45.6242C660.894 45.4976 660.884 45.3109 660.864 45.0642C660.844 44.8109 660.804 44.6076 660.744 44.4542C660.691 44.3009 660.618 44.1409 660.524 43.9742C660.438 43.8076 660.318 43.6842 660.164 43.6042C660.011 43.5176 659.831 43.4742 659.624 43.4742ZM665.171 42.5142C666.798 42.5142 667.611 43.7242 667.611 46.1442C667.611 47.3109 667.408 48.1976 667.001 48.8042C666.594 49.4109 665.998 49.7142 665.211 49.7142C663.584 49.7142 662.771 48.5176 662.771 46.1242C662.771 44.9442 662.974 44.0476 663.381 43.4342C663.788 42.8209 664.384 42.5142 665.171 42.5142ZM665.181 43.4742C664.981 43.4742 664.808 43.5142 664.661 43.5942C664.514 43.6676 664.394 43.7842 664.301 43.9442C664.214 44.0976 664.144 44.2542 664.091 44.4142C664.038 44.5676 663.998 44.7642 663.971 45.0042C663.951 45.2442 663.938 45.4442 663.931 45.6042C663.924 45.7576 663.921 45.9542 663.921 46.1942C663.921 47.0942 664.021 47.7476 664.221 48.1542C664.428 48.5609 664.754 48.7642 665.201 48.7642C665.374 48.7642 665.528 48.7309 665.661 48.6642C665.801 48.5909 665.914 48.5042 666.001 48.4042C666.088 48.3042 666.161 48.1709 666.221 48.0042C666.281 47.8376 666.324 47.6876 666.351 47.5542C666.384 47.4142 666.408 47.2442 666.421 47.0442C666.441 46.8376 666.451 46.6809 666.451 46.5742C666.458 46.4609 666.461 46.3176 666.461 46.1442C666.461 45.9176 666.458 45.7442 666.451 45.6242C666.451 45.4976 666.441 45.3109 666.421 45.0642C666.401 44.8109 666.361 44.6076 666.301 44.4542C666.248 44.3009 666.174 44.1409 666.081 43.9742C665.994 43.8076 665.874 43.6842 665.721 43.6042C665.568 43.5176 665.388 43.4742 665.181 43.4742ZM673.037 44.3542H671.937C671.817 43.7142 671.464 43.3942 670.877 43.3942C670.711 43.3942 670.557 43.4276 670.417 43.4942C670.277 43.5609 670.161 43.6376 670.067 43.7242C669.974 43.8109 669.891 43.9376 669.817 44.1042C669.744 44.2642 669.687 44.4009 669.647 44.5142C669.614 44.6209 669.577 44.7776 669.537 44.9842C669.504 45.1909 669.484 45.3342 669.477 45.4142C669.471 45.4942 669.457 45.6276 669.437 45.8142C669.824 45.2409 670.357 44.9542 671.037 44.9542C671.684 44.9542 672.204 45.1676 672.597 45.5942C672.997 46.0209 673.197 46.5776 673.197 47.2642C673.197 47.9776 672.974 48.5642 672.527 49.0242C672.087 49.4842 671.524 49.7142 670.837 49.7142C670.031 49.7142 669.411 49.4109 668.977 48.8042C668.544 48.1976 668.327 47.3309 668.327 46.2042C668.327 45.0376 668.557 44.1276 669.017 43.4742C669.477 42.8209 670.114 42.4942 670.927 42.4942C671.521 42.4942 672.004 42.6576 672.377 42.9842C672.751 43.3109 672.971 43.7676 673.037 44.3542ZM670.807 45.8642C670.434 45.8642 670.137 45.9942 669.917 46.2542C669.697 46.5076 669.587 46.8476 669.587 47.2742C669.587 47.7209 669.701 48.0809 669.927 48.3542C670.161 48.6276 670.464 48.7642 670.837 48.7642C671.204 48.7642 671.497 48.6309 671.717 48.3642C671.944 48.0976 672.057 47.7442 672.057 47.3042C672.057 46.8709 671.944 46.5242 671.717 46.2642C671.491 45.9976 671.187 45.8642 670.807 45.8642Z" fill="white"/>
<rect x="735.207" y="39.3861" width="105.03" height="144.416" fill="#EF4335"/>
<rect x="787.721" y="45.9505" width="2.18812" height="135.663" fill="white" fill-opacity="0.08"/>
<path d="M782.148 191.306C783.775 191.306 784.588 192.516 784.588 194.936C784.588 196.103 784.385 196.99 783.978 197.596C783.572 198.203 782.975 198.506 782.188 198.506C780.562 198.506 779.748 197.31 779.748 194.916C779.748 193.736 779.952 192.84 780.358 192.226C780.765 191.613 781.362 191.306 782.148 191.306ZM782.158 192.266C781.958 192.266 781.785 192.306 781.638 192.386C781.492 192.46 781.372 192.576 781.278 192.736C781.192 192.89 781.122 193.046 781.068 193.206C781.015 193.36 780.975 193.556 780.948 193.796C780.928 194.036 780.915 194.236 780.908 194.396C780.902 194.55 780.898 194.746 780.898 194.986C780.898 195.886 780.998 196.54 781.198 196.946C781.405 197.353 781.732 197.556 782.178 197.556C782.352 197.556 782.505 197.523 782.638 197.456C782.778 197.383 782.892 197.296 782.978 197.196C783.065 197.096 783.138 196.963 783.198 196.796C783.258 196.63 783.302 196.48 783.328 196.346C783.362 196.206 783.385 196.036 783.398 195.836C783.418 195.63 783.428 195.473 783.428 195.366C783.435 195.253 783.438 195.11 783.438 194.936C783.438 194.71 783.435 194.536 783.428 194.416C783.428 194.29 783.418 194.103 783.398 193.856C783.378 193.603 783.338 193.4 783.278 193.246C783.225 193.093 783.152 192.933 783.058 192.766C782.972 192.6 782.852 192.476 782.698 192.396C782.545 192.31 782.365 192.266 782.158 192.266ZM787.705 191.306C789.332 191.306 790.145 192.516 790.145 194.936C790.145 196.103 789.942 196.99 789.535 197.596C789.128 198.203 788.532 198.506 787.745 198.506C786.118 198.506 785.305 197.31 785.305 194.916C785.305 193.736 785.508 192.84 785.915 192.226C786.322 191.613 786.918 191.306 787.705 191.306ZM787.715 192.266C787.515 192.266 787.342 192.306 787.195 192.386C787.048 192.46 786.928 192.576 786.835 192.736C786.748 192.89 786.678 193.046 786.625 193.206C786.572 193.36 786.532 193.556 786.505 193.796C786.485 194.036 786.472 194.236 786.465 194.396C786.458 194.55 786.455 194.746 786.455 194.986C786.455 195.886 786.555 196.54 786.755 196.946C786.962 197.353 787.288 197.556 787.735 197.556C787.908 197.556 788.062 197.523 788.195 197.456C788.335 197.383 788.448 197.296 788.535 197.196C788.622 197.096 788.695 196.963 788.755 196.796C788.815 196.63 788.858 196.48 788.885 196.346C788.918 196.206 788.942 196.036 788.955 195.836C788.975 195.63 788.985 195.473 788.985 195.366C788.992 195.253 788.995 195.11 788.995 194.936C788.995 194.71 788.992 194.536 788.985 194.416C788.985 194.29 788.975 194.103 788.955 193.856C788.935 193.603 788.895 193.4 788.835 193.246C788.782 193.093 788.708 192.933 788.615 192.766C788.528 192.6 788.408 192.476 788.255 192.396C788.102 192.31 787.922 192.266 787.715 192.266ZM795.642 191.406V192.366C794.915 193.093 794.318 194.013 793.852 195.126C793.385 196.233 793.132 197.313 793.092 198.366H791.842C791.868 197.42 792.145 196.363 792.672 195.196C793.198 194.023 793.812 193.11 794.512 192.456H790.872V191.406H795.642Z" fill="white"/>
<path d="M782.148 0.94C783.775 0.94 784.588 2.15 784.588 4.57C784.588 5.73667 784.385 6.62333 783.978 7.23C783.572 7.83667 782.975 8.14 782.188 8.14C780.562 8.14 779.748 6.94333 779.748 4.55C779.748 3.37 779.952 2.47333 780.358 1.86C780.765 1.24667 781.362 0.94 782.148 0.94ZM782.158 1.9C781.958 1.9 781.785 1.94 781.638 2.02C781.492 2.09333 781.372 2.21 781.278 2.37C781.192 2.52333 781.122 2.68 781.068 2.84C781.015 2.99333 780.975 3.19 780.948 3.43C780.928 3.67 780.915 3.87 780.908 4.03C780.902 4.18333 780.898 4.38 780.898 4.62C780.898 5.52 780.998 6.17333 781.198 6.58C781.405 6.98667 781.732 7.19 782.178 7.19C782.352 7.19 782.505 7.15667 782.638 7.09C782.778 7.01667 782.892 6.93 782.978 6.83C783.065 6.73 783.138 6.59667 783.198 6.43C783.258 6.26333 783.302 6.11333 783.328 5.98C783.362 5.84 783.385 5.67 783.398 5.47C783.418 5.26333 783.428 5.10667 783.428 5C783.435 4.88667 783.438 4.74333 783.438 4.57C783.438 4.34333 783.435 4.17 783.428 4.05C783.428 3.92333 783.418 3.73667 783.398 3.49C783.378 3.23667 783.338 3.03333 783.278 2.88C783.225 2.72667 783.152 2.56667 783.058 2.4C782.972 2.23333 782.852 2.11 782.698 2.03C782.545 1.94333 782.365 1.9 782.158 1.9ZM787.705 0.94C789.332 0.94 790.145 2.15 790.145 4.57C790.145 5.73667 789.942 6.62333 789.535 7.23C789.128 7.83667 788.532 8.14 787.745 8.14C786.118 8.14 785.305 6.94333 785.305 4.55C785.305 3.37 785.508 2.47333 785.915 1.86C786.322 1.24667 786.918 0.94 787.705 0.94ZM787.715 1.9C787.515 1.9 787.342 1.94 787.195 2.02C787.048 2.09333 786.928 2.21 786.835 2.37C786.748 2.52333 786.678 2.68 786.625 2.84C786.572 2.99333 786.532 3.19 786.505 3.43C786.485 3.67 786.472 3.87 786.465 4.03C786.458 4.18333 786.455 4.38 786.455 4.62C786.455 5.52 786.555 6.17333 786.755 6.58C786.962 6.98667 787.288 7.19 787.735 7.19C787.908 7.19 788.062 7.15667 788.195 7.09C788.335 7.01667 788.448 6.93 788.535 6.83C788.622 6.73 788.695 6.59667 788.755 6.43C788.815 6.26333 788.858 6.11333 788.885 5.98C788.918 5.84 788.942 5.67 788.955 5.47C788.975 5.26333 788.985 5.10667 788.985 5C788.992 4.88667 788.995 4.74333 788.995 4.57C788.995 4.34333 788.992 4.17 788.985 4.05C788.985 3.92333 788.975 3.73667 788.955 3.49C788.935 3.23667 788.895 3.03333 788.835 2.88C788.782 2.72667 788.708 2.56667 788.615 2.4C788.528 2.23333 788.408 2.11 788.255 2.03C788.102 1.94333 787.922 1.9 787.715 1.9ZM795.642 1.04V2C794.915 2.72667 794.318 3.64667 793.852 4.76C793.385 5.86667 793.132 6.94667 793.092 8H791.842C791.868 7.05333 792.145 5.99667 792.672 4.83C793.198 3.65667 793.812 2.74333 794.512 2.09H790.872V1.04H795.642Z" fill="white"/>
<path d="M53.6084 145.51L176.143 97.3713L298.678 133.475L421.212 102.842L543.747 91.901L666.282 79.8663L788.816 39.3861" stroke="white" stroke-opacity="0.6"/>
<rect x="52" y="143" width="4" height="4" rx="2" fill="white"/>
<g filter="url(#filter0_d_55_2066)">
<rect x="172" y="94" width="8" height="8" rx="4" fill="#EF4335"/>
</g>
<rect x="297" y="132" width="4" height="4" rx="2" fill="white"/>
<rect x="419" y="101" width="4" height="4" rx="2" fill="white"/>
<rect x="542" y="90" width="4" height="4" rx="2" fill="white"/>
<rect x="664" y="78" width="4" height="4" rx="2" fill="white"/>
<rect x="786" y="37" width="4" height="4" rx="2" fill="white"/>
<defs>
<filter id="filter0_d_55_2066" x="168" y="90" width="16" height="16" filterUnits="userSpaceOnUse" color-interpolation-filters="sRGB">
<feFlood flood-opacity="0" result="BackgroundImageFix"/>
<feColorMatrix in="SourceAlpha" type="matrix" values="0 0 0 0 0 0 0 0 0 0 0 0 0 0 0 0 0 0 127 0" result="hardAlpha"/>
<feOffset/>
<feGaussianBlur stdDeviation="2"/>
<feColorMatrix type="matrix" values="0 0 0 0 0.536754 0 0 0 0 0.254028 0 0 0 0 0.983333 0 0 0 1 0"/>
<feBlend mode="normal" in2="BackgroundImageFix" result="effect1_dropShadow_55_2066"/>
<feBlend mode="normal" in="SourceGraphic" in2="effect1_dropShadow_55_2066" result="shape"/>
</filter>
</defs>
</svg>
