<svg width="150" height="140" viewBox="0 0 150 140" fill="none" xmlns="http://www.w3.org/2000/svg">
<path d="M102.989 135.918L97.3115 139.882H93.4166L16.7728 114.794L13.8681 112.714L12.2837 107.775L13.0759 31.0799L14.6602 26.4002L16.5747 25.0353L17.0368 25.6852H17.3669V26.1402L95.4632 133.773L96.4533 1.50694L96.1891 1.11696L96.4533 0.921985V0.207031H98.5658L103.319 3.65178L147.813 64.6174L149.662 70.4018L147.549 76.6418L102.989 135.918ZM17.3008 33.3547L16.5747 105.694L43.8391 69.882L17.3008 33.3547ZM46.4137 73.522L20.1395 108.099L62.0592 95.0354L46.4137 73.522ZM64.6998 98.6101L21.8559 111.934L90.7097 134.423L64.6998 98.6101ZM99.7542 132.993L144.182 73.847L100.084 87.561L99.7542 132.993ZM100.15 83.0762L141.806 70.0771L100.348 56.8183L100.15 83.0762ZM100.744 7.29154L100.414 52.3332L143.786 66.2427L100.744 7.29154Z" fill="#10BE56"/>
<path d="M54.0668 5.19967L96.9106 5.4596L131.305 30.4178L144.178 70.4549L130.578 110.297L95.6563 134.8L52.8125 134.541L18.4183 109.582L5.54527 69.5452L19.1444 29.7029L54.0668 5.19967ZM52.416 0L14.7214 26.4531L0 69.5452L13.9292 112.832L51.0957 139.74L97.3727 140L135.068 113.547L149.789 70.4549L135.859 27.1681L98.693 0.259988L52.416 0Z" fill="#10BE56"/>
</svg>
