<svg width="166" height="69" viewBox="0 0 166 69" fill="none" xmlns="http://www.w3.org/2000/svg">
  <path d="M15.4385 52.1234L0 16.9513H15.734L22.9731 32.0357L29.8429 16.9513H43.5825L22.9731 69H9.15971L15.4385 52.1234Z" fill="#FFD251" />
  <path d="M64.6598 56.9773C58.3071 56.9773 53.1363 55.21 49.1474 51.6753C45.2078 48.1407 43.2379 43.237 43.2379 36.9643V36.3669C43.2379 30.1439 45.2816 25.1656 49.369 21.4318C53.4564 17.6981 58.5533 15.8312 64.6598 15.8312C70.4708 15.8312 75.2723 17.5487 79.0642 20.9838C82.8561 24.4188 84.7521 29.4719 84.7521 36.1429V39.7273H57.9378C58.1348 42.0671 58.8488 43.8593 60.08 45.1039C61.3604 46.3485 63.0593 46.9708 65.1769 46.9708C68.5749 46.9708 70.5939 45.5768 71.2341 42.789H84.8259C84.235 47.3691 82.2405 50.8788 78.8426 53.3182C75.4939 55.7576 70.7663 56.9773 64.6598 56.9773ZM70.717 32.0357C70.4708 27.5552 68.4517 25.3149 64.6598 25.3149C62.8377 25.3149 61.3357 25.8874 60.1538 27.0325C59.0212 28.1775 58.3071 29.8452 58.0116 32.0357H70.717Z" fill="#FFD251" />
  <path d="M90.1087 0H104.587V56.0065H90.1087V0Z" fill="#FFD251" />
  <path d="M109.005 54.5877L124.812 27.9286H110.704V16.9513H145.496L138.898 27.9286L128.949 45.1039H144.462V56.0065H109.005V54.5877Z" fill="#FFD251" />
  <path d="M157.727 56.9026C155.412 56.9026 153.467 56.131 151.891 54.5877C150.364 52.9946 149.601 51.0779 149.601 48.8377C149.601 46.5974 150.364 44.7056 151.891 43.1623C153.418 41.619 155.363 40.8474 157.727 40.8474C160.091 40.8474 162.06 41.619 163.636 43.1623C165.212 44.7056 166 46.5974 166 48.8377C166 51.0779 165.212 52.9946 163.636 54.5877C162.06 56.131 160.091 56.9026 157.727 56.9026Z" fill="#FFD251" />
</svg>