<?xml version="1.0" encoding="iso-8859-1"?>
<!-- Generator: Adobe Illustrator 26.4.1, SVG Export Plug-In . SVG Version: 6.00 Build 0)  -->
<svg version="1.1" baseProfile="basic" id="Layer_1"
	 xmlns="http://www.w3.org/2000/svg" xmlns:xlink="http://www.w3.org/1999/xlink" x="0px" y="0px" viewBox="0 0 50 50"
	 xml:space="preserve">
<g>
	<rect y="10" width="50" height="2"/>
</g>
<g>
	<rect y="38" width="50" height="2"/>
</g>
<g>
	<path d="M12.816,28.748l-0.4,1.496c-0.173,1.249,1.121,1.362,1.566,0.276l0.782-2.925l-0.021,0.012
		C13.787,27.404,13.183,27.714,12.816,28.748z"/>
	<path d="M49.579,20.249c-0.137-0.176-0.3-0.325-0.481-0.444l0.536-1.983c0.064-0.196,0.099-0.405,0.099-0.622
		c0-1.102-0.888-1.995-1.989-2c-0.005,0-0.009,0-0.014,0c-0.035,0-0.07,0.001-0.105,0.003c-0.259,0.013-0.505,0.076-0.729,0.179
		l-3.031,1.312c-0.561,0.243-0.98,0.729-1.138,1.32l-0.404,1.513c-0.146-0.034-0.298-0.052-0.451-0.052h-2.655
		c-0.256,0-0.502,0.048-0.73,0.138c-0.226-0.089-0.472-0.138-0.73-0.138h-0.005h-2.655c-0.155,0-0.307,0.018-0.453,0.052
		c-0.144-0.599-0.561-1.114-1.152-1.37c-0.256-0.111-0.526-0.164-0.792-0.164c-0.6,0-1.186,0.271-1.574,0.765l-0.013,0.017
		c-0.079,0.101-0.149,0.21-0.207,0.324l-0.153,0.3h-1.256c-0.178,0-0.355,0.01-0.529,0.029l0.57-2.132
		c0.161-0.601,0.033-1.242-0.346-1.735c-0.379-0.493-0.965-0.782-1.586-0.782h-2.655c-0.178,0-0.351,0.023-0.516,0.068
		c-0.167-0.044-0.34-0.068-0.516-0.068h-2.655c-0.906,0-1.698,0.608-1.932,1.483l-0.979,3.662c-0.57-0.305-1.214-0.469-1.885-0.469
		h-0.058c-0.093,0-0.184,0.006-0.274,0.019h-1.37h-0.008l0.518-2.118c0.055-0.183,0.085-0.376,0.085-0.577c0-1.105-0.893-2-1.997-2
		h-0.005H9.05H7.877H6.395c-0.906,0-1.698,0.608-1.932,1.483L0.068,32.696c-0.161,0.601-0.033,1.242,0.346,1.735
		S1.378,35.213,2,35.213h2.655c0.906,0,1.698-0.608,1.932-1.483L7.317,31h0.21c-0.17,0.99,0.052,1.994,0.672,2.802
		c0.65,0.847,1.617,1.353,2.675,1.406c0.064,0.009,0.129,0.014,0.194,0.016c0.022,0.001,0.085,0.002,0.107,0.002
		c0.411,0,0.821-0.08,1.218-0.211c0.267,0.129,0.563,0.198,0.868,0.198h2.655c0.163,0,0.322-0.02,0.475-0.057
		c0.154,0.037,0.313,0.057,0.474,0.057h2.655c0.178,0,0.351-0.023,0.516-0.068c0.166,0.044,0.34,0.068,0.516,0.068h2.655
		c0.562,0,1.08-0.234,1.448-0.62c0.276,0.175,0.571,0.314,0.882,0.417c0.057,0.095,0.123,0.186,0.197,0.272
		c0.391,0.454,0.949,0.696,1.517,0.696c0.32,0,0.643-0.077,0.94-0.235l1.107-0.59c0.859-0.123,1.653-0.458,2.321-0.957
		c0.558,0.528,1.263,0.869,2.029,0.976c0.127,0.031,0.258,0.049,0.392,0.053c0.022,0.001,0.085,0.002,0.107,0.002
		c0.362,0,0.738-0.06,1.127-0.18c0.249,0.109,0.521,0.167,0.801,0.167h2.655c0.684,0,1.303-0.347,1.666-0.894
		c0.509,0.468,1.305,0.894,2.518,0.894h1.948c0.903,0,1.695-0.605,1.931-1.477l0.523-1.932c0.162-0.597,0.038-1.236-0.336-1.729
		c-0.148-0.195-0.328-0.359-0.529-0.486l1.168-4.322c0.881-0.034,1.64-0.644,1.859-1.504l0.457-1.792
		C50.091,21.372,49.958,20.737,49.579,20.249z M32.684,20.012l0.013-0.017l-0.241,1.602c0.781,0.384,1.244,1.282,0.999,2.195
		l-0.631,2.36h-3.279L32.684,20.012z M29.495,21.401h1.765l-5.653,6.395l1.148-4.291C27.086,22.264,28.21,21.401,29.495,21.401z
		 M6.539,26.171l-1.883,7.042H2l4.395-16.431h1.482H9.05h4.303l-0.574,2.347H8.422l-1.256,4.695h3.282l-0.574,2.347H6.539z
		 M15.917,33.213h-2.655l0.323-1.207c-0.743,0.626-1.735,1.243-2.45,1.219l0.005-0.012h-0.079c-1.057,0-1.827-1.003-1.554-2.024
		l0.694-2.595c0.378-1.414,1.66-2.398,3.124-2.398h0.069h0.104h1.64l0.46-1.72l-0.006-0.003c0.149-0.552,0.173-1.673-0.476-1.673
		c-0.554,0-0.78,0.35-0.916,0.774l-0.1,0.375c-0.007,0.031-0.015,0.062-0.022,0.094c-0.005,0.024-0.012,0.038-0.018,0.055
		l-0.234,0.874h-2.655l0.313-1.171c0.367-1.371,1.609-2.325,3.029-2.325h0.217h0.031h1.64l0.005-0.019h0.058
		c1.31,0,2.264,1.243,1.926,2.509L15.917,33.213z M19.521,33.213h-2.655l4.395-16.431h2.655L19.521,33.213z M23.209,33.213h-2.655
		l4.395-16.431h2.655L23.209,33.213z M26.813,33.213c-1.34,0-2.316-1.271-1.969-2.565l0.696-2.604h3.331l-1.805,5.169H26.813z
		 M31.547,30.929c-0.348,1.302-1.502,2.213-2.838,2.273l-1.456,0.776l5.426-7.28L31.547,30.929z M38.732,33.213h-2.655l0.278-1.039
		c-0.714,0.564-1.596,1.073-2.247,1.052l0.008-0.019c-1.096-0.035-1.886-1.079-1.6-2.149l0.659-2.464
		c0.017-0.063,0.045-0.121,0.065-0.182l1.855-6.936h2.655l-2.213,8.274h-0.017l-0.132,0.494c-0.145,1.043,0.736,1.297,1.289,0.719
		l2.537-9.487h2.655L38.732,33.213z M47.543,23.268H46.09l-1.963,7.263c-0.1,0.372,0.177,0.738,0.562,0.742l0.699,0.008
		l-0.523,1.932h-1.948c-1.667,0-1.817-1.33-1.435-2.775l1.912-7.17h-1.059l0.457-1.792h1.079l0.786-2.947l3.071-1.33l-1.156,4.276
		H48L47.543,23.268z"/>
</g>
</svg>