<?xml version="1.0" encoding="iso-8859-1"?>
<!-- Generator: Adobe Illustrator 26.4.1, SVG Export Plug-In . SVG Version: 6.00 Build 0)  -->
<svg version="1.1" baseProfile="basic" id="Layer_1"
	 xmlns="http://www.w3.org/2000/svg" xmlns:xlink="http://www.w3.org/1999/xlink" x="0px" y="0px" viewBox="0 0 64 64"
	 xml:space="preserve">
<linearGradient id="SVGID_1_" gradientUnits="userSpaceOnUse" x1="32" y1="15" x2="32" y2="49">
	<stop  offset="0" style="stop-color:#6DC7FF"/>
	<stop  offset="1" style="stop-color:#E6ABFF"/>
</linearGradient>
<path style="fill:url(#SVGID_1_);" d="M62,15v2H2v-2H62z M2,49h60v-2H2V49z"/>
<linearGradient id="SVGID_00000060715394789395647200000005340624135864493994_" gradientUnits="userSpaceOnUse" x1="32.5978" y1="21" x2="32.5978" y2="42.9778">
	<stop  offset="0" style="stop-color:#1A6DFF"/>
	<stop  offset="1" style="stop-color:#C822FF"/>
</linearGradient>
<path style="fill:url(#SVGID_00000060715394789395647200000005340624135864493994_);" d="M21.689,26.976h-0.075L21.608,27h-2.096
	h-0.039h-0.278c-1.814,0-3.402,1.219-3.871,2.972l-0.4,1.496h3.394l0.299-1.117c0.008-0.022,0.016-0.04,0.023-0.071
	c0.009-0.04,0.019-0.08,0.028-0.12l0.128-0.48c0.174-0.542,0.463-0.989,1.171-0.99c0.83,0,0.799,1.432,0.608,2.138l0.008,0.003
	l-0.588,2.199h-2.096h-0.133h-0.088c-1.871,0-3.509,1.257-3.993,3.065l-0.887,3.317C12.449,40.719,13.433,42,14.784,42h0.1
	l-0.007,0.016c0.913,0.03,2.181-0.759,3.131-1.558L17.596,42h3.394l3.161-11.818C24.583,28.564,23.364,26.976,21.689,26.976z
	 M18.516,38.559c-0.568,1.389-2.223,1.243-2.001-0.353l0.511-1.912c0.469-1.321,1.241-1.718,2.463-1.459l0.027-0.015L18.516,38.559z
	 M13.266,33H9.003l-2.407,9H3.202l5.617-21h1.894h1.5h5.5l-0.734,3H11.41l-1.605,6H14L13.266,33z M38.342,26.904h2.256l-7.225,8.173
	l1.467-5.484C35.264,28.007,36.701,26.904,38.342,26.904z M42.128,27.154c0.998,0.49,1.589,1.638,1.277,2.806l-0.807,3.016h-4.191
	l4.012-7.848l0.017-0.022L42.128,27.154z M61.994,27l-0.584,2.29h-1.857l-2.509,9.283c-0.128,0.475,0.226,0.943,0.718,0.949
	l0.894,0.01L57.987,42h-2.489c-2.13,0-2.322-1.699-1.833-3.546l2.444-9.164h-1.353L55.339,27h1.38l1.004-3.766l3.926-1.7L60.172,27
	H61.994z M54.161,27l-4.012,15h-3.394l0.355-1.328c-0.912,0.721-2.04,1.372-2.871,1.344l0.01-0.024
	c-1.401-0.045-2.41-1.38-2.044-2.746l0.842-3.149c0.022-0.081,0.057-0.154,0.084-0.233L45.502,27h3.394l-2.828,10.574h-0.021
	l-0.169,0.632c-0.185,1.333,0.94,1.657,1.648,0.919L50.767,27H54.161z M42.411,33.673l-1.446,5.408
	c-0.445,1.664-1.92,2.828-3.628,2.905l-1.861,0.992L42.411,33.673z M31.213,21l-5.617,21h-3.394l5.617-21H31.213z M35.926,21
	l-5.617,21h-3.394l5.617-21H35.926z M34.915,42c-1.713,0-2.96-1.624-2.517-3.279l0.89-3.328h4.257L35.238,42H34.915z"/>
</svg>