<svg width="314" height="90" viewBox="0 0 314 90" fill="none" xmlns="http://www.w3.org/2000/svg">
<path d="M0.4 26.64V1.32H19.2V6.52H6.8V11.32H17.56V16.52H6.8V21.44H19.2V26.64H0.4ZM38.7122 13.72L46.1122 26.64H38.1122L33.5122 17.68H33.3922L28.7922 26.64H20.7922L28.1922 13.72V13.52L21.2722 1.32H29.1522L33.3922 10.12H33.5122L37.7522 1.32H45.6322L38.7122 13.52V13.72ZM55.6672 26.64H49.2672V1.32H60.5472C63.0805 1.32 65.1072 1.62667 66.6272 2.24C68.1472 2.85333 69.2405 3.85333 69.9072 5.24C70.5739 6.62667 70.9072 8.50667 70.9072 10.88C70.9072 13.12 70.5739 14.9467 69.9072 16.36C69.2405 17.7467 68.1472 18.7733 66.6272 19.44C65.1072 20.1067 63.0805 20.44 60.5472 20.44H55.6672V26.64ZM59.5072 6.56H55.6672V15.2H59.5072C61.4005 15.2 62.6672 14.88 63.3072 14.24C63.9472 13.6 64.2672 12.48 64.2672 10.88C64.2672 9.36 63.9472 8.26667 63.3072 7.6C62.6672 6.90667 61.4005 6.56 59.5072 6.56ZM92.7063 21.2V26.64H74.3063V1.32H80.7063V21.2H92.7063ZM94.7172 13.96C94.7172 10.7333 95.0772 8.17333 95.7972 6.28C96.5439 4.38667 97.8105 3.02667 99.5972 2.2C101.411 1.37333 103.931 0.959999 107.157 0.959999C109.584 0.959999 111.597 1.18667 113.197 1.64C114.797 2.09333 116.064 2.82666 116.997 3.84C117.931 4.85333 118.584 6.2 118.957 7.88C119.357 9.53333 119.557 11.56 119.557 13.96C119.557 16.3867 119.357 18.44 118.957 20.12C118.584 21.7733 117.931 23.1067 116.997 24.12C116.064 25.1333 114.797 25.8667 113.197 26.32C111.597 26.7733 109.584 27 107.157 27C104.731 27 102.717 26.7733 101.117 26.32C99.5172 25.8667 98.2505 25.1333 97.3172 24.12C96.3839 23.1067 95.7172 21.7733 95.3172 20.12C94.9172 18.44 94.7172 16.3867 94.7172 13.96ZM107.157 21.4C108.864 21.4 110.144 21.1867 110.997 20.76C111.851 20.3333 112.424 19.5867 112.717 18.52C113.011 17.4267 113.157 15.9067 113.157 13.96C113.157 12.04 113.011 10.5467 112.717 9.48C112.424 8.41333 111.851 7.66667 110.997 7.24C110.144 6.78667 108.864 6.56 107.157 6.56C105.477 6.56 104.197 6.78667 103.317 7.24C102.464 7.66667 101.877 8.41333 101.557 9.48C101.264 10.5467 101.117 12.04 101.117 13.96C101.117 15.9067 101.264 17.4267 101.557 18.52C101.877 19.5867 102.464 20.3333 103.317 20.76C104.197 21.1867 105.477 21.4 107.157 21.4ZM129.964 26.64H123.564V1.32H135.644C138.817 1.32 141.124 2.04 142.564 3.48C144.031 4.89333 144.764 6.98667 144.764 9.76C144.764 11.84 144.244 13.6267 143.204 15.12C142.164 16.5867 140.791 17.5067 139.084 17.88L139.044 18C139.711 18.4267 140.444 19.1333 141.244 20.12C142.044 21.1067 142.831 22.1867 143.604 23.36C144.404 24.5067 145.111 25.5867 145.724 26.6V26.64H138.284L133.964 20.24C133.591 19.68 133.284 19.28 133.044 19.04C132.831 18.8 132.564 18.6533 132.244 18.6C131.951 18.5467 131.471 18.52 130.804 18.52H129.964V26.64ZM134.604 6.52H129.964V13.32H134.604C135.937 13.32 136.857 13.0533 137.364 12.52C137.897 11.9867 138.164 11.12 138.164 9.92C138.164 8.72 137.897 7.85333 137.364 7.32C136.857 6.78667 135.937 6.52 134.604 6.52ZM149.345 26.64V1.32H168.145V6.52H155.745V11.32H166.505V16.52H155.745V21.44H168.145V26.64H149.345ZM206.53 26.52V26.64H199.73C199.543 26 199.316 25.2667 199.05 24.44C198.81 23.6133 198.543 22.7333 198.25 21.8H189.61C189.076 23.6667 188.583 25.28 188.13 26.64H181.33V26.56L189.53 1.32H198.33L206.53 26.52ZM193.85 5.88C193.583 7.24 193.196 8.89333 192.69 10.84C192.183 12.7867 191.65 14.7733 191.09 16.8H196.81C196.223 14.7733 195.676 12.7867 195.17 10.84C194.663 8.89333 194.276 7.24 194.01 5.88H193.85ZM230.785 20.16C230.785 22.2933 230.119 23.9067 228.785 25C227.479 26.0933 225.159 26.64 221.825 26.64H209.345V1.32H210.905H221.425C223.639 1.32 225.359 1.56 226.585 2.04C227.839 2.49333 228.719 3.17333 229.225 4.08C229.732 4.98667 229.985 6.12 229.985 7.48C229.985 9.34667 229.532 10.8 228.625 11.84C227.745 12.8533 226.079 13.4667 223.625 13.68V13.8C225.439 13.9333 226.865 14.24 227.905 14.72C228.945 15.1733 229.679 15.84 230.105 16.72C230.559 17.6 230.785 18.7467 230.785 20.16ZM219.665 6.36H215.745V11.32H219.665C220.972 11.32 221.919 11.16 222.505 10.84C223.092 10.4933 223.385 9.82667 223.385 8.84C223.385 7.88 223.092 7.22667 222.505 6.88C221.919 6.53333 220.972 6.36 219.665 6.36ZM220.465 16.56H215.745V21.64H220.465C221.772 21.64 222.719 21.4667 223.305 21.12C223.892 20.7467 224.185 20.0667 224.185 19.08C224.185 18.0667 223.892 17.4 223.305 17.08C222.719 16.7333 221.772 16.56 220.465 16.56ZM233.584 13.96C233.584 10.7333 233.944 8.17333 234.664 6.28C235.411 4.38667 236.678 3.02667 238.464 2.2C240.278 1.37333 242.798 0.959999 246.024 0.959999C248.451 0.959999 250.464 1.18667 252.064 1.64C253.664 2.09333 254.931 2.82666 255.864 3.84C256.798 4.85333 257.451 6.2 257.824 7.88C258.224 9.53333 258.424 11.56 258.424 13.96C258.424 16.3867 258.224 18.44 257.824 20.12C257.451 21.7733 256.798 23.1067 255.864 24.12C254.931 25.1333 253.664 25.8667 252.064 26.32C250.464 26.7733 248.451 27 246.024 27C243.598 27 241.584 26.7733 239.984 26.32C238.384 25.8667 237.118 25.1333 236.184 24.12C235.251 23.1067 234.584 21.7733 234.184 20.12C233.784 18.44 233.584 16.3867 233.584 13.96ZM246.024 21.4C247.731 21.4 249.011 21.1867 249.864 20.76C250.718 20.3333 251.291 19.5867 251.584 18.52C251.878 17.4267 252.024 15.9067 252.024 13.96C252.024 12.04 251.878 10.5467 251.584 9.48C251.291 8.41333 250.718 7.66667 249.864 7.24C249.011 6.78667 247.731 6.56 246.024 6.56C244.344 6.56 243.064 6.78667 242.184 7.24C241.331 7.66667 240.744 8.41333 240.424 9.48C240.131 10.5467 239.984 12.04 239.984 13.96C239.984 15.9067 240.131 17.4267 240.424 18.52C240.744 19.5867 241.331 20.3333 242.184 20.76C243.064 21.1867 244.344 21.4 246.024 21.4ZM284.351 1.32V16.24C284.351 18.8533 284.031 20.9467 283.391 22.52C282.778 24.0933 281.698 25.24 280.151 25.96C278.605 26.6533 276.418 27 273.591 27C270.658 27 268.378 26.6533 266.751 25.96C265.151 25.24 264.031 24.0933 263.391 22.52C262.751 20.9467 262.431 18.8533 262.431 16.24V1.32H268.831V16.12C268.831 17.48 268.965 18.5467 269.231 19.32C269.498 20.0933 269.978 20.64 270.671 20.96C271.365 21.2533 272.338 21.4 273.591 21.4C274.765 21.4 275.658 21.2533 276.271 20.96C276.911 20.64 277.351 20.0933 277.591 19.32C277.831 18.5467 277.951 17.48 277.951 16.12V1.32H284.351ZM294.35 26.64V6.72H287.15V1.32H307.95V6.72H300.75V26.64H294.35ZM21.84 80.16C21.84 82.2933 21.1733 83.9067 19.84 85C18.5333 86.0933 16.2133 86.64 12.88 86.64H0.4V61.32H1.96H12.48C14.6933 61.32 16.4133 61.56 17.64 62.04C18.8933 62.4933 19.7733 63.1733 20.28 64.08C20.7867 64.9867 21.04 66.12 21.04 67.48C21.04 69.3467 20.5867 70.8 19.68 71.84C18.8 72.8533 17.1333 73.4667 14.68 73.68V73.8C16.4933 73.9333 17.92 74.24 18.96 74.72C20 75.1733 20.7333 75.84 21.16 76.72C21.6133 77.6 21.84 78.7467 21.84 80.16ZM10.72 66.36H6.8V71.32H10.72C12.0267 71.32 12.9733 71.16 13.56 70.84C14.1467 70.4933 14.44 69.8267 14.44 68.84C14.44 67.88 14.1467 67.2267 13.56 66.88C12.9733 66.5333 12.0267 66.36 10.72 66.36ZM11.52 76.56H6.8V81.64H11.52C12.8267 81.64 13.7733 81.4667 14.36 81.12C14.9467 80.7467 15.24 80.0667 15.24 79.08C15.24 78.0667 14.9467 77.4 14.36 77.08C13.7733 76.7333 12.8267 76.56 11.52 76.56ZM43.8391 81.2V86.64H25.4391V61.32H31.8391V81.2H43.8391ZM68.57 61.32V76.24C68.57 78.8533 68.25 80.9467 67.61 82.52C66.9967 84.0933 65.9167 85.24 64.37 85.96C62.8233 86.6533 60.6367 87 57.81 87C54.8767 87 52.5967 86.6533 50.97 85.96C49.37 85.24 48.25 84.0933 47.61 82.52C46.97 80.9467 46.65 78.8533 46.65 76.24V61.32H53.05V76.12C53.05 77.48 53.1833 78.5467 53.45 79.32C53.7167 80.0933 54.1967 80.64 54.89 80.96C55.5833 81.2533 56.5567 81.4 57.81 81.4C58.9833 81.4 59.8767 81.2533 60.49 80.96C61.13 80.64 61.57 80.0933 61.81 79.32C62.05 78.5467 62.17 77.48 62.17 76.12V61.32H68.57ZM73.3688 86.64V61.32H92.1688V66.52H79.7688V71.32H90.5288V76.52H79.7688V81.44H92.1688V86.64H73.3688ZM126.233 81.16V86.2C124.953 86.4667 123.7 86.6667 122.473 86.8C121.246 86.9333 119.793 87 118.113 87C115.953 87 114.126 86.8133 112.633 86.44C111.166 86.0667 109.98 85.4133 109.073 84.48C108.193 83.52 107.553 82.1733 107.153 80.44C106.753 78.7067 106.553 76.48 106.553 73.76C106.553 71.1467 106.753 69 107.153 67.32C107.553 65.64 108.193 64.3467 109.073 63.44C109.98 62.5067 111.166 61.8667 112.633 61.52C114.126 61.1467 115.953 60.96 118.113 60.96C119.793 60.96 121.246 61.0267 122.473 61.16C123.7 61.2667 124.953 61.4667 126.233 61.76V66.96L126.113 67.04C124.993 66.7733 123.913 66.5867 122.873 66.48C121.833 66.3467 120.553 66.28 119.033 66.28C117.806 66.28 116.793 66.3733 115.993 66.56C115.22 66.72 114.606 67.0533 114.153 67.56C113.7 68.0667 113.38 68.8133 113.193 69.8C113.033 70.7867 112.953 72.1067 112.953 73.76C112.953 75.4933 113.033 76.8933 113.193 77.96C113.38 79 113.7 79.7867 114.153 80.32C114.606 80.8533 115.22 81.2133 115.993 81.4C116.793 81.5867 117.806 81.68 119.033 81.68C120.526 81.68 121.793 81.64 122.833 81.56C123.9 81.4533 124.966 81.2667 126.033 81L126.233 81.16ZM136.019 86.64H129.619V61.32H136.019V71H145.619V61.32H152.019V86.64H145.619V76.2H136.019V86.64ZM163.206 86.64H156.806V61.32H163.206V86.64ZM186.897 81.16V86.2C185.617 86.4667 184.364 86.6667 183.137 86.8C181.911 86.9333 180.457 87 178.777 87C176.617 87 174.791 86.8133 173.297 86.44C171.831 86.0667 170.644 85.4133 169.737 84.48C168.857 83.52 168.217 82.1733 167.817 80.44C167.417 78.7067 167.217 76.48 167.217 73.76C167.217 71.1467 167.417 69 167.817 67.32C168.217 65.64 168.857 64.3467 169.737 63.44C170.644 62.5067 171.831 61.8667 173.297 61.52C174.791 61.1467 176.617 60.96 178.777 60.96C180.457 60.96 181.911 61.0267 183.137 61.16C184.364 61.2667 185.617 61.4667 186.897 61.76V66.96L186.777 67.04C185.657 66.7733 184.577 66.5867 183.537 66.48C182.497 66.3467 181.217 66.28 179.697 66.28C178.471 66.28 177.457 66.3733 176.657 66.56C175.884 66.72 175.271 67.0533 174.817 67.56C174.364 68.0667 174.044 68.8133 173.857 69.8C173.697 70.7867 173.617 72.1067 173.617 73.76C173.617 75.4933 173.697 76.8933 173.857 77.96C174.044 79 174.364 79.7867 174.817 80.32C175.271 80.8533 175.884 81.2133 176.657 81.4C177.457 81.5867 178.471 81.68 179.697 81.68C181.191 81.68 182.457 81.64 183.497 81.56C184.564 81.4533 185.631 81.2667 186.697 81L186.897 81.16ZM196.683 86.64H190.283V61.32H196.683V71.92C196.736 71.92 196.776 71.92 196.803 71.92C197.069 71.92 197.376 71.7067 197.723 71.28C198.096 70.8533 198.429 70.4267 198.723 70L204.083 61.32H211.043V61.44L206.483 68.8C206.083 69.4667 205.629 70.1867 205.123 70.96C204.616 71.7067 204.109 72.3733 203.603 72.96C203.123 73.52 202.696 73.8667 202.323 74V74.12C202.696 74.28 203.123 74.6267 203.603 75.16C204.109 75.6667 204.616 76.2667 205.123 76.96C205.656 77.6267 206.163 78.2933 206.643 78.96L211.963 86.52V86.64H204.603L199.603 78.96V79C199.443 78.7333 199.189 78.3867 198.843 77.96C198.523 77.5067 198.176 77.0933 197.803 76.72C197.456 76.3467 197.149 76.16 196.883 76.16C196.829 76.16 196.789 76.16 196.763 76.16C196.736 76.16 196.709 76.16 196.683 76.16V86.64ZM214.541 86.64V61.32H233.341V66.52H220.941V71.32H231.701V76.52H220.941V81.44H233.341V86.64H214.541ZM252.933 61.32H259.333V86.64H252.973L245.773 75.92C245.213 75.0667 244.746 74.3467 244.373 73.76C243.999 73.1733 243.653 72.5867 243.333 72C243.013 71.4133 242.653 70.72 242.253 69.92L242.133 70.08C242.506 71.36 242.733 72.56 242.813 73.68C242.893 74.7733 242.933 75.84 242.933 76.88V86.64H236.533V61.32H242.893L250.093 72.04C250.653 72.8667 251.119 73.5867 251.493 74.2C251.866 74.7867 252.213 75.3733 252.533 75.96C252.853 76.5467 253.213 77.24 253.613 78.04L253.733 77.88C253.466 76.76 253.266 75.68 253.133 74.64C252.999 73.5733 252.933 72.52 252.933 71.48V61.32ZM273.742 89.8H313.742V49.8H273.742V89.8Z" fill="#111111"/>
</svg>
